<?xml version="1.0" encoding="UTF-8" standalone="no"?>
<!-- Created with Inkscape (http://www.inkscape.org/) -->

<svg
   version="1.1"
   id="svg1"
   width="4493.8584"
   height="3178.5828"
   viewBox="0 0 4493.8584 3178.5828"
   sodipodi:docname="aileiconA5.svg"
   inkscape:version="1.4.4 (dcaf3e7, 2026-05-05)"
   xmlns:inkscape="http://www.inkscape.org/namespaces/inkscape"
   xmlns:sodipodi="http://sodipodi.sourceforge.net/DTD/sodipodi-0.dtd"
   xmlns="http://www.w3.org/2000/svg"
   xmlns:svg="http://www.w3.org/2000/svg">
  <defs
     id="defs1" />
  <sodipodi:namedview
     id="namedview1"
     pagecolor="#ffffff"
     bordercolor="#000000"
     borderopacity="0.25"
     inkscape:showpageshadow="2"
     inkscape:pageopacity="0.0"
     inkscape:pagecheckerboard="0"
     inkscape:deskcolor="#d1d1d1"
     inkscape:zoom="0.12159507"
     inkscape:cx="4153.1288"
     inkscape:cy="2397.3011"
     inkscape:window-width="1920"
     inkscape:window-height="991"
     inkscape:window-x="-9"
     inkscape:window-y="-9"
     inkscape:window-maximized="1"
     inkscape:current-layer="g130">
    <inkscape:page
       x="0"
       y="0"
       inkscape:label="1"
       id="page1"
       width="4493.8584"
       height="3178.5828"
       margin="0"
       bleed="0" />
    <inkscape:page
       x="4513.8583"
       y="0"
       inkscape:label="2"
       id="page130"
       width="4493.8583"
       height="3178.5827" />
  </sodipodi:namedview>
  <g
     id="g1"
     inkscape:groupmode="layer"
     inkscape:label="1">
    <path
       id="path58"
       d="m 2739.6003,1825.5526 -0.4822,0.8124 273.5121,319.3268 0.7575,-0.6485 -273.5122,-319.3268 z m 0.2752,0.1639 -0.1102,-0.1287 -0.165,-0.035 0.2752,0.1639 z m -466.251,-98.86 -0.029,0.9822 465.7981,98.6902 0.2069,-0.9763 -465.7981,-98.6901 -0.1777,-0.01 z m 0,0 -2.7221,0.4116 2.6929,0.5706 0.029,-0.9822 z m 114.2294,-16.7301 -0.5723,-0.4569 -113.6571,17.187 0.1485,0.9882 113.6571,-17.1871 z m -0.4238,0.5312 0.459,-0.069 -0.035,-0.4621 -0.4238,0.5312 z m -6.6483,-86.5788 -0.4669,0.5352 6.5429,85.5867 0.9961,-0.074 -6.5429,-85.5867 -0.5292,-0.4609 z m 0,0 -0.5052,0.033 0.038,0.5026 0.4669,-0.5352 z m 168.0548,-10.531 -0.5097,-0.3595 -167.5451,10.8905 0.062,0.9961 167.5452,-10.8905 0.4473,-0.6366 z m 0,0 -0.112,-0.3852 -0.3977,0.026 0.5097,0.3595 z m 19.6631,69.5106 0.4042,-0.6327 -20.0673,-68.8779 -0.957,0.2772 20.0673,68.8779 z m -0.5528,-0.3555 0.1225,0.4207 0.4303,-0.065 -0.5528,-0.3555 z m 128.9375,-20.1906 -0.074,0.01 -128.4591,19.5519 0.1486,0.9882 128.459,-19.552 -0.074,-0.9941 z m 0,0 h -0.035 l -0.039,0.01 z m 496.2989,0.248 -0.4298,-0.248 h -495.8691 v 1.0001 h 495.8691 z m 0,0 -0.1449,-0.248 h -0.2849 z m 29.4667,51.7921 0.3985,-0.75 -29.8652,-51.0421 -0.8595,0.504 29.8653,51.0421 z m 0,0 0.8059,-0.053 -0.4074,-0.6965 -0.3985,0.75 z m -173.4404,11.2147 0.4802,0.2832 172.9602,-11.4979 -0.062,-0.9961 -172.9601,11.4979 -0.4179,0.7129 z m 0.4179,-0.7129 -0.737,0.049 0.3191,0.6641 0.4179,-0.7129 z m 193.7712,403.7233 0.4451,-0.7129 -193.7361,-402.7272 -0.8981,0.4297 193.7362,402.7272 z m -0.4529,-0.2832 0.1372,0.2855 h 0.3157 l -0.4529,-0.2832 z m 104.1327,-1.0491 -0.5021,-0.4824 -103.1856,0.8186 0.01,0.9961 103.1857,-0.8186 0.4941,-0.5137 z m 0,0 -0.015,-0.4861 h -0.4867 l 0.5021,0.4824 z m 0.691,37.6008 0.4765,-0.5137 -1.1675,-37.0871 -0.9961,0.031 1.1676,37.0871 0.5195,0.4825 z m 0,0 0.4919,-0.022 -0.015,-0.4921 -0.4765,0.5137 z m -282.9849,12.4823 0.1993,0.032 282.7856,-12.5138 -0.043,-0.9961 -282.7857,12.5138 -0.1562,0.9646 z m 0,0 0.095,0.036 h 0.1046 l -0.1993,-0.032 z m -27.6318,-10.5508 0.1482,0.09 27.4836,10.4612 0.3555,-0.9332 -27.4836,-10.4612 -0.5037,0.8436 z m 0,0 0.068,0.059 0.08,0.031 -0.1482,-0.09 z m -24.5226,-21.2857 0.053,0.053 24.4698,21.2329 0.6519,-0.754 -24.4698,-21.2329 -0.7047,0.7012 z m 0,0 0.023,0.027 0.03,0.026 z"
       style="fill:#231f20;fill-opacity:1;fill-rule:nonzero;stroke:none"
       transform="matrix(1.3333333,0,0,-1.3333333,0,3178.5827)" />
    <path
       id="path103"
       d="m 2902.9468,360.97765 -0.049,-0.12 -0.7518,-2.48133 1.2722,-0.3832 0.7517,2.4812 -1.2223,0.50386 z m 0,0 -0.031,-0.0573 -0.019,-0.0627 z m 1.2929,2.39547 -0.071,-0.108 -1.2223,-2.28734 1.1724,-0.6244 1.2223,2.28734 -1.1018,0.73253 z m 0,0 -0.037,-0.0453 -0.033,-0.0627 z m 1.7394,2.0988 -0.095,-0.0933 -1.6445,-2.00573 1.031,-0.84053 1.6446,2.00573 -0.9363,0.9336 z m 0,0 -0.057,-0.0467 -0.039,-0.0467 0.095,0.0933 z m 2.112,1.71773 -0.108,-0.072 -2.004,-1.6456 0.8413,-1.02653 2.0039,1.6456 -0.7332,1.09866 z m 0,0 -0.057,-0.0307 -0.051,-0.0413 z m 2.408,1.2748 -0.1214,-0.052 -2.2866,-1.22307 0.6252,-1.17093 2.2865,1.22307 -0.5037,1.22266 z m 0,0 -0.057,-0.0173 -0.064,-0.0347 z m 2.6086,0.77907 -0.128,-0.0253 -2.4812,-0.75333 0.3824,-1.2744 2.4814,0.7532 -0.2551,1.30027 z m 0,0 h -0.063 l -0.064,-0.02 0.128,0.0253 z m 2.7084,0.25426 -0.128,4e-4 -2.5809,-0.25466 0.128,-1.32587 2.5809,0.25467 -2e-4,1.32546 z m 0,0 h -0.065 -0.061 l 0.128,-4e-4 z m 2.7088,-0.27933 -0.128,0.0267 -2.5806,0.2528 -0.1267,-1.32507 2.5807,-0.2528 0.2552,1.29853 z m 0,0 -0.068,0.02 h -0.06 l 0.128,-0.0267 z m 2.6022,-0.80267 -0.12,0.0493 -2.4816,0.7528 -0.3834,-1.27214 2.4816,-0.75293 0.5039,1.2224 z m 0,0 -0.057,0.0307 -0.063,0.0187 z m 2.395,-1.29453 -0.108,0.0733 -2.2869,1.2212 -0.6244,-1.1724 2.2871,-1.2212 0.7324,1.09907 z m 0,0 -0.055,0.0453 -0.053,0.0293 0.108,-0.0733 z m 2.0984,-1.73707 -0.093,0.092 -2.0055,1.6448 -0.8405,-1.02573 2.0055,-1.64493 0.9334,0.9336 z m 0,0 -0.04,0.0493 -0.053,0.044 0.093,-0.092 z m 1.7179,-2.112 -0.072,0.108 -1.6456,2.00387 -1.0265,-0.84133 1.6456,-2.00387 1.0988,0.7332 z m 0,0 -0.031,0.0573 -0.041,0.0507 z m 1.2752,-2.40826 -0.052,0.12133 -1.2233,2.28693 -1.171,-0.62506 1.2235,-2.28707 1.2227,0.50387 z m 0,0 -0.017,0.056 -0.035,0.0653 z m 0.7785,-2.60867 -0.025,0.128 -0.7528,2.48133 -1.2745,-0.38253 0.7529,-2.4812 1.3001,0.25507 z m 0,0 v 0.0627 l -0.02,0.064 0.025,-0.128 z m 0.2548,-2.7084 3e-4,0.12667 -0.2551,2.58106 -1.3258,-0.128 0.2552,-2.58106 1.3254,4e-4 z m 0,0 v 0.0653 0.0613 l -2e-4,-0.12667 z m -0.2797,-2.7084 0.027,0.128 0.2533,2.58027 -1.3252,0.12666 -0.2532,-2.58026 1.2987,-0.25507 z m 0,0 0.02,0.068 v 0.06 l -0.027,-0.128 z m -0.802,-2.60227 0.049,0.12134 0.7522,2.4816 -1.2722,0.3832 -0.7521,-2.4816 1.2223,-0.50387 z m 0,0 0.031,0.0573 0.019,0.0627 -0.049,-0.12133 z m -1.2929,-2.39546 0.071,0.108 1.2223,2.28733 -1.1724,0.6244 -1.2223,-2.28733 1.1018,-0.73254 z m 0,0 0.037,0.0453 0.033,0.0627 z m -1.7394,-2.0988 0.095,0.0933 1.6445,2.00573 -1.031,0.84067 -1.6446,-2.00587 0.9363,-0.9336 z m 0,0 0.057,0.0467 0.039,0.0467 -0.095,-0.0933 z m -2.112,-1.71694 0.108,0.072 2.004,1.6448 -0.8413,1.02654 -2.004,-1.6448 0.7333,-1.09867 z m 0,0 0.057,0.0307 0.051,0.0413 z m -2.408,-1.2752 0.1214,0.052 2.2866,1.22347 -0.6252,1.1708 -2.2866,-1.22333 0.5038,-1.22267 z m 0,0 0.057,0.0173 0.064,0.0347 z m -2.6086,-0.77933 0.128,0.0253 2.4812,0.75374 -0.3826,1.2744 -2.4812,-0.7536 0.2551,-1.30014 z m 0,0 h 0.063 l 0.064,0.02 -0.128,-0.0253 z m -2.7084,-0.2536 0.1266,-4e-4 2.5811,0.254 -0.128,1.32573 -2.5811,-0.25386 4e-4,-1.32547 z m 0,0 h 0.065 0.061 l -0.1266,4e-4 z m -2.7088,0.2788 0.128,-0.0267 2.5806,-0.2524 0.1267,1.32507 -2.5807,0.2524 -0.2552,-1.29867 z m 0,0 0.068,-0.02 h 0.06 l -0.128,0.0267 z m -2.6026,0.8024 0.12,-0.0493 2.482,-0.75254 0.3834,1.27227 -2.4822,0.75253 -0.5037,-1.2224 z m 0,0 0.057,-0.0307 0.063,-0.0187 z m -2.3946,1.29267 0.108,-0.0707 2.2866,-1.222 0.6244,1.1724 -2.2866,1.222 z m 0,0 0.045,-0.0373 0.063,-0.0333 z m -2.0984,1.73893 0.093,-0.0947 2.0055,-1.64413 0.8405,1.03107 -2.0055,1.64413 -0.9334,-0.93627 z m 0,0 0.047,-0.0573 0.047,-0.0387 -0.093,0.0947 z m -1.7179,2.112 0.072,-0.108 1.6456,-2.00387 1.0265,0.84134 -1.6457,2.00386 -1.0987,-0.7332 z m 0,0 0.031,-0.0573 0.041,-0.0507 z m -1.2748,2.40827 0.052,-0.12134 1.2231,-2.28706 1.1709,0.6252 -1.2231,2.28693 -1.2226,-0.50387 z m 0,0 0.017,-0.056 0.035,-0.0653 z m -0.7789,2.60866 0.025,-0.12666 0.7533,-2.48134 1.2744,0.38254 -0.7532,2.48133 -1.3001,-0.2552 z m 0,0 v -0.0627 l 0.02,-0.064 -0.025,0.12666 z m -0.2544,2.7084 -4e-4,-0.12666 0.2548,-2.58107 1.3258,0.128 -0.2548,2.58107 -1.3254,-4e-4 z m 0,0 v -0.0653 -0.0613 l 4e-4,0.12666 z m 0.2797,2.7088 -0.027,-0.128 -0.2532,-2.58066 1.3251,-0.12667 0.2532,2.58067 -1.2985,0.25506 z m 0,0 -0.02,-0.068 v -0.06 l 0.027,0.128 z"
       style="fill:#231f20;fill-opacity:1;fill-rule:nonzero;stroke:none;stroke-width:1.33333" />
    <path
       id="path104"
       d="m 2751.6541,378.71952 0.3146,-1.2832 35.5029,4.6896 -0.1693,1.31986 -35.503,-4.6896 -0.1452,-0.0373 z m 0.1452,0.0373 -0.072,-0.0133 -0.073,-0.0267 0.1452,0.0373 z m -12.5688,-5.69733 0.6607,-0.11734 12.2225,4.532 -0.4596,1.24654 -12.2225,-4.532 -0.2011,-1.12867 z m 0.2011,1.12866 -1.0609,-0.39346 0.8598,-0.7352 z m 25.2283,-22.80946 0.6565,1.1316 -25.2241,21.55986 -0.8618,-1.01066 25.2242,-21.55987 0.2052,-0.12133 z m -0.2052,0.12133 0.095,-0.0813 0.1107,-0.04 -0.2052,0.12133 z m 41.8302,-15.15213 0.344,1.282 -41.5177,15.00173 -0.4513,-1.25253 41.5177,-15.00174 0.108,-0.0293 z m -0.108,0.0293 0.056,-0.02 0.052,-0.0133 -0.108,0.0293 z m 54.9302,-9.9764 0.1456,1.32013 -54.7318,9.93827 -0.2366,-1.31147 54.7317,-9.93826 0.091,-0.0133 z m -0.091,0.0133 h 0.035 0.056 l -0.091,0.0133 z m 78.7166,-3.3056 -0.019,1.32774 -78.5525,3.298 -0.055,-1.3288 78.5526,-3.298 0.073,10e-4 z m -0.073,-0.001 0.036,-10e-4 h 0.037 l -0.073,-0.001 z m 84.5597,5.9508 -0.128,1.3232 -84.4501,-5.94627 0.092,-1.32667 84.4501,5.9464 h 0.037 z m -0.037,0 h 0.023 0.015 z m 109.4332,14.00386 -0.206,1.31374 -109.3553,-13.9944 0.1648,-1.31987 109.3553,13.9944 h 0.041 z m -0.041,0 h 0.028 0.013 z m 214.4648,42.152 -0.1227,-0.0133 -214.5487,-40.82787 0.2472,-1.30773 214.5487,40.828 -0.1253,1.31787 z m -521.0793,-4e-4 0.029,-1.32773 h 521.0532 v 1.32813 H 2826.989 l -0.025,-4e-4 z m 0.025,4e-4 h -0.017 l -0.013,-4e-4 0.025,4e-4 z m -39.6847,-1.75333 0.112,-1.3236 39.6016,1.7492 -0.055,1.32733 -39.6016,-1.7492 h -0.057 z m 0.057,0 h -0.043 -0.015 z"
       style="fill:#231f20;fill-opacity:1;fill-rule:nonzero;stroke:none;stroke-width:1.33333" />
    <path
       id="path105"
       d="m 3120.8052,366.28258 0.027,0.128 0.091,0.92214 -1.3251,0.12666 -0.091,-0.92226 1.2986,-0.25507 z m 0,0 0.02,0.068 v 0.06 l -0.027,-0.128 z m -0.3191,-1.00653 0.049,0.12133 0.2691,0.88587 -1.2723,0.3832 -0.269,-0.88587 1.2222,-0.50386 z m 0,0 0.031,0.0573 0.02,0.064 -0.049,-0.12133 z m -0.5072,-0.9244 0.071,0.108 0.4365,0.8164 -1.1724,0.6244 -0.4365,-0.8164 z m 0,0 0.037,0.0453 0.033,0.0627 z m -0.6821,-0.81 0.095,0.0933 0.5874,0.71707 -1.0311,0.84053 -0.5873,-0.71693 0.9362,-0.9336 z m 0,0 0.057,0.0467 0.037,0.0453 -0.095,-0.0933 z m -0.8236,-0.65947 0.108,0.072 0.7154,0.58734 -0.8413,1.02653 -0.7155,-0.58733 0.7332,-1.09867 z m 0,0 0.057,0.0307 0.051,0.0413 z m -0.9351,-0.4888 0.1187,0.052 0.8164,0.43694 -0.6251,1.1708 -0.8164,-0.4368 0.5064,-1.2228 z m 0,0 0.051,0.0147 0.068,0.036 -0.1187,-0.052 z m -1.0167,-0.29546 0.1294,0.0253 0.8866,0.26973 -0.3877,1.27454 -0.8867,-0.26987 0.2578,-1.30013 z m 0,0 h 0.067 l 0.063,0.0187 -0.1294,-0.0253 z m -1.0492,-0.0907 0.1267,-4e-4 0.9219,0.0907 -0.128,1.32586 -0.9219,-0.0907 4e-4,-1.32547 z m 0,0 h 0.065 0.061 l -0.1267,4e-4 z m -1.0496,0.11733 0.128,-0.0267 0.9215,-0.0907 0.1267,1.3252 -0.9214,0.0907 -0.2552,-1.29867 z m 0,0 0.068,-0.02 h 0.061 l -0.128,0.0267 z m -1.0068,0.31894 0.12,-0.0493 0.8863,-0.26906 0.3833,1.27213 -0.8864,0.2692 -0.5037,-1.2224 z m 0,0 0.057,-0.0307 0.063,-0.0187 z m -0.9249,0.5092 0.108,-0.0733 0.8168,-0.43586 0.6244,1.17253 -0.8168,0.43573 -0.7325,-1.09906 z m 0,0 0.055,-0.0453 0.053,-0.0293 -0.108,0.0733 z m -0.8088,0.67986 0.093,-0.092 0.7158,-0.58773 0.8406,1.02573 -0.7158,0.58774 -0.9336,-0.9336 z m 0,0 0.04,-0.048 0.053,-0.044 z m -0.6603,0.8244 0.072,-0.108 0.5882,-0.71626 1.0265,0.84133 -0.5881,0.71627 -1.0987,-0.7332 z m 0,0 0.031,-0.0573 0.041,-0.0507 z m -0.4886,0.9376 0.052,-0.12133 0.4369,-0.81627 1.1709,0.62507 -0.4369,0.8164 -1.2227,-0.50387 z m 0,0 0.017,-0.056 0.035,-0.0653 z m -0.2944,1.01374 0.025,-0.12667 0.2688,-0.8864 1.2744,0.38253 -0.2687,0.88627 -1.3001,-0.25507 z m 0,0 v -0.0627 l 0.02,-0.064 -0.025,0.12667 z m -0.091,1.0484 -3e-4,-0.12667 0.091,-0.92107 1.3259,0.128 -0.091,0.92107 -1.3255,-4e-4 z m 0,0 v -0.0653 -0.0613 l 3e-4,0.12667 z m 0.1173,1.0504 -0.027,-0.128 -0.091,-0.92227 1.3252,-0.12667 0.091,0.92214 -1.2987,0.2552 z m 0,0 -0.02,-0.068 v -0.06 l 0.027,0.128 z m 0.3187,1.0064 -0.049,-0.12 -0.2688,-0.88587 1.2722,-0.38333 0.2687,0.886 -1.2223,0.50373 z m 0,0 -0.031,-0.0573 -0.019,-0.0627 z m 0.5072,0.92533 -0.071,-0.108 -0.4365,-0.8172 1.1724,-0.62427 0.4365,0.81707 -1.1017,0.73253 z m 0,0 -0.037,-0.0453 -0.033,-0.0627 z m 0.6819,0.8088 -0.095,-0.0933 -0.5869,-0.71574 1.031,-0.84066 0.587,0.71586 -0.9362,0.9336 z m 0,0 -0.057,-0.0467 -0.037,-0.0467 z m 0.8238,0.66067 -0.108,-0.072 -0.7157,-0.5884 0.8413,-1.02654 0.7158,0.5884 -0.7332,1.0988 z m 0,0 -0.057,-0.0307 -0.051,-0.0413 z m 0.9382,0.48786 -0.1214,-0.052 -0.8168,-0.43613 0.6252,-1.17093 0.8167,0.43613 -0.5037,1.22267 z m 0,0 -0.056,-0.0173 -0.065,-0.0347 z m 1.0132,0.2944 -0.1267,-0.0253 -0.8859,-0.2688 0.3824,-1.2744 0.886,0.26867 -0.2552,1.30013 z m 0,0 h -0.063 l -0.064,-0.02 0.1267,0.0253 z m 1.0492,0.0907 -0.1267,2.7e-4 -0.9219,-0.092 0.128,-1.32587 0.9218,0.092 -4e-4,1.3256 z m 0,0 h -0.065 -0.061 l 0.1267,-2.7e-4 z m 1.05,-0.11733 -0.128,0.0267 -0.9219,0.0907 -0.1267,-1.3252 0.9219,-0.0907 0.2551,1.29867 z m 0,0 -0.068,0.02 h -0.06 l 0.128,-0.0267 z m 1.0065,-0.31827 -0.12,0.0493 -0.886,0.2684 -0.3832,-1.27226 0.8859,-0.26827 0.5038,1.22227 z m 0,0 -0.057,0.0307 -0.063,0.0187 z m 0.9252,-0.5072 -0.108,0.0707 -0.8171,0.43653 -0.6244,-1.1724 0.8171,-0.43653 0.7325,1.10173 z m 0,0 -0.045,0.0373 -0.063,0.0333 z m 0.8092,-0.68227 -0.093,0.0947 -0.7163,0.58733 -0.8405,-1.03106 0.7161,-0.58734 0.9336,0.93614 z m 0,0 -0.047,0.0573 -0.047,0.0387 0.093,-0.0947 z m 0.6599,-0.82346 -0.072,0.108 -0.5878,0.71546 -1.0265,-0.84133 0.5877,-0.71547 1.0987,0.73334 z m 0,0 -0.031,0.0573 -0.041,0.0507 z m 0.4884,-0.93587 -0.052,0.11867 -0.4366,0.8172 -1.1708,-0.6252 0.4366,-0.81707 1.2226,0.5064 z m 0,0 -0.015,0.0507 -0.036,0.068 0.052,-0.11867 z m 0.295,-1.0156 -0.025,0.13067 -0.2695,0.88546 -1.2745,-0.38773 0.2695,-0.8856 1.3001,0.25773 z m 0,0 v 0.068 l -0.019,0.0627 0.025,-0.13067 z m 0.091,-1.0492 4e-4,0.128 -0.091,0.92173 -1.3257,-0.128 0.091,-0.92173 1.3254,2.7e-4 z m 0,0 v 0.0653 0.0613 l -4e-4,-0.128 z"
       style="fill:#231f20;fill-opacity:1;fill-rule:nonzero;stroke:none;stroke-width:1.33333" />
    <path
       id="path106"
       d="m 3006.8402,368.65165 -0.6654,0.66253 -45.2634,-0.0133 v -1.32813 l 45.2632,0.0133 0.6626,0.6656 z m 0,0 v 0.66253 h -0.6654 z m -0.6564,-21.9644 0.6626,0.6656 v 21.2988 h -1.328 v -21.2988 l 0.6656,-0.66253 z m 0,0 h 0.6626 v 0.6656 z m -30.4812,1.32013 v -1.32813 l 30.4782,0.0133 v 1.32814 z m 0,0 z m -15.448,-0.66973 0.6656,-0.66253 h 14.7855 v 1.32813 h -14.7855 l -0.6625,-0.6656 z m 0,0 v -0.66253 h 0.6656 z m 0.6568,21.9648 -0.6625,-0.6656 v -21.2992 h 1.3281 v 21.2992 l -0.6656,0.66253 z m 0,0 h -0.6625 v -0.6656 z"
       style="fill:#231f20;fill-opacity:1;fill-rule:nonzero;stroke:none;stroke-width:1.33333" />
    <path
       id="path107"
       d="m 2902.9468,408.09205 1.2223,0.50387 -0.7522,2.4812 -1.2721,-0.3832 0.7521,-2.4812 0.049,-0.12134 z m -0.049,0.12133 0.019,-0.0627 0.031,-0.0573 -0.049,0.12134 z m 1.3428,-2.51613 1.1017,0.73253 -1.2223,2.28734 -1.1724,-0.6244 1.2223,-2.28734 0.071,-0.108 z m -0.071,0.108 0.033,-0.0627 0.037,-0.0453 z m 1.81,-2.20653 0.9363,0.9336 -1.6446,2.00546 -1.031,-0.84066 1.6445,-2.00534 0.095,-0.0933 z m -0.095,0.0933 0.037,-0.0467 0.057,-0.0467 z m 2.2068,-1.8112 0.7332,1.09867 -2.0038,1.646 -0.8414,-1.02654 2.004,-1.646 0.108,-0.072 z m -0.108,0.072 0.049,-0.0413 0.059,-0.0307 z m 2.516,-1.34653 0.5038,1.22266 -2.2866,1.22267 -0.6252,-1.17093 2.2867,-1.22267 0.1213,-0.052 z m -0.1213,0.052 0.064,-0.0347 0.057,-0.0173 z m 2.73,-0.83107 0.2551,1.30013 -2.4814,0.7536 -0.3824,-1.2744 2.4812,-0.75373 0.128,-0.0253 z m -0.128,0.0253 0.064,-0.0187 h 0.064 l -0.128,0.0253 z m 2.8359,-0.2796 2e-4,1.32547 -2.5809,0.2544 -0.128,-1.32587 2.5809,-0.2544 0.128,4e-4 z m -0.128,-4e-4 h 0.061 0.067 l -0.128,-4e-4 z m 2.8362,0.27974 -0.2552,1.29853 -2.5806,-0.2528 0.1266,-1.32507 2.5807,0.2528 0.128,0.0267 z m -0.128,-0.0267 h 0.06 l 0.068,0.0213 -0.128,-0.0267 z m 2.7303,0.8292 -0.5039,1.2224 -2.4816,-0.75293 0.3834,-1.27214 2.4816,0.7528 0.12,0.0493 z m -0.12,-0.0493 0.063,0.0187 0.057,0.0307 z m 2.5156,1.344 -0.7324,1.09906 -2.2871,-1.2208 0.6244,-1.1724 2.287,1.2208 0.108,0.0733 z m -0.108,-0.0733 0.053,0.028 0.055,0.0453 z m 2.2065,1.8104 -0.9334,0.9336 -2.0055,-1.64493 0.8405,-1.02573 2.0055,1.64493 0.093,0.092 z m -0.093,-0.092 0.052,0.0427 0.04,0.0493 -0.093,-0.092 z m 1.8108,2.20454 -1.0988,0.7332 -1.6456,-2.00427 1.0265,-0.84133 1.6456,2.00426 0.072,0.108 z m -0.072,-0.108 0.041,0.0493 0.031,0.0587 z m 1.3475,2.51613 -1.2227,0.50373 -1.2235,-2.28653 1.171,-0.6252 1.2233,2.28667 0.052,0.12133 z m -0.052,-0.12133 0.035,0.064 0.017,0.0573 z m 0.8304,2.72986 -1.3002,0.2552 -0.7529,-2.48133 1.2745,-0.3824 0.7528,2.4812 0.025,0.12667 z m -0.025,-0.12666 0.019,0.064 v 0.064 l -0.025,-0.12667 z m 0.2806,2.83573 -1.3255,4e-4 -0.2552,-2.58107 1.3259,-0.128 0.255,2.58107 -2e-4,0.128 z m 2e-4,-0.128 v 0.0613 0.0667 l 3e-4,-0.128 z m -0.28,2.83573 -1.2986,-0.25506 0.2532,-2.58027 1.3252,0.12667 -0.2534,2.58026 -0.027,0.128 z m 0.027,-0.128 v 0.06 l -0.021,0.068 0.027,-0.128 z m -0.8284,2.7304 -1.2223,-0.50386 0.7522,-2.4816 1.2721,0.3832 -0.7521,2.48173 -0.049,0.12 z m 0.049,-0.12 -0.019,0.0627 -0.031,0.0573 z m -1.3428,2.5164 -1.1017,-0.73253 1.2223,-2.28773 1.1724,0.6244 -1.2223,2.28773 -0.071,0.108 z m 0.071,-0.108 -0.033,0.0627 -0.037,0.0453 z m -1.81,2.20654 -0.9363,-0.9336 1.6446,-2.00534 1.031,0.84054 -1.6445,2.00533 -0.095,0.0933 z m 0.095,-0.0933 -0.037,0.0467 -0.057,0.0467 z m -2.2068,1.81013 -0.7334,-1.09879 2.004,-1.6448 0.8414,1.02653 -2.004,1.6448 -0.108,0.072 z m 0.108,-0.072 -0.049,0.0413 -0.059,0.0307 z m -2.516,1.34747 -0.5039,-1.22267 2.2867,-1.22346 0.6252,1.17093 -2.2867,1.22333 -0.1213,0.052 z m 0.1213,-0.052 -0.064,0.0347 -0.057,0.0173 z m -2.73,0.83147 -0.2551,-1.30014 2.4812,-0.754 0.3826,1.27454 -2.4812,0.754 -0.128,0.0253 z m 0.128,-0.0253 -0.064,0.0187 h -0.064 l 0.128,-0.0253 z m -2.8359,0.27934 -4e-4,-1.3256 2.5811,-0.25387 0.128,1.32573 -2.5811,0.254 -0.1266,-2.6e-4 z m 0.1267,2.6e-4 h -0.061 -0.067 l 0.1267,2.7e-4 z m -2.8361,-0.2792 0.2552,-1.29866 2.5806,0.2524 -0.1266,1.3252 -2.5807,-0.25254 -0.128,-0.0267 z m 0.128,0.0267 h -0.06 l -0.068,-0.02 0.128,0.0267 z m -2.7307,-0.8292 0.5037,-1.22227 2.4822,0.7528 -0.3834,1.27227 -2.482,-0.75293 -0.12,-0.0493 z m 0.12,0.0493 -0.063,-0.0187 -0.057,-0.0307 z m -2.5152,-1.34253 0.7324,-1.10173 2.2867,1.222 -0.6244,1.1724 -2.2867,-1.222 z m 0.108,0.0707 -0.063,-0.0333 -0.045,-0.0373 z m -2.2064,-1.8096 0.9335,-0.93613 2.0054,1.644 -0.8405,1.03106 -2.0055,-1.644 -0.093,-0.0947 z m 0.093,0.0947 -0.047,-0.0373 -0.047,-0.0573 z m -1.8108,-2.20694 1.0987,-0.7332 1.6457,2.00387 -1.0265,0.84133 -1.6456,-2.00386 -0.072,-0.108 z m 0.072,0.108 -0.041,-0.0493 -0.031,-0.0587 z m -1.347,-2.5164 1.2226,-0.50386 1.2231,2.28706 -1.1709,0.62507 -1.2231,-2.28693 -0.052,-0.12134 z m 0.052,0.12134 -0.035,-0.064 -0.017,-0.0573 z m -0.8307,-2.73 1.3001,-0.25507 0.7532,2.4812 -1.2744,0.38253 -0.7533,-2.48133 -0.025,-0.12667 z m 0.025,0.12666 -0.019,-0.064 v -0.064 l 0.025,0.12667 z m -0.2804,-2.83573 1.3255,-4e-4 0.2552,2.58107 -1.3259,0.128 -0.2552,-2.58107 4e-4,-0.128 z m -4e-4,0.128 v -0.0613 -0.0667 l -4e-4,0.128 z m 0.2802,-2.83613 1.2986,0.25506 -0.2533,2.58067 -1.3251,-0.12667 0.2532,-2.58066 0.027,-0.128 z m -0.027,0.128 v -0.06 l 0.021,-0.068 -0.027,0.128 z"
       style="fill:#231f20;fill-opacity:1;fill-rule:nonzero;stroke:none;stroke-width:1.33333" />
    <path
       id="path108"
       d="m 2751.6541,390.35018 0.1452,-0.0373 35.503,-4.6896 0.1693,1.31987 -35.5029,4.6896 -0.3146,-1.2832 z m 0,0 0.073,-0.0267 0.072,-0.0133 -0.1452,0.0373 z m -12.4236,5.66067 0.2011,-1.12853 12.2225,-4.53214 0.4596,1.24654 -12.2225,4.532 -0.6607,-0.11734 z m 0,0 -0.8598,-0.7348 1.0609,-0.39373 z m 25.4294,21.6808 -0.2052,-0.12133 -25.2242,-21.55987 0.8618,-1.01067 25.2241,21.56 -0.6565,1.13147 z m 0,0 -0.1107,-0.04 -0.095,-0.0813 0.2052,0.12133 z m 41.6248,15.0316 -0.108,-0.0293 -41.5175,-15.00213 0.4513,-1.25253 41.5174,15.00213 -0.3439,1.282 z m 0,0 -0.052,-0.0133 -0.056,-0.02 0.108,0.0293 z m 54.823,9.94666 -0.091,-0.0133 -54.732,-9.93787 0.2365,-1.31146 54.7321,9.93786 -0.1456,1.32027 z m 0,0 h -0.056 -0.035 l 0.091,0.0133 z m 78.6256,3.2968 -0.073,0.001 -78.5527,-3.298 0.055,-1.32893 78.5525,3.298 0.019,1.32773 z m 0,0 h -0.037 l -0.036,-10e-4 0.073,-10e-4 z m 84.4868,-5.94973 h -0.037 l -84.4502,5.94627 -0.092,-1.32654 84.4502,-5.9464 0.128,1.3232 z m 0,0 h -0.013 -0.023 0.037 z m 109.3965,-14.00013 h -0.041 l -109.3553,13.994 -0.1648,-1.31974 109.3553,-13.99413 0.206,1.31373 z m 0,0 h -0.013 -0.029 0.041 z m 214.4236,-42.14587 0.1254,1.31787 -214.5487,40.828 -0.2472,-1.30773 214.5487,-40.82787 0.1226,-0.0133 z m -521.0793,0 0.025,-4e-4 521.0533,4e-4 v 1.32814 l -521.0532,-4e-4 -0.029,-1.32774 z m 0,0 0.013,-4e-4 h 0.017 l -0.025,4e-4 z m -39.6586,1.75294 h 0.057 l 39.6016,-1.7492 0.055,1.32733 -39.6016,1.7492 -0.112,-1.3236 z m 0,0 h 0.013 0.043 -0.057 z"
       style="fill:#231f20;fill-opacity:1;fill-rule:nonzero;stroke:none;stroke-width:1.33333" />
    <path
       id="path109"
       d="m 3120.8052,402.78752 -1.2987,-0.25507 0.091,-0.92227 1.325,0.12667 -0.091,0.92213 -0.027,0.128 z m 0.027,-0.128 v 0.06 l -0.021,0.068 0.027,-0.128 z m -0.3454,1.13466 -1.2223,-0.50386 0.2691,-0.88587 1.2722,0.3832 -0.269,0.88587 -0.049,0.12133 z m 0.049,-0.12133 -0.019,0.0627 -0.031,0.0573 0.049,-0.12133 z m -0.5572,1.04507 -1.1017,-0.7324 0.4365,-0.8164 1.1724,0.6244 -0.4365,0.8164 z m 0.071,-0.108 -0.033,0.0627 -0.037,0.0453 z m -0.7528,0.9176 -0.9363,-0.9336 0.5873,-0.71654 1.0311,0.84054 -0.5873,0.71666 -0.095,0.0933 z m 0.095,-0.0933 -0.037,0.0453 -0.057,0.0467 0.095,-0.0933 z m -0.9184,0.7528 -0.7332,-1.09866 0.7155,-0.58774 0.8413,1.02654 -0.7154,0.58773 -0.108,0.072 z m 0.108,-0.072 -0.049,0.0413 -0.059,0.032 0.108,-0.072 z m -1.0432,0.56094 -0.5064,-1.2228 0.8164,-0.4368 0.6251,1.1708 -0.8164,0.43693 -0.1187,0.052 z m 0.1187,-0.052 -0.068,0.036 -0.051,0.016 z m -1.1353,0.34693 -0.2578,-1.30013 0.8867,-0.26947 0.3877,1.27453 -0.8866,0.26947 -0.1294,0.0253 z m 0.1293,-0.0253 -0.063,0.0187 -0.067,0.0133 0.1293,-0.0253 z m -1.1792,0.116 -4e-4,-1.32547 0.9219,-0.0907 0.128,1.32587 -0.9219,0.0907 -0.1267,-4e-4 z m 0.1267,4e-4 h -0.061 -0.065 l 0.1267,4e-4 z m -1.177,-0.11734 0.2552,-1.29866 0.9214,0.0907 -0.1267,1.32507 -0.9215,-0.0907 -0.128,-0.0267 z m 0.128,0.0267 h -0.06 l -0.068,-0.0213 0.128,0.0267 z m -1.1349,-0.34547 0.5037,-1.2224 0.8864,0.2692 -0.3833,1.27214 -0.8863,-0.26907 -0.12,-0.0493 z m 0.12,0.0493 -0.063,-0.0187 -0.057,-0.0307 z m -1.0455,-0.55907 0.7326,-1.09907 0.8168,0.43587 -0.6244,1.1724 -0.8168,-0.43587 -0.108,-0.0733 z m 0.108,0.0733 -0.053,-0.028 -0.055,-0.0453 z m -0.9169,-0.7528 0.9336,-0.9336 0.7159,0.58734 -0.8407,1.02573 -0.7157,-0.58733 -0.093,-0.092 z m 0.093,0.092 -0.052,-0.0427 -0.04,-0.0493 0.093,0.092 z m -0.7533,-0.91653 1.0987,-0.7332 0.5881,0.71627 -1.0265,0.84133 -0.5882,-0.71627 -0.072,-0.108 z m 0.072,0.108 -0.041,-0.0493 -0.031,-0.0587 z m -0.5608,-1.04613 1.2227,-0.50387 0.4369,0.8168 -1.1709,0.62507 -0.437,-0.81667 -0.052,-0.12133 z m 0.052,0.12133 -0.035,-0.064 -0.017,-0.0573 z m -0.3461,-1.13467 1.3001,-0.25506 0.2687,0.88586 -1.2744,0.38254 -0.2688,-0.886 -0.025,-0.12667 z m 0.025,0.12667 -0.019,-0.064 v -0.064 l 0.025,0.12667 z m -0.116,-1.17573 1.3255,-4e-4 0.091,0.92106 -1.3258,0.128 -0.091,-0.92106 3e-4,-0.12667 z m -3e-4,0.12666 v -0.0613 -0.0667 l -2e-4,0.12667 z m 0.1174,-1.17773 1.2986,0.2552 -0.091,0.92213 -1.3252,-0.12666 0.091,-0.92227 0.027,-0.128 z m -0.027,0.128 v -0.06 l 0.021,-0.068 -0.027,0.128 z m 0.3451,-1.13453 1.2222,0.50373 -0.2686,0.886 -1.2723,-0.38333 0.2688,-0.88587 0.049,-0.12 z m -0.049,0.12 0.019,-0.0627 0.031,-0.0573 z m 0.5571,-1.04587 1.1017,0.73253 -0.4365,0.8172 -1.1724,-0.6244 0.4365,-0.8172 0.071,-0.108 z m -0.071,0.108 0.033,-0.0627 0.037,-0.0453 z m 0.7526,-0.91733 0.9361,0.9336 -0.5869,0.71626 -1.0311,-0.84066 0.5869,-0.71614 0.095,-0.0933 z m -0.095,0.0933 0.037,-0.0453 0.057,-0.0467 -0.095,0.0933 z m 0.9188,-0.75333 0.7332,1.0988 -0.7157,0.588 -0.8414,-1.02654 0.7158,-0.588 0.108,-0.072 z m -0.108,0.072 0.051,-0.0413 0.057,-0.0307 z m 1.0436,-0.56014 0.5064,1.22267 -0.8167,0.43613 -0.6252,-1.17093 0.8168,-0.43613 0.1187,-0.052 z m -0.1187,0.052 0.068,-0.036 0.051,-0.016 z m 1.1346,-0.34653 0.2578,1.30013 -0.886,0.26907 -0.3877,-1.2744 0.8859,-0.26907 0.1293,-0.0253 z m -0.1294,0.0253 0.063,-0.0187 0.068,-0.0133 -0.1293,0.0253 z m 1.1792,-0.11733 4e-4,1.32547 -0.9217,0.092 -0.128,-1.32587 0.9219,-0.092 0.1266,4e-4 z m -0.1266,-4e-4 h 0.061 0.067 l -0.1267,-4e-4 z m 1.1773,0.11733 -0.2551,1.29867 -0.9218,-0.0907 0.1266,-1.32506 0.9219,0.0907 0.128,0.0267 z m -0.128,-0.0267 h 0.06 l 0.068,0.0213 -0.128,-0.0267 z m 1.1347,0.34466 -0.5039,1.22227 -0.8859,-0.26827 0.3832,-1.27226 0.886,0.2684 0.12,0.0493 z m -0.12,-0.0493 0.063,0.0187 0.057,0.0307 z m 1.0457,0.55747 -0.7325,1.10173 -0.8171,-0.43693 0.6244,-1.1724 0.8171,0.43693 0.108,0.0707 z m -0.108,-0.0707 0.063,0.0333 0.045,0.0373 z m 0.9173,0.75293 -0.9336,0.93614 -0.7161,-0.58734 0.8405,-1.03106 0.7163,0.58733 0.093,0.0947 z m -0.093,-0.0947 0.045,0.0373 0.047,0.0573 -0.093,-0.0947 z m 0.7528,0.9184 -1.0987,0.73333 -0.5877,-0.71547 1.0265,-0.84133 0.5878,0.71547 0.072,0.108 z m -0.072,-0.108 0.041,0.0493 0.031,0.0587 z m 0.5605,1.04346 -1.2226,0.5064 -0.4366,-0.81666 1.1708,-0.6252 0.4366,0.8168 0.052,0.11866 z m -0.052,-0.11866 0.036,0.068 0.016,0.0507 z m 0.347,1.13466 -1.3002,0.25774 -0.2694,-0.886 1.2745,-0.38774 0.2695,0.88587 0.025,0.13067 z m -0.025,-0.13066 0.019,0.0627 0.013,0.068 -0.025,-0.13066 z m 0.116,1.17933 -1.3254,2.7e-4 -0.091,-0.92174 1.3257,-0.128 0.091,0.92174 -4e-4,0.128 z m 4e-4,-0.128 v 0.0613 0.0667 l 4e-4,-0.128 z"
       style="fill:#231f20;fill-opacity:1;fill-rule:nonzero;stroke:none;stroke-width:1.33333" />
    <path
       id="path110"
       d="m 3006.8402,400.41818 -0.6625,0.66547 -45.2632,0.0133 v -1.32813 l 45.2633,-0.0133 0.6655,0.66253 z m -0.6654,-0.66253 h 0.6652 l 2e-4,0.66253 z m 0.013,22.6268 -0.6656,-0.66253 v -21.2988 h 1.328 v 21.29866 l -0.6625,0.6656 z m 0.6625,-0.6656 v 0.6652 l -0.6625,4e-4 z m -31.1437,-0.65453 v 0 l 30.4781,-0.0133 v 1.32814 l -30.4781,0.0133 z m 0,0 z m -15.448,0.66973 0.6625,-0.6656 h 14.7855 v 1.32813 h -14.7855 l -0.6656,-0.66253 z m 0.6656,0.66253 h -0.6652 l -4e-4,-0.66253 z m -0.013,-22.62693 0.6656,0.66253 v 21.2988 h -1.3282 v -21.2988 l 0.6626,-0.6656 z m -0.6626,0.6656 v -0.6652 l 0.6626,-4e-4 z"
       style="fill:#231f20;fill-opacity:1;fill-rule:nonzero;stroke:none;stroke-width:1.33333" />
  </g>
  <g
     id="g130"
     inkscape:groupmode="layer"
     inkscape:label="2">
    <path
       id="path131"
       d="m 1595.901,880.55567 v 0 17.994 h -1.3334 v -17.994 z m -1.3334,0 z m 1.3334,-30.50187 v 0 30.50187 h -1.3334 V 850.0538 Z m -1.3334,0 z m 1.3334,-52.33333 v 0 52.33333 h -1.3334 v -52.33333 z m -1.3334,0 z m 0.6666,-599.92398 0.6668,0.66666 v 599.25732 h -1.3334 V 198.46315 Z m 0,0 h 0.6668 v 0.66666 z m -1133.1718,0.66666 0.66666,-0.66666 H 1595.2342 v 1.33346 H 462.72906 Z m 0,0 v -0.66666 h 0.66666 z m 0,599.25732 v 0 -599.25732 h 1.33346 v 599.25732 z m 1.33346,0 z m -1.33346,52.33293 v 0 -52.33293 h 1.33346 v 52.33293 z m 1.33346,0 z m -1.33346,30.50187 v 0 -30.50187 h 1.33346 v 30.50187 z m 1.33346,0 z m -0.6668,18.66107 -0.66666,-0.66667 v -17.9944 h 1.33346 v 17.9944 z m 0,0 h -0.66666 v -0.66667 z m 1133.17194,-0.66667 -0.6668,0.66667 H 462.72906 v -1.33347 H 1595.2342 Z m 0,0 v 0.66627 l -0.6668,4e-4 z"
       style="fill:#231f20;fill-opacity:1;fill-rule:nonzero;stroke:none;stroke-width:1.33333" />
    <path
       id="path132"
       d="M 462.72946,731.38181 H 1595.2342 v -9.4488 H 462.72946 Z"
       style="fill:none;stroke:#231f20;stroke-width:1.33307;stroke-linecap:butt;stroke-linejoin:miter;stroke-miterlimit:22.9256;stroke-dasharray:2.66667, 4;stroke-dashoffset:0;stroke-opacity:1" />
    <path
       id="path133"
       d="M 462.72946,542.91048 H 1595.2342 v -9.4488 H 462.72946 Z"
       style="fill:none;stroke:#231f20;stroke-width:1.33307;stroke-linecap:butt;stroke-linejoin:miter;stroke-miterlimit:22.9256;stroke-dasharray:2.66667, 4;stroke-dashoffset:0;stroke-opacity:1" />
    <path
       id="path157"
       d="m 1143.6166,2847.1282 -0.6482,0.8098 -599.25694,0.3126 v -1.3282 l 599.25694,-0.3125 z m 0,0 0.1834,0.809 -0.8316,8e-4 z m -212.40488,-934.4214 0.64813,0.5182 211.75675,933.9032 -1.2964,0.2917 -211.75661,-933.9032 z m 0,0 h 0.53027 l 0.11786,0.5182 z M 533.452,1914.242 v -1.3281 l 397.75972,-0.2071 v 1.3282 z m 0,0 z m -34.49574,-0.055 0.003,-1.3282 34.49307,0.053 v 1.3281 l -34.49307,-0.055 h -0.003 z m 0.003,0 h -0.003 8e-4 z m -20.4888,-0.12 0.0105,-1.3282 20.48094,0.12 -0.005,1.3282 -20.48093,-0.12 z m 0.005,0 h -0.009 0.004 z m -13.53027,-0.8579 0.672,-0.6487 12.86894,0.1784 -0.0159,1.3282 -12.86893,-0.1784 z m 0,0 0.0159,-0.6577 0.65613,0.013 -0.672,0.6487 z m -22.0668,934.7281 -0.6588,-0.6796 22.7256,-934.0485 1.32814,0.031 -22.7256,934.0486 -0.66934,0.6486 z m 0,0 -0.67506,-0.01 0.0163,-0.674 0.6588,0.6796 z m 17.99854,0.1588 h -0.005 l -17.9932,-0.1588 0.0105,-1.3281 17.9932,0.1588 z m 0,0 h -0.009 0.003 z m 30.50186,0.1088 v 0 l -30.50186,-0.1088 v -1.3281 l 30.50186,0.1088 z m 0,0 z m 52.3328,0.045 v 0 l -52.3328,-0.045 v -1.3281 l 52.3328,0.045 z m 0,0 z"
       style="fill:#231f20;fill-opacity:1;fill-rule:nonzero;stroke:none;stroke-width:1.33333" />
    <path
       id="path158"
       d="m 650.78293,2808.5508 0.5208,-0.7808 129.69479,-26.0481 0.26014,1.3016 -129.69493,26.0481 z m 0.7808,0.5208 -0.65014,0.1304 -0.13066,-0.6512 z m -30.02187,-149.56 0.7808,0.5208 29.76187,148.2584 -1.3016,0.26 -29.76187,-148.2584 z m -0.5208,0.7808 -0.1304,-0.6497 0.6512,-0.1311 z m 130.9968,-26.3089 -0.5208,0.7809 -129.6952,26.0488 -0.26,-1.3016 129.6952,-26.0489 z m -0.7808,-0.5208 0.65013,-0.1304 0.13067,0.6512 z m 30.0216,149.5608 -0.78094,-0.5208 -29.76146,-148.2592 1.3016,-0.26 29.7616,148.2592 z m 0.5208,-0.7808 0.1304,0.6497 -0.6512,0.1311 z"
       style="fill:#231f20;fill-opacity:1;fill-rule:nonzero;stroke:none;stroke-width:1.33333" />
    <path
       id="path159"
       d="m 751.36706,2634.1135 -99.93333,174.3073"
       style="fill:none;stroke:#231f20;stroke-width:0.288;stroke-linecap:butt;stroke-linejoin:miter;stroke-miterlimit:22.9256;stroke-dasharray:none;stroke-opacity:1" />
    <path
       id="path160"
       d="m 621.67186,2660.1624 159.45666,122.2103"
       style="fill:none;stroke:#231f20;stroke-width:0.288;stroke-linecap:butt;stroke-linejoin:miter;stroke-miterlimit:22.9256;stroke-dasharray:none;stroke-opacity:1" />
    <path
       id="path163"
       d="m 1913.85,182.42475 738.721,-0.21426 V 1315.1767 l -209.6912,935.0536 -498.5325,-0.01 -30.0937,-934.8323 -0.4036,-1132.96601 z"
       style="fill:none;stroke:#231f20;stroke-width:1.33307;stroke-linecap:butt;stroke-linejoin:miter;stroke-miterlimit:22.9256;stroke-dasharray:none;stroke-opacity:1" />
    <path
       id="path168"
       d="m 2815.8655,2653.8472 -0.6901,-0.6641 v -71.6212 h 1.3335 v 71.6212 z m 0,0 -0.6897,0.025 -4e-4,-0.6895 z m 52.8068,-2.6 -0.6433,0.6642 -52.1635,1.9358 -0.047,-1.3281 52.1634,-1.9359 0.6902,0.664 z m 0,0 v 0.6399 l -0.6433,0.024 z m -0.6277,-203.8548 0.6277,0.664 v 203.1908 h -1.3334 v -203.1908 z m 0,0 0.6277,0.038 v 0.6262 z m -599.4645,-36.3442 h 0.077 l 599.3867,36.3442 -0.077,1.3282 -599.3866,-36.3444 z m 0,0 h 0.039 0.039 z m -597.1449,36.8352 0.6278,-0.664 596.5171,-36.1712 0.077,1.328 -596.517,36.1713 -0.7058,-0.6641 z m 0,0 v -0.6259 l 0.6278,-0.038 z m 0.6668,207.8993 -0.6668,-0.664 v -207.2353 h 1.3334 v 207.2353 z m 0,0 h -0.6668 v -0.664 z m 54.7626,-0.6637 -0.6666,0.6641 -54.096,-4e-4 v -1.3281 l 54.096,4e-4 z m 0,0 v 0.6641 h -0.6666 z m -0.6666,-74.2239 0.6666,0.6668 v 73.5571 h -1.3334 v -73.5571 z m -0.6668,0.6668 v -0.6668 h 0.6668 z m 1090.9777,0 -0.6668,0.6667 H 1726.198 v -1.3335 h 1089.6441 z m -0.6668,-0.6668 h 0.6668 v 0.6668 z"
       style="fill:#231f20;fill-opacity:1;fill-rule:nonzero;stroke:none;stroke-width:1.33333" />
    <path
       id="path169"
       d="m 3109.0106,2692.9366 -0.1976,0.276 -63.9875,52.8585 -0.8489,-1.0257 63.9875,-52.8587 z m 0,0 -0.063,0.1641 -0.1352,0.1119 0.1976,-0.276 z m 22.2977,-58.608 -0.043,0.1848 -22.2558,58.4232 -1.2442,-0.4739 22.2557,-58.4232 1.2863,0.2891 z m 0,0 -0.013,0.095 -0.035,0.09 0.043,-0.1848 z m 15.6952,-203.717 0.9975,0.6275 -16.6927,203.0895 -1.3281,-0.1043 16.6927,-203.0895 z m 0,0 1.1014,-0.6376 -0.104,1.2651 -0.9975,-0.6275 z m -52.5645,31.8419 -0.2944,-1.2393 52.8589,-30.6026 0.6667,1.1506 -52.8589,30.6025 z m 0.3723,-0.089 -0.1739,0.1005 -0.1984,-0.012 0.3723,-0.089 z m -227.4727,-14.3079 0.7056,-0.664 226.4727,13.7326 -0.077,1.3281 -226.4726,-13.7325 -0.6278,-0.6642 z m 0,0 v -0.7068 l 0.7056,0.043 z m 0.6901,203.8546 -0.6901,-0.6642 v -203.1904 h 1.3333 v 203.1904 z m 0.6432,-0.6642 v 0.6399 l -0.6432,0.024 z m -53.4969,1.9363 0.6433,-0.664 52.1635,-1.9363 0.047,1.3282 -52.1636,1.9362 z m 0.6901,0.6641 -0.6897,0.025 -4e-4,-0.6895 z m -0.024,-72.9521 0.6668,0.6668 v 71.6212 h -1.3334 v -71.6212 z m 0,0 h 0.6668 v 0.6668 z m -1090.3105,0.6668 0.6668,-0.6668 h 1089.6437 v 1.3335 H 1726.1974 Z m 0,0 v -0.6668 h 0.6668 z m 0.6668,74.2212 -0.6668,-0.6641 v -73.5571 h 1.3335 v 73.5571 z m 0.6667,-0.6641 v 0.6641 h -0.6667 z m -55.4295,-7e-4 0.6668,-0.6641 54.096,8e-4 v 1.3281 l -54.096,-8e-4 z m 0.6668,0.664 h -0.6668 v -0.664 z m -0.039,-208.5633 0.7056,0.664 v 207.2353 h -1.3335 v -207.2353 z m 0,0 0.7056,-0.043 v 0.7068 z m -229.6369,15.1456 0.2944,-1.2392 229.3425,-13.9064 0.078,1.3281 -229.3426,13.9063 z m 0.3722,0.089 -0.198,0.012 -0.1742,-0.1006 0.3722,0.089 z m -53.563,-31.2139 0.9973,-0.6275 52.8601,30.6022 -0.6666,1.1504 -52.8602,-30.602 z m 0,0 -0.104,-1.2651 1.1013,0.6376 z m 16.7353,203.2743 -0.042,-0.1848 -16.6933,-203.0895 1.3281,-0.1044 16.6933,203.0896 z m 0,0 -0.034,-0.09 -0.01,-0.095 z m 22.4535,58.699 -0.1978,-0.2758 -22.2557,-58.4232 1.2443,-0.474 22.2557,58.4232 z m 0,0 -0.135,-0.1114 -0.063,-0.1644 z m 64.216,52.9807 -0.2291,-0.1224 -63.9869,-52.8583 0.8488,-1.0257 63.987,52.8583 z m 0,0 -0.1286,-0.039 -0.1005,-0.083 z m 670.67,205.9033 -0.1954,-0.031 -670.4746,-205.872 0.3908,-1.2707 670.4746,205.872 z m 0,0 h -0.093 l -0.1026,-0.031 0.1953,0.031 z m 210.8126,-0.031 -0.1955,0.031 h -210.6171 v -1.3333 h 210.6171 z m 0,0 -0.1027,0.031 h -0.093 l 0.1955,-0.031 z m 670.7028,-205.9948 -0.2291,0.1224 -670.4737,205.8724 -0.3909,-1.2707 670.4738,-205.8724 z m 0,0 -0.1,0.083 -0.1293,0.04 0.229,-0.1224 z"
       style="fill:#231f20;fill-opacity:1;fill-rule:nonzero;stroke:none;stroke-width:1.33333" />
    <path
       id="path183"
       d="m 1704.22,304.82929 0.034,0.14586 4.0486,35.5816 -1.3228,0.146 -4.0486,-35.5816 z m 0,0 0.026,0.0733 0.01,0.072 -0.034,-0.14587 z m -5.4358,-12.52347 1.1248,0.2212 4.311,12.30227 -1.2548,0.43773 -4.311,-12.3024 z m 0,0 0.7503,-0.84653 0.3745,1.06773 z m -22.1358,25.03453 0.1246,-0.20307 22.0112,-24.83146 0.9948,0.87987 -22.0112,24.83159 z m 0,0 0.041,-0.10933 0.083,-0.0933 -0.1246,0.20307 z m -15.7796,41.3472 0.031,-0.10667 15.7483,-41.24026 1.2441,0.47386 -15.7481,41.2404 -1.2756,-0.36706 z m 0,0 0.011,-0.052 0.021,-0.0547 -0.031,0.10667 z m -10.9338,54.63467 0.011,-0.0907 10.9232,-54.54347 1.3069,0.26 -10.9232,54.5436 -1.3174,-0.16893 z m 0,0 v -0.0547 l 0.01,-0.0373 -0.011,0.0907 z m -0.997,28.35733 -0.6642,-0.70294 1.6612,-27.65439 1.3282,0.0773 -1.6612,27.6544 -0.664,0.62506 z m 0,0 h -0.706 l 0.042,-0.70294 z m 59.3064,-0.65347 -0.664,0.65347 h -58.6424 v -1.32814 h 58.6424 z m 0,0 -0.012,0.65307 -0.6523,4e-4 0.664,-0.65347 z m 1.0957,-60.78493 v 0.0253 l -1.0957,60.75893 -1.3282,-0.0213 1.0958,-60.75893 h 1.3281 z m 0,0 v 0.0133 0.016 -0.0253 z m -1.0375,-39.6844 v 0.0573 l 1.0348,39.62694 -1.3281,0.0307 -1.0348,-39.6268 1.3254,-0.088 z m 0,0 v 0.0133 0.044 z m -63.0814,151.3188 v -0.0733 l 2.4854,-41.37706 1.3282,0.0773 -2.4855,41.37707 h -1.3281 z m 0,0 v -0.0387 -0.0347 z m 4.4254,84.58013 v -0.036 l -4.4228,-84.54387 1.3281,-0.068 4.4228,84.54387 z m 0,0 v -0.0133 -0.0227 z m 6.486,53.69533 -0.6613,-0.59373 -5.8247,-53.1016 1.3228,-0.14067 5.8247,53.1016 z m 0,0 h -0.596 l -0.065,-0.59373 z m 48.7132,-0.65347 -0.664,0.65347 h -48.0492 v -1.32813 h 48.0492 z m 0,0 -0.012,0.65347 h -0.6522 l 0.664,-0.65347 z m 2.564,-179.69986 0.6642,0.6772 -3.2282,179.02266 -1.3281,-0.0213 3.2281,-179.02253 0.664,-0.65613 z m 0,0 h 0.6763 l -0.012,0.6772 -0.6641,-0.6772 z m -59.7032,0.62773 0.664,-0.62773 h 59.0392 v 1.33333 h -59.0392 z m 0,0 0.037,-0.62773 h 0.6266 z m 13.9658,235.66147 -0.01,-0.0413 -5.1594,-47.0392 1.3228,-0.14066 5.1594,47.03933 -1.3174,0.18213 z m 0,0 v -0.0133 -0.0293 l 0.01,0.0413 z m 38.2733,215.14879 -1.3201,0.10133 -36.9532,-215.25012 1.3121,-0.22374 36.9532,215.25013 0.01,0.12267 z m 4.0656,-262.96399 0.6641,0.67466 -4.7297,262.28933 -1.3281,-0.0213 4.7297,-262.28946 0.664,-0.65347 z m 0,0 h 0.6761 l -0.012,0.67466 z m -47.5037,0.7344 0.6614,-0.7344 h 46.8423 v 1.32813 h -46.8423 z m 0,0 -0.081,-0.7344 h 0.742 z"
       style="fill:#231f20;fill-opacity:1;fill-rule:nonzero;stroke:none;stroke-width:1.33333" />
  </g>
</svg>
