M48
METRIC,LZ,000.000
;FILE_FORMAT=3:3
;TYPE=PLATED
;Layer: PTH_Through
;EasyEDA v6.5.54, 2026-05-15 06:27:57
;54a5ba695e504de6a7b65cf390fd3e67,5e732c2b7d5540c8836deda47cd93de7,10
;Gerber Generator version 0.2
;Holesize 1 = 0.306 mm
T01C0.306
;Holesize 2 = 0.800 mm
T02C0.800
;Holesize 3 = 0.901 mm
T03C0.901
;Holesize 4 = 0.914 mm
T04C0.914
;Holesize 5 = 0.915 mm
T05C0.915
;Holesize 6 = 1.000 mm
T06C1.000
;Holesize 7 = 1.101 mm
T07C1.101
;Holesize 8 = 1.200 mm
T08C1.200
;Holesize 9 = 1.400 mm
T09C1.400
%
G05
G90
T01
X100892Y095250
T02
X039170Y057404
X039170Y054864
X039170Y052324
X034344Y052324
X034344Y054864
X034344Y057404
X085398Y069596
X082858Y069596
X055426Y064770
X055426Y062230
X088827Y050982
X088827Y052982
X087954Y060531
X089954Y060531
X095939Y054649
X095939Y057189
X090478Y067897
X087938Y067897
T03
X040132Y021590
X042672Y036830
X047752Y036830
X052832Y036830
X057912Y036830
X062992Y036830
X068072Y036830
X073152Y036830
X075692Y021590
X070611Y021590
X065531Y021590
X060451Y021590
X055371Y021590
X050291Y021590
X045211Y021590
X042672Y021590
X047752Y021590
X052832Y021590
X057912Y021590
X062992Y021590
X068072Y021590
X073152Y021590
X075692Y036830
X070612Y036830
X065532Y036830
X060452Y036830
X055372Y036830
X050292Y036830
X045212Y036830
X040132Y036830
X085598Y038989
X085598Y033909
X106299Y030861
X111379Y030861
X078032Y066040
X062792Y068580
X062791Y073660
X062791Y078740
X062791Y083820
X062791Y088900
X062791Y093980
X062791Y099060
X078032Y101600
X078031Y096519
X078031Y091439
X078031Y086359
X078031Y081279
X078031Y076199
X078031Y071119
X078032Y068580
X078032Y073660
X078032Y078740
X078032Y083820
X078032Y088900
X078032Y093980
X078032Y099060
X062792Y101600
X062792Y096520
X062792Y091440
X062792Y086360
X062792Y081280
X062792Y076200
X062792Y071120
X062792Y066040
X047171Y057277
X047171Y054737
X062919Y058547
X062919Y056007
X068126Y089027
X068126Y089027
X070666Y089027
X058039Y073660
T04
X040186Y061214
X050345Y061214
X043615Y058166
X043615Y048006
X038916Y063373
T05
X034290Y026289
X034290Y028829
X052832Y017145
X055372Y017145
X057912Y017145
X060452Y017145
X062992Y017145
X065532Y017145
X052832Y014605
X055372Y014605
X057912Y014605
X060452Y014605
X062992Y014605
X065532Y014605
X052832Y012065
X055372Y012065
X057912Y012065
X060452Y012065
X062992Y012065
X065532Y012065
X050292Y012065
X050292Y014605
X050292Y017145
X035868Y063373
X031169Y054864
X031169Y065024
T06
X082096Y056642
X079556Y056642
X077016Y056642
X036012Y077633
X036012Y080133
X036012Y082633
X045012Y089133
X042512Y089133
X047512Y089133
X050512Y076883
X050512Y082883
X055012Y082883
X055012Y076883
X104464Y077633
X104464Y080133
X104464Y082633
X113464Y089133
X110964Y089133
X115964Y089133
X118964Y076883
X118964Y082883
X123464Y082883
X123464Y076883
T07
X082042Y022479
X084582Y022479
X082042Y019939
X084582Y019939
X082042Y017399
X084582Y017399
X082042Y014859
X084582Y014859
X092456Y036469
X092456Y038969
X099588Y031115
X102088Y031115
T08
X102416Y059436
X102416Y056896
X102416Y054356
X102416Y051816
X085401Y073831
X085398Y076373
X087938Y073833
X087938Y076373
X090478Y073833
X090478Y076373
X093018Y073833
X093018Y076373
X042140Y100108
X044680Y100076
X047220Y100076
X110592Y099981
X113132Y099949
X115672Y099949
X100711Y037851
X105791Y037841
X103251Y037851
T09
X040012Y086133
X040012Y073633
X050012Y086133
X050012Y073633
X118464Y086133
X118464Y073633
X108464Y073633
X108464Y086133
M30
