G04 Layer: BottomSolderMaskLayer*
G04 EasyEDA v6.5.54, 2026-05-15 06:27:57*
G04 54a5ba695e504de6a7b65cf390fd3e67,5e732c2b7d5540c8836deda47cd93de7,10*
G04 Gerber Generator version 0.2*
G04 Scale: 100 percent, Rotated: No, Reflected: No *
G04 Dimensions in millimeters *
G04 leading zeros omitted , absolute positions ,4 integer and 5 decimal *
%FSLAX45Y45*%
%MOMM*%

%AMMACRO1*4,1,8,-0.7704,-0.8001,-0.8001,-0.7703,-0.8001,0.7704,-0.7704,0.8001,0.7703,0.8001,0.8001,0.7704,0.8001,-0.7703,0.7703,-0.8001,-0.7704,-0.8001,0*%
%AMMACRO2*4,1,8,-0.7831,-0.8128,-0.8128,-0.783,-0.8128,0.7831,-0.7831,0.8128,0.783,0.8128,0.8128,0.7831,0.8128,-0.783,0.783,-0.8128,-0.7831,-0.8128,0*%
%AMMACRO3*4,1,8,-0.8711,-0.9008,-0.9008,-0.871,-0.9008,0.8711,-0.8711,0.9008,0.871,0.9008,0.9008,0.8711,0.9008,-0.871,0.871,-0.9008,-0.8711,-0.9008,0*%
%AMMACRO4*4,1,8,-0.8211,-0.8508,-0.8508,-0.821,-0.8508,0.8211,-0.8211,0.8508,0.821,0.8508,0.8508,0.8211,0.8508,-0.821,0.821,-0.8508,-0.8211,-0.8508,0*%
%AMMACRO5*4,1,8,-1.0211,-0.8008,-1.0508,-0.771,-1.0508,0.7711,-1.0211,0.8008,1.021,0.8008,1.0508,0.7711,1.0508,-0.771,1.021,-0.8008,-1.0211,-0.8008,0*%
%AMMACRO6*4,1,8,-0.8211,-0.8128,-0.8508,-0.783,-0.8508,0.7831,-0.8211,0.8128,0.821,0.8128,0.8508,0.7831,0.8508,-0.783,0.821,-0.8128,-0.8211,-0.8128,0*%
%AMMACRO7*4,1,8,-1.1421,-1.2016,-1.2016,-1.1421,-1.2016,1.1421,-1.1421,1.2016,1.1421,1.2016,1.2016,1.1421,1.2016,-1.1421,1.1421,-1.2016,-1.1421,-1.2016,0*%
%AMMACRO8*4,1,8,-0.9211,-1.3508,-0.9508,-1.321,-0.9508,1.3211,-0.9211,1.3508,0.921,1.3508,0.9508,1.3211,0.9508,-1.321,0.921,-1.3508,-0.9211,-1.3508,0*%
%ADD10C,2.2032*%
%ADD11C,1.6002*%
%ADD12MACRO1*%
%ADD13C,1.6256*%
%ADD14MACRO2*%
%ADD15MACRO3*%
%ADD16C,1.8016*%
%ADD17C,0.0141*%
%ADD18MACRO4*%
%ADD19C,1.7016*%
%ADD20C,1.8500*%
%ADD21MACRO5*%
%ADD22C,1.6260*%
%ADD23C,2.1016*%
%ADD24C,1.6032*%
%ADD25C,1.6040*%
%ADD26MACRO6*%
%ADD27C,2.0032*%
%ADD28C,1.9016*%
%ADD29C,2.7032*%
%ADD30MACRO7*%
%ADD31MACRO8*%
%ADD32O,1.901596X2.701595*%

%LPD*%
D10*
G01*
X10241554Y5943577D03*
G01*
X10241554Y5689577D03*
G01*
X10241554Y5435577D03*
G01*
X10241554Y5181577D03*
D11*
G01*
X3428994Y2628902D03*
D12*
G01*
X3428994Y2882894D03*
D13*
G01*
X5283194Y1714502D03*
G01*
X5537194Y1714502D03*
G01*
X5791194Y1714502D03*
G01*
X6045194Y1714502D03*
G01*
X6299194Y1714502D03*
G01*
X6553194Y1714502D03*
G01*
X5283194Y1460502D03*
G01*
X5537194Y1460502D03*
G01*
X5791194Y1460502D03*
G01*
X6045194Y1460502D03*
G01*
X6299194Y1460502D03*
G01*
X6553194Y1460502D03*
G01*
X5283194Y1206502D03*
G01*
X5537194Y1206502D03*
G01*
X5791194Y1206502D03*
G01*
X6045194Y1206502D03*
G01*
X6299194Y1206502D03*
D14*
G01*
X6553189Y1206497D03*
D13*
G01*
X5029194Y1206502D03*
G01*
X5029194Y1460502D03*
G01*
X5029194Y1714502D03*
D15*
G01*
X8204186Y2247896D03*
D16*
G01*
X8458169Y2247902D03*
G01*
X8204169Y1993902D03*
G01*
X8458169Y1993902D03*
G01*
X8204169Y1739902D03*
G01*
X8458169Y1739902D03*
G01*
X8204169Y1485902D03*
G01*
X8458169Y1485902D03*
D18*
G01*
X4013189Y2158994D03*
D19*
G01*
X4267194Y3683002D03*
G01*
X4775194Y3683002D03*
G01*
X5283194Y3683002D03*
G01*
X5791194Y3683002D03*
G01*
X6299194Y3683002D03*
G01*
X6807194Y3683002D03*
G01*
X7315194Y3683002D03*
G01*
X7569194Y2159002D03*
G01*
X7061194Y2159002D03*
G01*
X6553194Y2159002D03*
G01*
X6045194Y2159002D03*
G01*
X5537194Y2159002D03*
G01*
X5029194Y2159002D03*
G01*
X4521194Y2159002D03*
G01*
X4267194Y2159002D03*
G01*
X4775194Y2159002D03*
G01*
X5283194Y2159002D03*
G01*
X5791194Y2159002D03*
G01*
X6299194Y2159002D03*
G01*
X6807194Y2159002D03*
G01*
X7315194Y2159002D03*
G01*
X7569194Y3683002D03*
G01*
X7061194Y3683002D03*
G01*
X6553194Y3683002D03*
G01*
X6045194Y3683002D03*
G01*
X5537194Y3683002D03*
G01*
X5029194Y3683002D03*
G01*
X4521194Y3683002D03*
D18*
G01*
X4013189Y3682994D03*
D19*
G01*
X8559794Y3898902D03*
G01*
X8559794Y3390902D03*
G01*
X10629869Y3086102D03*
G01*
X11137869Y3086102D03*
D20*
G01*
X9245569Y3646883D03*
G01*
X9245569Y3896870D03*
G01*
X9958776Y3111502D03*
G01*
X10208762Y3111502D03*
D13*
G01*
X4018579Y6121377D03*
G01*
X5034579Y6121377D03*
G01*
X4361479Y5816602D03*
G01*
X4361479Y4800602D03*
D21*
G01*
X3916977Y5740403D03*
G01*
X3916977Y5486403D03*
G01*
X3916977Y5232403D03*
D22*
G01*
X3891579Y6337302D03*
D13*
G01*
X3586754Y6337302D03*
D23*
G01*
X3116879Y5486377D03*
G01*
X3116879Y6502377D03*
D21*
G01*
X3434377Y5232406D03*
G01*
X3434377Y5486406D03*
G01*
X3434377Y5740406D03*
D24*
G01*
X8539779Y6959551D03*
G01*
X8285779Y6959551D03*
G01*
X5542579Y6477002D03*
D25*
G01*
X5542554Y6222977D03*
D26*
G01*
X8209554Y5664189D03*
D19*
G01*
X7955579Y5664151D03*
G01*
X7701579Y5664151D03*
G01*
X8882679Y5098214D03*
G01*
X8882679Y5298213D03*
G01*
X8795405Y6053076D03*
G01*
X8995404Y6053076D03*
D24*
G01*
X9593879Y5464914D03*
G01*
X9593879Y5718914D03*
G01*
X9047805Y6789676D03*
G01*
X8793805Y6789676D03*
D27*
G01*
X8540059Y7383020D03*
D28*
G01*
X8539754Y7637274D03*
G01*
X8793754Y7383274D03*
G01*
X8793754Y7637274D03*
G01*
X9047754Y7383274D03*
G01*
X9047754Y7637274D03*
G01*
X9301754Y7383274D03*
G01*
X9301754Y7637274D03*
D29*
G01*
X4001155Y8613269D03*
D10*
G01*
X3601156Y7763283D03*
G01*
X3601156Y8013270D03*
G01*
X3601156Y8263282D03*
G01*
X4501154Y8913268D03*
G01*
X4251142Y8913268D03*
G01*
X4751141Y8913268D03*
G01*
X5051140Y7688277D03*
G01*
X5051140Y8288276D03*
G01*
X5501152Y8288276D03*
G01*
X5501152Y7688277D03*
D29*
G01*
X4001155Y7363284D03*
G01*
X5001153Y8613269D03*
G01*
X5001153Y7363284D03*
G01*
X11846453Y8613269D03*
G01*
X11846453Y7363284D03*
G01*
X10846455Y7363284D03*
G01*
X10846455Y8613269D03*
D10*
G01*
X10446456Y7763283D03*
G01*
X10446456Y8013270D03*
G01*
X10446456Y8263282D03*
G01*
X11346454Y8913268D03*
G01*
X11096442Y8913268D03*
G01*
X11596441Y8913268D03*
G01*
X11896440Y7688277D03*
G01*
X11896440Y8288276D03*
G01*
X12346452Y8288276D03*
G01*
X12346452Y7688277D03*
D30*
G01*
X4213961Y10010780D03*
G01*
X4467961Y10007579D03*
G01*
X4721961Y10007579D03*
G01*
X11059246Y9998080D03*
G01*
X11313246Y9994879D03*
G01*
X11567246Y9994879D03*
D18*
G01*
X7803156Y6603984D03*
D19*
G01*
X6279154Y6857977D03*
G01*
X6279154Y7365977D03*
G01*
X6279154Y7873977D03*
G01*
X6279154Y8381977D03*
G01*
X6279154Y8889977D03*
G01*
X6279154Y9397977D03*
G01*
X6279154Y9905977D03*
G01*
X7803154Y10159977D03*
G01*
X7803154Y9651977D03*
G01*
X7803154Y9143977D03*
G01*
X7803154Y8635977D03*
G01*
X7803154Y8127977D03*
G01*
X7803154Y7619977D03*
G01*
X7803154Y7111977D03*
G01*
X7803154Y6857977D03*
G01*
X7803154Y7365977D03*
G01*
X7803154Y7873977D03*
G01*
X7803154Y8381977D03*
G01*
X7803154Y8889977D03*
G01*
X7803154Y9397977D03*
G01*
X7803154Y9905977D03*
G01*
X6279154Y10159977D03*
G01*
X6279154Y9651977D03*
G01*
X6279154Y9143977D03*
G01*
X6279154Y8635977D03*
G01*
X6279154Y8127977D03*
G01*
X6279154Y7619977D03*
G01*
X6279154Y7111977D03*
D18*
G01*
X6279156Y6603984D03*
D13*
G01*
X4717079Y5727677D03*
G01*
X4717079Y5473677D03*
D31*
G01*
X10071066Y3785087D03*
D32*
G01*
X10579094Y3784094D03*
G01*
X10325069Y3785085D03*
D19*
G01*
X6291879Y5854677D03*
D18*
G01*
X6291861Y5600682D03*
D19*
G01*
X6812579Y8902677D03*
G01*
X6812579Y8902677D03*
G01*
X7066579Y8902677D03*
G01*
X5803894Y7365977D03*
M02*
