G04 Layer: BottomSilkscreenLayer*
G04 EasyEDA v6.5.54, 2026-05-15 06:27:57*
G04 54a5ba695e504de6a7b65cf390fd3e67,5e732c2b7d5540c8836deda47cd93de7,10*
G04 Gerber Generator version 0.2*
G04 Scale: 100 percent, Rotated: No, Reflected: No *
G04 Dimensions in millimeters *
G04 leading zeros omitted , absolute positions ,4 integer and 5 decimal *
%FSLAX45Y45*%
%MOMM*%

%ADD10C,0.1524*%
%ADD11C,0.1520*%
%ADD12C,0.2540*%
%ADD13C,0.0158*%

%LPD*%
G36*
X11112652Y2725623D02*
G01*
X11112652Y2518460D01*
X11224260Y2518460D01*
X11224260Y2620264D01*
X11226952Y2622905D01*
X11274044Y2622905D01*
X11276736Y2620264D01*
X11276736Y2518460D01*
X11274044Y2515768D01*
X11226952Y2515768D01*
X11224260Y2518460D01*
X11112652Y2518460D01*
X11112652Y2354376D01*
X11109960Y2351735D01*
X10730941Y2351735D01*
X10730941Y2240127D01*
X10784078Y2240127D01*
X10786770Y2242769D01*
X10786770Y2292096D01*
X10789462Y2294788D01*
X11055299Y2294788D01*
X11057991Y2292096D01*
X11057991Y2245004D01*
X11055299Y2242362D01*
X10951260Y2242362D01*
X10948619Y2239670D01*
X10948619Y2188108D01*
X10951260Y2185416D01*
X11000587Y2185416D01*
X11003280Y2182723D01*
X11003280Y2135632D01*
X11000587Y2132990D01*
X10951260Y2132990D01*
X10948619Y2130298D01*
X10948619Y2034082D01*
X10945926Y2031390D01*
X10898835Y2031390D01*
X10896142Y2034082D01*
X10896142Y2184958D01*
X10893450Y2187651D01*
X10787227Y2187651D01*
X10784535Y2184958D01*
X10784535Y2078736D01*
X10787227Y2076043D01*
X10836554Y2076043D01*
X10839246Y2073351D01*
X10839246Y2034082D01*
X10836554Y2031390D01*
X10787227Y2031390D01*
X10784535Y2028748D01*
X10784535Y1924710D01*
X10781842Y1922018D01*
X10730941Y1922018D01*
X10730941Y1865122D01*
X10781842Y1865122D01*
X10784535Y1862429D01*
X10784535Y1705965D01*
X10841431Y1705965D01*
X10841431Y1807768D01*
X10844123Y1810410D01*
X10891215Y1810410D01*
X10893907Y1807768D01*
X10893907Y1758391D01*
X10896600Y1755749D01*
X10945926Y1755749D01*
X10948619Y1753057D01*
X10948619Y1651254D01*
X10945926Y1648612D01*
X10898835Y1648612D01*
X10896142Y1651254D01*
X10896142Y1700580D01*
X10893450Y1703273D01*
X10844123Y1703273D01*
X10841431Y1705965D01*
X10784535Y1705965D01*
X10784535Y1703730D01*
X10787227Y1701038D01*
X10836554Y1701038D01*
X10839246Y1698345D01*
X10839246Y1596593D01*
X10836554Y1593900D01*
X10787227Y1593900D01*
X10784535Y1591208D01*
X10784535Y1487220D01*
X10781842Y1484528D01*
X10730941Y1484528D01*
X10730941Y1427632D01*
X10784078Y1427632D01*
X10786770Y1430274D01*
X10786770Y1479600D01*
X10789462Y1482293D01*
X10836554Y1482293D01*
X10839246Y1479600D01*
X10839246Y1330960D01*
X10836554Y1328267D01*
X10787227Y1328267D01*
X10784535Y1325626D01*
X10784535Y1276248D01*
X10841431Y1276248D01*
X10841431Y1323390D01*
X10844123Y1326032D01*
X10891215Y1326032D01*
X10893907Y1323390D01*
X10893907Y1276248D01*
X10891215Y1273606D01*
X10844123Y1273606D01*
X10841431Y1276248D01*
X10784535Y1276248D01*
X10781842Y1273606D01*
X10730941Y1273606D01*
X10730941Y1221587D01*
X10786770Y1221587D01*
X10786770Y1268679D01*
X10789462Y1271371D01*
X10836554Y1271371D01*
X10839246Y1268679D01*
X10839246Y1221587D01*
X10836554Y1218895D01*
X10789462Y1218895D01*
X10786770Y1221587D01*
X10730941Y1221587D01*
X10730941Y1216660D01*
X10781842Y1216660D01*
X10784535Y1214018D01*
X10784535Y1164640D01*
X10787227Y1161999D01*
X10836554Y1161999D01*
X10839246Y1159306D01*
X10839246Y1112215D01*
X10836554Y1109522D01*
X10787227Y1109522D01*
X10784535Y1106830D01*
X10784535Y1057503D01*
X10781842Y1054862D01*
X10730941Y1054862D01*
X10730941Y948131D01*
X10786770Y948131D01*
X10786770Y1049934D01*
X10789462Y1052626D01*
X10836554Y1052626D01*
X10839246Y1049934D01*
X10839246Y948131D01*
X10836554Y945489D01*
X10789462Y945489D01*
X10786770Y948131D01*
X10730941Y948131D01*
X10730941Y943254D01*
X10781842Y943254D01*
X10784535Y940562D01*
X10784535Y891235D01*
X10787227Y888542D01*
X10891215Y888542D01*
X10893907Y885850D01*
X10893907Y838758D01*
X10891215Y836117D01*
X10730941Y836117D01*
X10730941Y779170D01*
X10781842Y779170D01*
X10784535Y776478D01*
X10784535Y725627D01*
X10896142Y725627D01*
X10896142Y831189D01*
X10898835Y833882D01*
X10945926Y833882D01*
X10948619Y831189D01*
X10948619Y781862D01*
X10951260Y779170D01*
X11000587Y779170D01*
X11003280Y776478D01*
X11003280Y725627D01*
X11169599Y725627D01*
X11169599Y831189D01*
X11172240Y833882D01*
X11219332Y833882D01*
X11222024Y831189D01*
X11222024Y725627D01*
X11388344Y725627D01*
X11388344Y776478D01*
X11390985Y779170D01*
X11487200Y779170D01*
X11489893Y781862D01*
X11489893Y831189D01*
X11492585Y833882D01*
X11541912Y833882D01*
X11544554Y836523D01*
X11544554Y885850D01*
X11547246Y888542D01*
X11703710Y888542D01*
X11706402Y885850D01*
X11706402Y838758D01*
X11703710Y836117D01*
X11599722Y836117D01*
X11597030Y833424D01*
X11597030Y784098D01*
X11708638Y784098D01*
X11708638Y831189D01*
X11711330Y833882D01*
X11758422Y833882D01*
X11761114Y831189D01*
X11761114Y784098D01*
X11758422Y781405D01*
X11711330Y781405D01*
X11708638Y784098D01*
X11597030Y784098D01*
X11597030Y781862D01*
X11599722Y779170D01*
X11703710Y779170D01*
X11706402Y776478D01*
X11706402Y725627D01*
X11763349Y725627D01*
X11763349Y776478D01*
X11765991Y779170D01*
X11867794Y779170D01*
X11870486Y776478D01*
X11870486Y725627D01*
X11982094Y725627D01*
X11982094Y833424D01*
X11979402Y836117D01*
X11927840Y836117D01*
X11925147Y833424D01*
X11925147Y784098D01*
X11922455Y781405D01*
X11875363Y781405D01*
X11872722Y784098D01*
X11872722Y833424D01*
X11870029Y836117D01*
X11765991Y836117D01*
X11763349Y838758D01*
X11763349Y940562D01*
X11765991Y943254D01*
X11813082Y943254D01*
X11815775Y940562D01*
X11815775Y891235D01*
X11818467Y888542D01*
X11924690Y888542D01*
X11927382Y891235D01*
X11927382Y995222D01*
X11930075Y997915D01*
X12034062Y997915D01*
X12036755Y1000607D01*
X12036755Y1104595D01*
X12039447Y1107287D01*
X12078716Y1107287D01*
X12081408Y1104595D01*
X12081408Y1055268D01*
X12084100Y1052626D01*
X12135662Y1052626D01*
X12138304Y1055268D01*
X12138304Y1106830D01*
X12135662Y1109522D01*
X12086336Y1109522D01*
X12083643Y1112215D01*
X12083643Y1159306D01*
X12086336Y1161999D01*
X12135662Y1161999D01*
X12138304Y1164640D01*
X12138304Y1214018D01*
X12140996Y1216660D01*
X12190323Y1216660D01*
X12193016Y1219352D01*
X12193016Y1325626D01*
X12190323Y1328267D01*
X12084100Y1328267D01*
X12081408Y1325626D01*
X12081408Y1166876D01*
X12078716Y1164234D01*
X12039447Y1164234D01*
X12036755Y1166876D01*
X12036755Y1270914D01*
X12034062Y1273606D01*
X11984736Y1273606D01*
X11982094Y1276248D01*
X11982094Y1323390D01*
X11984736Y1326032D01*
X12034062Y1326032D01*
X12036755Y1328724D01*
X12036755Y1534312D01*
X12039447Y1537004D01*
X12080951Y1537004D01*
X12083643Y1539646D01*
X12083643Y1588973D01*
X12086336Y1591665D01*
X12188088Y1591665D01*
X12190780Y1588973D01*
X12190780Y1541881D01*
X12411760Y1541881D01*
X12411760Y1588973D01*
X12414453Y1591665D01*
X12461544Y1591665D01*
X12464237Y1588973D01*
X12464237Y1541881D01*
X12521133Y1541881D01*
X12521133Y1588973D01*
X12523825Y1591665D01*
X12570917Y1591665D01*
X12573609Y1588973D01*
X12573609Y1541881D01*
X12570917Y1539240D01*
X12523825Y1539240D01*
X12521133Y1541881D01*
X12464237Y1541881D01*
X12461544Y1539240D01*
X12414453Y1539240D01*
X12411760Y1541881D01*
X12190780Y1541881D01*
X12188088Y1539240D01*
X12138761Y1539240D01*
X12136120Y1536547D01*
X12136120Y1487220D01*
X12247727Y1487220D01*
X12247727Y1534312D01*
X12250369Y1537004D01*
X12406833Y1537004D01*
X12409525Y1534312D01*
X12409525Y1487220D01*
X12466472Y1487220D01*
X12466472Y1534312D01*
X12469114Y1537004D01*
X12516205Y1537004D01*
X12518898Y1534312D01*
X12518898Y1487220D01*
X12516205Y1484528D01*
X12469114Y1484528D01*
X12466472Y1487220D01*
X12409525Y1487220D01*
X12406833Y1484528D01*
X12250369Y1484528D01*
X12247727Y1487220D01*
X12136120Y1487220D01*
X12133427Y1484528D01*
X12084100Y1484528D01*
X12081408Y1481836D01*
X12081408Y1430274D01*
X12084100Y1427632D01*
X12135662Y1427632D01*
X12138304Y1430274D01*
X12138304Y1479600D01*
X12140996Y1482293D01*
X12242800Y1482293D01*
X12245492Y1479600D01*
X12245492Y1385620D01*
X12357049Y1385620D01*
X12357049Y1424940D01*
X12359741Y1427632D01*
X12409068Y1427632D01*
X12411760Y1430274D01*
X12411760Y1479600D01*
X12414453Y1482293D01*
X12461544Y1482293D01*
X12464237Y1479600D01*
X12464237Y1432509D01*
X12521133Y1432509D01*
X12521133Y1479600D01*
X12523825Y1482293D01*
X12570917Y1482293D01*
X12573609Y1479600D01*
X12573609Y1432509D01*
X12570917Y1429867D01*
X12523825Y1429867D01*
X12521133Y1432509D01*
X12464237Y1432509D01*
X12464237Y1385620D01*
X12461544Y1382979D01*
X12359741Y1382979D01*
X12357049Y1385620D01*
X12245492Y1385620D01*
X12245492Y1383436D01*
X12248134Y1380744D01*
X12297460Y1380744D01*
X12300153Y1378051D01*
X12300153Y1330960D01*
X12466472Y1330960D01*
X12466472Y1378051D01*
X12469114Y1380744D01*
X12625578Y1380744D01*
X12628270Y1378051D01*
X12628270Y1330960D01*
X12625578Y1328267D01*
X12469114Y1328267D01*
X12466472Y1330960D01*
X12300153Y1330960D01*
X12297460Y1328267D01*
X12248134Y1328267D01*
X12245492Y1325626D01*
X12245492Y1276248D01*
X12302388Y1276248D01*
X12302388Y1323390D01*
X12305080Y1326032D01*
X12406833Y1326032D01*
X12409525Y1323390D01*
X12409525Y1276248D01*
X12406833Y1273606D01*
X12305080Y1273606D01*
X12302388Y1276248D01*
X12245492Y1276248D01*
X12245492Y1274064D01*
X12248134Y1271371D01*
X12297460Y1271371D01*
X12300153Y1268679D01*
X12300153Y1221587D01*
X12297460Y1218895D01*
X12248134Y1218895D01*
X12245492Y1216202D01*
X12245492Y1166876D01*
X12357049Y1166876D01*
X12357049Y1214018D01*
X12359741Y1216660D01*
X12406833Y1216660D01*
X12409525Y1214018D01*
X12409525Y1166876D01*
X12406833Y1164234D01*
X12359741Y1164234D01*
X12357049Y1166876D01*
X12245492Y1166876D01*
X12242800Y1164234D01*
X12193473Y1164234D01*
X12190780Y1161542D01*
X12190780Y1002842D01*
X12247727Y1002842D01*
X12247727Y1159306D01*
X12250369Y1161999D01*
X12297460Y1161999D01*
X12300153Y1159306D01*
X12300153Y1002842D01*
X12297460Y1000150D01*
X12250369Y1000150D01*
X12247727Y1002842D01*
X12190780Y1002842D01*
X12188088Y1000150D01*
X12084100Y1000150D01*
X12081408Y997458D01*
X12081408Y948131D01*
X12078716Y945489D01*
X11982500Y945489D01*
X11979859Y942797D01*
X11979859Y893470D01*
X12083643Y893470D01*
X12083643Y940562D01*
X12086336Y943254D01*
X12133427Y943254D01*
X12136120Y940562D01*
X12136120Y893470D01*
X12133427Y890778D01*
X12086336Y890778D01*
X12083643Y893470D01*
X11979859Y893470D01*
X11979859Y891235D01*
X11982500Y888542D01*
X12078716Y888542D01*
X12081408Y885850D01*
X12081408Y838758D01*
X12078716Y836117D01*
X12037212Y836117D01*
X12034520Y833424D01*
X12034520Y725627D01*
X12138304Y725627D01*
X12138304Y885850D01*
X12140996Y888542D01*
X12297460Y888542D01*
X12300153Y885850D01*
X12300153Y838758D01*
X12297460Y836117D01*
X12193473Y836117D01*
X12190780Y833424D01*
X12190780Y725627D01*
X12357049Y725627D01*
X12357049Y1104595D01*
X12359741Y1107287D01*
X12730937Y1107287D01*
X12730937Y1164234D01*
X12469114Y1164234D01*
X12466472Y1166876D01*
X12466472Y1268679D01*
X12469114Y1271371D01*
X12625578Y1271371D01*
X12628270Y1268679D01*
X12628270Y1219352D01*
X12630962Y1216660D01*
X12730937Y1216660D01*
X12730937Y1273606D01*
X12633198Y1273606D01*
X12630505Y1276248D01*
X12630505Y1323390D01*
X12633198Y1326032D01*
X12730937Y1326032D01*
X12730937Y1382979D01*
X12687858Y1382979D01*
X12685217Y1385620D01*
X12685217Y1427175D01*
X12682524Y1429867D01*
X12633198Y1429867D01*
X12630505Y1432509D01*
X12630505Y1479600D01*
X12633198Y1482293D01*
X12682524Y1482293D01*
X12685217Y1484985D01*
X12685217Y1534312D01*
X12687858Y1537004D01*
X12730937Y1537004D01*
X12730937Y1757984D01*
X12630962Y1757984D01*
X12628270Y1755292D01*
X12628270Y1703730D01*
X12630962Y1701038D01*
X12680289Y1701038D01*
X12682982Y1698345D01*
X12682982Y1596593D01*
X12680289Y1593900D01*
X12578486Y1593900D01*
X12575844Y1596593D01*
X12575844Y1700580D01*
X12573152Y1703273D01*
X12359741Y1703273D01*
X12357049Y1705965D01*
X12357049Y1753057D01*
X12359741Y1755749D01*
X12518440Y1755749D01*
X12521133Y1758391D01*
X12521133Y1807768D01*
X12523825Y1810410D01*
X12627813Y1810410D01*
X12630505Y1813102D01*
X12630505Y1862429D01*
X12633198Y1865122D01*
X12730937Y1865122D01*
X12730937Y1922018D01*
X12687858Y1922018D01*
X12685217Y1924710D01*
X12685217Y1971802D01*
X12687858Y1974494D01*
X12730937Y1974494D01*
X12730937Y2031390D01*
X12687858Y2031390D01*
X12685217Y2034082D01*
X12685217Y2182723D01*
X12687858Y2185416D01*
X12730937Y2185416D01*
X12730937Y2351735D01*
X12359741Y2351735D01*
X12357049Y2354376D01*
X12357049Y2725623D01*
X12245492Y2725623D01*
X12245492Y2682494D01*
X12242800Y2679852D01*
X12195708Y2679852D01*
X12193016Y2682494D01*
X12193016Y2725623D01*
X12081408Y2725623D01*
X12081408Y2627833D01*
X12138304Y2627833D01*
X12138304Y2674924D01*
X12140996Y2677617D01*
X12188088Y2677617D01*
X12190780Y2674924D01*
X12190780Y2627833D01*
X12188088Y2625140D01*
X12140996Y2625140D01*
X12138304Y2627833D01*
X12081408Y2627833D01*
X12081408Y2516225D01*
X12084100Y2513533D01*
X12135662Y2513533D01*
X12138304Y2516225D01*
X12138304Y2565552D01*
X12140996Y2568244D01*
X12190323Y2568244D01*
X12193016Y2570937D01*
X12193016Y2620264D01*
X12195708Y2622905D01*
X12245035Y2622905D01*
X12247727Y2625598D01*
X12247727Y2674924D01*
X12250369Y2677617D01*
X12297460Y2677617D01*
X12300153Y2674924D01*
X12300153Y2354376D01*
X12297460Y2351735D01*
X12250369Y2351735D01*
X12247727Y2354376D01*
X12247727Y2403703D01*
X12245035Y2406396D01*
X12195708Y2406396D01*
X12193016Y2409088D01*
X12193016Y2456180D01*
X12195708Y2458872D01*
X12245035Y2458872D01*
X12247727Y2461514D01*
X12247727Y2513076D01*
X12245035Y2515768D01*
X12193473Y2515768D01*
X12190780Y2513076D01*
X12190780Y2463749D01*
X12188088Y2461107D01*
X12084100Y2461107D01*
X12081408Y2458415D01*
X12081408Y2352141D01*
X12084100Y2349500D01*
X12135662Y2349500D01*
X12138304Y2352141D01*
X12138304Y2401468D01*
X12140996Y2404160D01*
X12188088Y2404160D01*
X12190780Y2401468D01*
X12190780Y2299716D01*
X12188088Y2297023D01*
X12138761Y2297023D01*
X12136120Y2294331D01*
X12136120Y2242769D01*
X12138761Y2240127D01*
X12242800Y2240127D01*
X12245492Y2237435D01*
X12245492Y2188108D01*
X12248134Y2185416D01*
X12409068Y2185416D01*
X12411760Y2188108D01*
X12411760Y2239670D01*
X12409068Y2242362D01*
X12250369Y2242362D01*
X12247727Y2245004D01*
X12247727Y2292096D01*
X12250369Y2294788D01*
X12461544Y2294788D01*
X12464237Y2292096D01*
X12464237Y2135632D01*
X12461544Y2132990D01*
X12357506Y2132990D01*
X12354864Y2130298D01*
X12354864Y2080971D01*
X12521133Y2080971D01*
X12521133Y2237435D01*
X12523825Y2240127D01*
X12573152Y2240127D01*
X12575844Y2242769D01*
X12575844Y2292096D01*
X12578486Y2294788D01*
X12625578Y2294788D01*
X12628270Y2292096D01*
X12628270Y2190343D01*
X12625578Y2187651D01*
X12576251Y2187651D01*
X12573609Y2184958D01*
X12573609Y2133396D01*
X12576251Y2130755D01*
X12625578Y2130755D01*
X12628270Y2128062D01*
X12628270Y2080971D01*
X12625578Y2078278D01*
X12523825Y2078278D01*
X12521133Y2080971D01*
X12354864Y2080971D01*
X12352172Y2078278D01*
X12302845Y2078278D01*
X12300153Y2075586D01*
X12300153Y2034082D01*
X12357049Y2034082D01*
X12357049Y2073351D01*
X12359741Y2076043D01*
X12406833Y2076043D01*
X12409525Y2073351D01*
X12409525Y2034082D01*
X12406833Y2031390D01*
X12359741Y2031390D01*
X12357049Y2034082D01*
X12300153Y2034082D01*
X12300153Y2031847D01*
X12302845Y2029155D01*
X12352172Y2029155D01*
X12354864Y2026513D01*
X12354864Y1979371D01*
X12352172Y1976729D01*
X12302845Y1976729D01*
X12300153Y1974037D01*
X12300153Y1869998D01*
X12297460Y1867357D01*
X12250369Y1867357D01*
X12247727Y1869998D01*
X12247727Y1919325D01*
X12245035Y1922018D01*
X12195708Y1922018D01*
X12193016Y1924710D01*
X12193016Y1971802D01*
X12195708Y1974494D01*
X12245035Y1974494D01*
X12247727Y1977186D01*
X12247727Y2028748D01*
X12245035Y2031390D01*
X12195708Y2031390D01*
X12193016Y2034082D01*
X12193016Y2075586D01*
X12190323Y2078278D01*
X12140996Y2078278D01*
X12138304Y2080971D01*
X12138304Y2128062D01*
X12140996Y2130755D01*
X12190323Y2130755D01*
X12193016Y2133396D01*
X12193016Y2184958D01*
X12190323Y2187651D01*
X12086336Y2187651D01*
X12083643Y2190343D01*
X12083643Y2239670D01*
X12080951Y2242362D01*
X12039447Y2242362D01*
X12036755Y2245004D01*
X12036755Y2294331D01*
X12034062Y2297023D01*
X11984736Y2297023D01*
X11982094Y2299716D01*
X11982094Y2346807D01*
X11984736Y2349500D01*
X12034062Y2349500D01*
X12036755Y2352141D01*
X12036755Y2403703D01*
X12034062Y2406396D01*
X11984736Y2406396D01*
X11982094Y2409088D01*
X11982094Y2456180D01*
X11984736Y2458872D01*
X12034062Y2458872D01*
X12036755Y2461514D01*
X12036755Y2513076D01*
X12034062Y2515768D01*
X11982500Y2515768D01*
X11979859Y2513076D01*
X11979859Y2463749D01*
X11977166Y2461107D01*
X11927840Y2461107D01*
X11925147Y2458415D01*
X11925147Y2409088D01*
X11922455Y2406396D01*
X11875363Y2406396D01*
X11872722Y2409088D01*
X11872722Y2513076D01*
X11870029Y2515768D01*
X11820702Y2515768D01*
X11818010Y2518460D01*
X11818010Y2565552D01*
X11820702Y2568244D01*
X11870029Y2568244D01*
X11872722Y2570937D01*
X11872722Y2622499D01*
X11870029Y2625140D01*
X11820702Y2625140D01*
X11818010Y2627833D01*
X11818010Y2677160D01*
X11815318Y2679852D01*
X11763756Y2679852D01*
X11761114Y2677160D01*
X11761114Y2627833D01*
X11758422Y2625140D01*
X11711330Y2625140D01*
X11708638Y2627833D01*
X11708638Y2725623D01*
X11651742Y2725623D01*
X11651742Y2627833D01*
X11649049Y2625140D01*
X11599722Y2625140D01*
X11597030Y2622499D01*
X11597030Y2518460D01*
X11653977Y2518460D01*
X11653977Y2565552D01*
X11656618Y2568244D01*
X11703710Y2568244D01*
X11706402Y2565552D01*
X11706402Y2518460D01*
X11703710Y2515768D01*
X11656618Y2515768D01*
X11653977Y2518460D01*
X11597030Y2518460D01*
X11597030Y2409088D01*
X11653977Y2409088D01*
X11653977Y2456180D01*
X11656618Y2458872D01*
X11813082Y2458872D01*
X11815775Y2456180D01*
X11815775Y2409088D01*
X11813082Y2406396D01*
X11763756Y2406396D01*
X11761114Y2403703D01*
X11761114Y2354376D01*
X11818010Y2354376D01*
X11818010Y2401468D01*
X11820702Y2404160D01*
X11867794Y2404160D01*
X11870486Y2401468D01*
X11870486Y2354376D01*
X11927382Y2354376D01*
X11927382Y2401468D01*
X11930075Y2404160D01*
X11977166Y2404160D01*
X11979859Y2401468D01*
X11979859Y2354376D01*
X11977166Y2351735D01*
X11930075Y2351735D01*
X11927382Y2354376D01*
X11870486Y2354376D01*
X11867794Y2351735D01*
X11820702Y2351735D01*
X11818010Y2354376D01*
X11761114Y2354376D01*
X11761114Y2299716D01*
X11758422Y2297023D01*
X11711330Y2297023D01*
X11708638Y2299716D01*
X11708638Y2403703D01*
X11705945Y2406396D01*
X11656618Y2406396D01*
X11653977Y2409088D01*
X11597030Y2409088D01*
X11594338Y2406396D01*
X11545011Y2406396D01*
X11542318Y2403703D01*
X11542318Y2299716D01*
X11599265Y2299716D01*
X11599265Y2401468D01*
X11601958Y2404160D01*
X11649049Y2404160D01*
X11651742Y2401468D01*
X11651742Y2299716D01*
X11649049Y2297023D01*
X11601958Y2297023D01*
X11599265Y2299716D01*
X11542318Y2299716D01*
X11542318Y2190343D01*
X11539677Y2187651D01*
X11490350Y2187651D01*
X11487658Y2184958D01*
X11487658Y2135632D01*
X11484965Y2132990D01*
X11437874Y2132990D01*
X11435181Y2135632D01*
X11435181Y2239670D01*
X11432540Y2242362D01*
X11388750Y2242362D01*
X11386108Y2239670D01*
X11386108Y2190343D01*
X11383416Y2187651D01*
X11281613Y2187651D01*
X11278971Y2190343D01*
X11278971Y2294331D01*
X11276279Y2297023D01*
X11224717Y2297023D01*
X11222024Y2294331D01*
X11222024Y2133396D01*
X11224717Y2130755D01*
X11328704Y2130755D01*
X11331397Y2128062D01*
X11331397Y2080971D01*
X11328704Y2078278D01*
X11224717Y2078278D01*
X11222024Y2075586D01*
X11222024Y2034082D01*
X11388344Y2034082D01*
X11388344Y2128062D01*
X11390985Y2130755D01*
X11430304Y2130755D01*
X11432946Y2128062D01*
X11432946Y2078736D01*
X11435638Y2076043D01*
X11484965Y2076043D01*
X11487658Y2073351D01*
X11487658Y2034082D01*
X11484965Y2031390D01*
X11390985Y2031390D01*
X11388344Y2034082D01*
X11222024Y2034082D01*
X11222024Y2031847D01*
X11224717Y2029155D01*
X11274044Y2029155D01*
X11276736Y2026513D01*
X11276736Y1979371D01*
X11333632Y1979371D01*
X11333632Y2026513D01*
X11336324Y2029155D01*
X11383416Y2029155D01*
X11386108Y2026513D01*
X11386108Y1979371D01*
X11383416Y1976729D01*
X11336324Y1976729D01*
X11333632Y1979371D01*
X11276736Y1979371D01*
X11276736Y1924710D01*
X11388344Y1924710D01*
X11388344Y1971802D01*
X11390985Y1974494D01*
X11430304Y1974494D01*
X11432946Y1971802D01*
X11432946Y1924710D01*
X11430304Y1922018D01*
X11390985Y1922018D01*
X11388344Y1924710D01*
X11276736Y1924710D01*
X11276736Y1922475D01*
X11279378Y1919782D01*
X11328704Y1919782D01*
X11331397Y1917141D01*
X11331397Y1869998D01*
X11328704Y1867357D01*
X11279378Y1867357D01*
X11276736Y1864664D01*
X11276736Y1705965D01*
X11333632Y1705965D01*
X11333632Y1807768D01*
X11336324Y1810410D01*
X11432540Y1810410D01*
X11435181Y1813102D01*
X11435181Y1862429D01*
X11437874Y1865122D01*
X11487200Y1865122D01*
X11489893Y1867763D01*
X11489893Y1971802D01*
X11492585Y1974494D01*
X11539677Y1974494D01*
X11542318Y1971802D01*
X11542318Y1922475D01*
X11545011Y1919782D01*
X11594338Y1919782D01*
X11597030Y1917141D01*
X11597030Y1869998D01*
X11594338Y1867357D01*
X11545011Y1867357D01*
X11542318Y1864664D01*
X11542318Y1813102D01*
X11545011Y1810410D01*
X11594338Y1810410D01*
X11597030Y1807768D01*
X11597030Y1760626D01*
X11594338Y1757984D01*
X11545011Y1757984D01*
X11542318Y1755292D01*
X11542318Y1703730D01*
X11545011Y1701038D01*
X11596573Y1701038D01*
X11599265Y1703730D01*
X11599265Y1753057D01*
X11601958Y1755749D01*
X11705945Y1755749D01*
X11708638Y1758391D01*
X11708638Y1809953D01*
X11705945Y1812645D01*
X11656618Y1812645D01*
X11653977Y1815338D01*
X11653977Y1862429D01*
X11656618Y1865122D01*
X11705945Y1865122D01*
X11708638Y1867763D01*
X11708638Y1919325D01*
X11705945Y1922018D01*
X11656618Y1922018D01*
X11653977Y1924710D01*
X11653977Y1974037D01*
X11651284Y1976729D01*
X11601958Y1976729D01*
X11599265Y1979371D01*
X11599265Y2073351D01*
X11601958Y2076043D01*
X11703710Y2076043D01*
X11706402Y2073351D01*
X11706402Y2031847D01*
X11709095Y2029155D01*
X11758422Y2029155D01*
X11761114Y2026513D01*
X11761114Y1977186D01*
X11763756Y1974494D01*
X11815318Y1974494D01*
X11818010Y1977186D01*
X11818010Y2026513D01*
X11820702Y2029155D01*
X11870029Y2029155D01*
X11872722Y2031847D01*
X11872722Y2130298D01*
X11870029Y2132990D01*
X11763756Y2132990D01*
X11761114Y2130298D01*
X11761114Y2080971D01*
X11758422Y2078278D01*
X11711330Y2078278D01*
X11708638Y2080971D01*
X11708638Y2130298D01*
X11705945Y2132990D01*
X11601958Y2132990D01*
X11599265Y2135632D01*
X11599265Y2237435D01*
X11601958Y2240127D01*
X11703710Y2240127D01*
X11706402Y2237435D01*
X11706402Y2188108D01*
X11709095Y2185416D01*
X11760657Y2185416D01*
X11763349Y2188108D01*
X11763349Y2292096D01*
X11765991Y2294788D01*
X11813082Y2294788D01*
X11815775Y2292096D01*
X11815775Y2245004D01*
X11872722Y2245004D01*
X11872722Y2346807D01*
X11875363Y2349500D01*
X11922455Y2349500D01*
X11925147Y2346807D01*
X11925147Y2245004D01*
X11922455Y2242362D01*
X11875363Y2242362D01*
X11872722Y2245004D01*
X11815775Y2245004D01*
X11815775Y2242769D01*
X11818467Y2240127D01*
X11867794Y2240127D01*
X11870486Y2237435D01*
X11870486Y2188108D01*
X11873128Y2185416D01*
X11922455Y2185416D01*
X11925147Y2182723D01*
X11925147Y2135632D01*
X11982094Y2135632D01*
X11982094Y2237435D01*
X11984736Y2240127D01*
X12031827Y2240127D01*
X12034520Y2237435D01*
X12034520Y2188108D01*
X12037212Y2185416D01*
X12078716Y2185416D01*
X12081408Y2182723D01*
X12081408Y2135632D01*
X12078716Y2132990D01*
X11984736Y2132990D01*
X11982094Y2135632D01*
X11925147Y2135632D01*
X11925147Y2133396D01*
X11927840Y2130755D01*
X11977166Y2130755D01*
X11979859Y2128062D01*
X11979859Y2078736D01*
X11982500Y2076043D01*
X12031827Y2076043D01*
X12034520Y2073351D01*
X12034520Y2034082D01*
X12031827Y2031390D01*
X11927840Y2031390D01*
X11925147Y2028748D01*
X11925147Y1979371D01*
X12138304Y1979371D01*
X12138304Y2026513D01*
X12140996Y2029155D01*
X12188088Y2029155D01*
X12190780Y2026513D01*
X12190780Y1979371D01*
X12188088Y1976729D01*
X12140996Y1976729D01*
X12138304Y1979371D01*
X11925147Y1979371D01*
X11925147Y1977186D01*
X11927840Y1974494D01*
X11977166Y1974494D01*
X11979859Y1971802D01*
X11979859Y1924710D01*
X12036755Y1924710D01*
X12036755Y1971802D01*
X12039447Y1974494D01*
X12078716Y1974494D01*
X12081408Y1971802D01*
X12081408Y1924710D01*
X12078716Y1922018D01*
X12039447Y1922018D01*
X12036755Y1924710D01*
X11979859Y1924710D01*
X11977166Y1922018D01*
X11927840Y1922018D01*
X11925147Y1919325D01*
X11925147Y1815338D01*
X12036755Y1815338D01*
X12036755Y1862429D01*
X12039447Y1865122D01*
X12078716Y1865122D01*
X12081408Y1862429D01*
X12081408Y1815338D01*
X12078716Y1812645D01*
X12039447Y1812645D01*
X12036755Y1815338D01*
X11925147Y1815338D01*
X11922455Y1812645D01*
X11820702Y1812645D01*
X11818010Y1815338D01*
X11818010Y1919325D01*
X11815318Y1922018D01*
X11763756Y1922018D01*
X11761114Y1919325D01*
X11761114Y1758391D01*
X11763756Y1755749D01*
X11924690Y1755749D01*
X11927382Y1758391D01*
X11927382Y1807768D01*
X11930075Y1810410D01*
X11977166Y1810410D01*
X11979859Y1807768D01*
X11979859Y1705965D01*
X12036755Y1705965D01*
X12036755Y1753057D01*
X12039447Y1755749D01*
X12080951Y1755749D01*
X12083643Y1758391D01*
X12083643Y1807768D01*
X12086336Y1810410D01*
X12135662Y1810410D01*
X12138304Y1813102D01*
X12138304Y1917141D01*
X12140996Y1919782D01*
X12188088Y1919782D01*
X12190780Y1917141D01*
X12190780Y1815338D01*
X12357049Y1815338D01*
X12357049Y1862429D01*
X12359741Y1865122D01*
X12409068Y1865122D01*
X12411760Y1867763D01*
X12411760Y1919325D01*
X12409068Y1922018D01*
X12359741Y1922018D01*
X12357049Y1924710D01*
X12357049Y1971802D01*
X12359741Y1974494D01*
X12409068Y1974494D01*
X12411760Y1977186D01*
X12411760Y2026513D01*
X12414453Y2029155D01*
X12461544Y2029155D01*
X12464237Y2026513D01*
X12464237Y1979371D01*
X12630505Y1979371D01*
X12630505Y2026513D01*
X12633198Y2029155D01*
X12680289Y2029155D01*
X12682982Y2026513D01*
X12682982Y1979371D01*
X12680289Y1976729D01*
X12633198Y1976729D01*
X12630505Y1979371D01*
X12464237Y1979371D01*
X12464237Y1924710D01*
X12521133Y1924710D01*
X12521133Y1971802D01*
X12523825Y1974494D01*
X12570917Y1974494D01*
X12573609Y1971802D01*
X12573609Y1924710D01*
X12570917Y1922018D01*
X12523825Y1922018D01*
X12521133Y1924710D01*
X12464237Y1924710D01*
X12464237Y1869998D01*
X12575844Y1869998D01*
X12575844Y1917141D01*
X12578486Y1919782D01*
X12625578Y1919782D01*
X12628270Y1917141D01*
X12628270Y1869998D01*
X12625578Y1867357D01*
X12578486Y1867357D01*
X12575844Y1869998D01*
X12464237Y1869998D01*
X12464237Y1867763D01*
X12466878Y1865122D01*
X12516205Y1865122D01*
X12518898Y1862429D01*
X12518898Y1815338D01*
X12516205Y1812645D01*
X12359741Y1812645D01*
X12357049Y1815338D01*
X12190780Y1815338D01*
X12190780Y1760626D01*
X12247727Y1760626D01*
X12247727Y1807768D01*
X12250369Y1810410D01*
X12352172Y1810410D01*
X12354864Y1807768D01*
X12354864Y1760626D01*
X12352172Y1757984D01*
X12250369Y1757984D01*
X12247727Y1760626D01*
X12190780Y1760626D01*
X12190780Y1758391D01*
X12193473Y1755749D01*
X12242800Y1755749D01*
X12245492Y1753057D01*
X12245492Y1651254D01*
X12242800Y1648612D01*
X12086336Y1648612D01*
X12083643Y1651254D01*
X12083643Y1700580D01*
X12080951Y1703273D01*
X12039447Y1703273D01*
X12036755Y1705965D01*
X11979859Y1705965D01*
X11979859Y1651254D01*
X11977166Y1648612D01*
X11875363Y1648612D01*
X11872722Y1651254D01*
X11872722Y1700580D01*
X11870029Y1703273D01*
X11818467Y1703273D01*
X11815775Y1700580D01*
X11815775Y1651254D01*
X11813082Y1648612D01*
X11711330Y1648612D01*
X11708638Y1651254D01*
X11708638Y1700580D01*
X11705945Y1703273D01*
X11654383Y1703273D01*
X11651742Y1700580D01*
X11651742Y1651254D01*
X11649049Y1648612D01*
X11545011Y1648612D01*
X11542318Y1645920D01*
X11542318Y1596593D01*
X12302388Y1596593D01*
X12302388Y1643684D01*
X12305080Y1646377D01*
X12406833Y1646377D01*
X12409525Y1643684D01*
X12409525Y1596593D01*
X12466472Y1596593D01*
X12466472Y1643684D01*
X12469114Y1646377D01*
X12516205Y1646377D01*
X12518898Y1643684D01*
X12518898Y1596593D01*
X12516205Y1593900D01*
X12469114Y1593900D01*
X12466472Y1596593D01*
X12409525Y1596593D01*
X12406833Y1593900D01*
X12305080Y1593900D01*
X12302388Y1596593D01*
X11542318Y1596593D01*
X11542318Y1594358D01*
X11545011Y1591665D01*
X11649049Y1591665D01*
X11651742Y1588973D01*
X11651742Y1541881D01*
X11649049Y1539240D01*
X11492585Y1539240D01*
X11489893Y1541881D01*
X11489893Y1591208D01*
X11487200Y1593900D01*
X11437874Y1593900D01*
X11435181Y1596593D01*
X11435181Y1643684D01*
X11437874Y1646377D01*
X11487200Y1646377D01*
X11489893Y1649018D01*
X11489893Y1755292D01*
X11487200Y1757984D01*
X11435638Y1757984D01*
X11432946Y1755292D01*
X11432946Y1705965D01*
X11430304Y1703273D01*
X11336324Y1703273D01*
X11333632Y1705965D01*
X11276736Y1705965D01*
X11276736Y1703730D01*
X11279378Y1701038D01*
X11328704Y1701038D01*
X11331397Y1698345D01*
X11331397Y1651254D01*
X11328704Y1648612D01*
X11224717Y1648612D01*
X11222024Y1645920D01*
X11222024Y1596593D01*
X11219332Y1593900D01*
X11115344Y1593900D01*
X11112652Y1591208D01*
X11112652Y1541881D01*
X11109960Y1539240D01*
X11060633Y1539240D01*
X11057991Y1536547D01*
X11057991Y1487220D01*
X11169599Y1487220D01*
X11169599Y1534312D01*
X11172240Y1537004D01*
X11221567Y1537004D01*
X11224260Y1539646D01*
X11224260Y1588973D01*
X11226952Y1591665D01*
X11383416Y1591665D01*
X11386108Y1588973D01*
X11386108Y1541881D01*
X11383416Y1539240D01*
X11279378Y1539240D01*
X11276736Y1536547D01*
X11276736Y1432509D01*
X11274044Y1429867D01*
X11226952Y1429867D01*
X11224260Y1432509D01*
X11224260Y1481836D01*
X11221567Y1484528D01*
X11172240Y1484528D01*
X11169599Y1487220D01*
X11057991Y1487220D01*
X11057991Y1484985D01*
X11060633Y1482293D01*
X11109960Y1482293D01*
X11112652Y1479600D01*
X11112652Y1432509D01*
X11109960Y1429867D01*
X11060633Y1429867D01*
X11057991Y1427175D01*
X11057991Y1385620D01*
X11333632Y1385620D01*
X11333632Y1479600D01*
X11336324Y1482293D01*
X11432540Y1482293D01*
X11435181Y1484985D01*
X11435181Y1534312D01*
X11437874Y1537004D01*
X11484965Y1537004D01*
X11487658Y1534312D01*
X11487658Y1484985D01*
X11490350Y1482293D01*
X11758422Y1482293D01*
X11761114Y1479600D01*
X11761114Y1430274D01*
X11763756Y1427632D01*
X11815318Y1427632D01*
X11818010Y1430274D01*
X11818010Y1588973D01*
X11820702Y1591665D01*
X11922455Y1591665D01*
X11925147Y1588973D01*
X11925147Y1541881D01*
X11982094Y1541881D01*
X11982094Y1588973D01*
X11984736Y1591665D01*
X12031827Y1591665D01*
X12034520Y1588973D01*
X12034520Y1541881D01*
X12031827Y1539240D01*
X11984736Y1539240D01*
X11982094Y1541881D01*
X11925147Y1541881D01*
X11922455Y1539240D01*
X11873128Y1539240D01*
X11870486Y1536547D01*
X11870486Y1484985D01*
X11873128Y1482293D01*
X11922455Y1482293D01*
X11925147Y1479600D01*
X11925147Y1432509D01*
X11922455Y1429867D01*
X11873128Y1429867D01*
X11870486Y1427175D01*
X11870486Y1383436D01*
X11873128Y1380744D01*
X11977166Y1380744D01*
X11979859Y1378051D01*
X11979859Y1330960D01*
X11977166Y1328267D01*
X11927840Y1328267D01*
X11925147Y1325626D01*
X11925147Y1276248D01*
X11922455Y1273606D01*
X11875363Y1273606D01*
X11872722Y1276248D01*
X11872722Y1325626D01*
X11870029Y1328267D01*
X11765991Y1328267D01*
X11763349Y1330960D01*
X11763349Y1380286D01*
X11760657Y1382979D01*
X11599722Y1382979D01*
X11597030Y1380286D01*
X11597030Y1330960D01*
X11594338Y1328267D01*
X11547246Y1328267D01*
X11544554Y1330960D01*
X11544554Y1380286D01*
X11541912Y1382979D01*
X11435638Y1382979D01*
X11432946Y1380286D01*
X11432946Y1276248D01*
X11653977Y1276248D01*
X11653977Y1323390D01*
X11656618Y1326032D01*
X11758422Y1326032D01*
X11761114Y1323390D01*
X11761114Y1276248D01*
X11758422Y1273606D01*
X11656618Y1273606D01*
X11653977Y1276248D01*
X11432946Y1276248D01*
X11432946Y1274064D01*
X11435638Y1271371D01*
X11484965Y1271371D01*
X11487658Y1268679D01*
X11487658Y1221587D01*
X11484965Y1218895D01*
X11435638Y1218895D01*
X11432946Y1216202D01*
X11432946Y1164640D01*
X11435638Y1161999D01*
X11484965Y1161999D01*
X11487658Y1159306D01*
X11487658Y1109980D01*
X11490350Y1107287D01*
X11539677Y1107287D01*
X11542318Y1104595D01*
X11542318Y1055268D01*
X11545011Y1052626D01*
X11596573Y1052626D01*
X11599265Y1055268D01*
X11599265Y1161542D01*
X11596573Y1164234D01*
X11492585Y1164234D01*
X11489893Y1166876D01*
X11489893Y1214018D01*
X11492585Y1216660D01*
X11760657Y1216660D01*
X11763349Y1219352D01*
X11763349Y1268679D01*
X11765991Y1271371D01*
X11813082Y1271371D01*
X11815775Y1268679D01*
X11815775Y1221587D01*
X11927382Y1221587D01*
X11927382Y1268679D01*
X11930075Y1271371D01*
X11977166Y1271371D01*
X11979859Y1268679D01*
X11979859Y1221587D01*
X11977166Y1218895D01*
X11930075Y1218895D01*
X11927382Y1221587D01*
X11815775Y1221587D01*
X11815775Y1164640D01*
X11818467Y1161999D01*
X11867794Y1161999D01*
X11870486Y1159306D01*
X11870486Y1112215D01*
X11927382Y1112215D01*
X11927382Y1159306D01*
X11930075Y1161999D01*
X12031827Y1161999D01*
X12034520Y1159306D01*
X12034520Y1112215D01*
X12031827Y1109522D01*
X11930075Y1109522D01*
X11927382Y1112215D01*
X11870486Y1112215D01*
X11870486Y1109980D01*
X11873128Y1107287D01*
X11922455Y1107287D01*
X11925147Y1104595D01*
X11925147Y1002842D01*
X11922455Y1000150D01*
X11820702Y1000150D01*
X11818010Y1002842D01*
X11818010Y1052169D01*
X11815318Y1054862D01*
X11765991Y1054862D01*
X11763349Y1057503D01*
X11763349Y1161542D01*
X11760657Y1164234D01*
X11654383Y1164234D01*
X11651742Y1161542D01*
X11651742Y1055268D01*
X11654383Y1052626D01*
X11758422Y1052626D01*
X11761114Y1049934D01*
X11761114Y948131D01*
X11758422Y945489D01*
X11656618Y945489D01*
X11653977Y948131D01*
X11653977Y997458D01*
X11651284Y1000150D01*
X11599722Y1000150D01*
X11597030Y997458D01*
X11597030Y948131D01*
X11594338Y945489D01*
X11545011Y945489D01*
X11542318Y942797D01*
X11542318Y893470D01*
X11539677Y890778D01*
X11492585Y890778D01*
X11489893Y893470D01*
X11489893Y1052169D01*
X11487200Y1054862D01*
X11435638Y1054862D01*
X11432946Y1052169D01*
X11432946Y1002842D01*
X11430304Y1000150D01*
X11390985Y1000150D01*
X11388344Y1002842D01*
X11388344Y1380286D01*
X11385651Y1382979D01*
X11336324Y1382979D01*
X11333632Y1385620D01*
X11057991Y1385620D01*
X11057991Y1328724D01*
X11060633Y1326032D01*
X11164671Y1326032D01*
X11167364Y1323390D01*
X11167364Y1276248D01*
X11224260Y1276248D01*
X11224260Y1323390D01*
X11226952Y1326032D01*
X11274044Y1326032D01*
X11276736Y1323390D01*
X11276736Y1276248D01*
X11274044Y1273606D01*
X11226952Y1273606D01*
X11224260Y1276248D01*
X11167364Y1276248D01*
X11167364Y1221587D01*
X11278971Y1221587D01*
X11278971Y1268679D01*
X11281613Y1271371D01*
X11328704Y1271371D01*
X11331397Y1268679D01*
X11331397Y1221587D01*
X11328704Y1218895D01*
X11281613Y1218895D01*
X11278971Y1221587D01*
X11167364Y1221587D01*
X11167364Y1219352D01*
X11170005Y1216660D01*
X11274044Y1216660D01*
X11276736Y1214018D01*
X11276736Y1112215D01*
X11274044Y1109522D01*
X11224717Y1109522D01*
X11222024Y1106830D01*
X11222024Y1057503D01*
X11278971Y1057503D01*
X11278971Y1104595D01*
X11281613Y1107287D01*
X11328704Y1107287D01*
X11331397Y1104595D01*
X11331397Y1057503D01*
X11328704Y1054862D01*
X11281613Y1054862D01*
X11278971Y1057503D01*
X11222024Y1057503D01*
X11222024Y1055268D01*
X11224717Y1052626D01*
X11274044Y1052626D01*
X11276736Y1049934D01*
X11276736Y893470D01*
X11274044Y890778D01*
X11172240Y890778D01*
X11169599Y893470D01*
X11169599Y942797D01*
X11166906Y945489D01*
X11005972Y945489D01*
X11003280Y942797D01*
X11003280Y891235D01*
X11005972Y888542D01*
X11055299Y888542D01*
X11057991Y885850D01*
X11057991Y838758D01*
X11278971Y838758D01*
X11278971Y885850D01*
X11281613Y888542D01*
X11383416Y888542D01*
X11386108Y885850D01*
X11386108Y838758D01*
X11435181Y838758D01*
X11435181Y885850D01*
X11437874Y888542D01*
X11484965Y888542D01*
X11487658Y885850D01*
X11487658Y838758D01*
X11484965Y836117D01*
X11437874Y836117D01*
X11435181Y838758D01*
X11386108Y838758D01*
X11383416Y836117D01*
X11281613Y836117D01*
X11278971Y838758D01*
X11057991Y838758D01*
X11057991Y784098D01*
X11055299Y781405D01*
X11008207Y781405D01*
X11005515Y784098D01*
X11005515Y833424D01*
X11002822Y836117D01*
X10953496Y836117D01*
X10950854Y838758D01*
X10950854Y888085D01*
X10948162Y890778D01*
X10898835Y890778D01*
X10896142Y893470D01*
X10896142Y940562D01*
X10898835Y943254D01*
X10948162Y943254D01*
X10950854Y945896D01*
X10950854Y997458D01*
X10948162Y1000150D01*
X10898835Y1000150D01*
X10896142Y1002842D01*
X10896142Y1052169D01*
X10893450Y1054862D01*
X10844123Y1054862D01*
X10841431Y1057503D01*
X10841431Y1104595D01*
X10844123Y1107287D01*
X10893450Y1107287D01*
X10896142Y1109980D01*
X10896142Y1161542D01*
X10893450Y1164234D01*
X10844123Y1164234D01*
X10841431Y1166876D01*
X10841431Y1214018D01*
X10844123Y1216660D01*
X10948162Y1216660D01*
X10950854Y1219352D01*
X10950854Y1268679D01*
X10953496Y1271371D01*
X11002822Y1271371D01*
X11005515Y1274064D01*
X11005515Y1325626D01*
X11002822Y1328267D01*
X10898835Y1328267D01*
X10896142Y1330960D01*
X10896142Y1378051D01*
X10898835Y1380744D01*
X10948162Y1380744D01*
X10950854Y1383436D01*
X10950854Y1424940D01*
X10953496Y1427632D01*
X11002822Y1427632D01*
X11005515Y1430274D01*
X11005515Y1481836D01*
X11002822Y1484528D01*
X10951260Y1484528D01*
X10948619Y1481836D01*
X10948619Y1432509D01*
X10945926Y1429867D01*
X10898835Y1429867D01*
X10896142Y1432509D01*
X10896142Y1534312D01*
X10898835Y1537004D01*
X11002822Y1537004D01*
X11005515Y1539646D01*
X11005515Y1588973D01*
X11008207Y1591665D01*
X11057534Y1591665D01*
X11060226Y1594358D01*
X11060226Y1700580D01*
X11057534Y1703273D01*
X11008207Y1703273D01*
X11005515Y1705965D01*
X11005515Y1753057D01*
X11008207Y1755749D01*
X11057534Y1755749D01*
X11060226Y1758391D01*
X11060226Y1809953D01*
X11057534Y1812645D01*
X11008207Y1812645D01*
X11005515Y1815338D01*
X11005515Y1864664D01*
X11002822Y1867357D01*
X10898835Y1867357D01*
X10896142Y1869998D01*
X10896142Y1919325D01*
X10893450Y1922018D01*
X10844123Y1922018D01*
X10841431Y1924710D01*
X10841431Y2026513D01*
X10844123Y2029155D01*
X10891215Y2029155D01*
X10893907Y2026513D01*
X10893907Y1977186D01*
X10896600Y1974494D01*
X11000587Y1974494D01*
X11003280Y1971802D01*
X11003280Y1922475D01*
X11005972Y1919782D01*
X11109960Y1919782D01*
X11112652Y1917141D01*
X11112652Y1703730D01*
X11115344Y1701038D01*
X11221567Y1701038D01*
X11224260Y1703730D01*
X11224260Y1755292D01*
X11221567Y1757984D01*
X11172240Y1757984D01*
X11169599Y1760626D01*
X11169599Y1862429D01*
X11172240Y1865122D01*
X11221567Y1865122D01*
X11224260Y1867763D01*
X11224260Y1919325D01*
X11221567Y1922018D01*
X11172240Y1922018D01*
X11169599Y1924710D01*
X11169599Y1974037D01*
X11166906Y1976729D01*
X11008207Y1976729D01*
X11005515Y1979371D01*
X11005515Y2073351D01*
X11008207Y2076043D01*
X11109960Y2076043D01*
X11112652Y2073351D01*
X11112652Y2031847D01*
X11115344Y2029155D01*
X11166906Y2029155D01*
X11169599Y2031847D01*
X11169599Y2130298D01*
X11166906Y2132990D01*
X11062868Y2132990D01*
X11060226Y2135632D01*
X11060226Y2182723D01*
X11062868Y2185416D01*
X11112195Y2185416D01*
X11114887Y2188108D01*
X11114887Y2292096D01*
X11117580Y2294788D01*
X11166906Y2294788D01*
X11169599Y2297480D01*
X11169599Y2510891D01*
X11172240Y2513533D01*
X11219332Y2513533D01*
X11222024Y2510891D01*
X11222024Y2352141D01*
X11224717Y2349500D01*
X11276279Y2349500D01*
X11278971Y2352141D01*
X11278971Y2401468D01*
X11281613Y2404160D01*
X11328704Y2404160D01*
X11331397Y2401468D01*
X11331397Y2354376D01*
X11388344Y2354376D01*
X11388344Y2401468D01*
X11390985Y2404160D01*
X11430304Y2404160D01*
X11432946Y2401468D01*
X11432946Y2354376D01*
X11430304Y2351735D01*
X11390985Y2351735D01*
X11388344Y2354376D01*
X11331397Y2354376D01*
X11331397Y2297480D01*
X11334089Y2294788D01*
X11432540Y2294788D01*
X11435181Y2297480D01*
X11435181Y2346807D01*
X11437874Y2349500D01*
X11487200Y2349500D01*
X11489893Y2352141D01*
X11489893Y2403703D01*
X11487200Y2406396D01*
X11437874Y2406396D01*
X11435181Y2409088D01*
X11435181Y2456180D01*
X11437874Y2458872D01*
X11487200Y2458872D01*
X11489893Y2461514D01*
X11489893Y2510891D01*
X11492585Y2513533D01*
X11541912Y2513533D01*
X11544554Y2516225D01*
X11544554Y2567787D01*
X11541912Y2570480D01*
X11388750Y2570480D01*
X11386108Y2567787D01*
X11386108Y2463749D01*
X11383416Y2461107D01*
X11281613Y2461107D01*
X11278971Y2463749D01*
X11278971Y2510891D01*
X11281613Y2513533D01*
X11330940Y2513533D01*
X11333632Y2516225D01*
X11333632Y2677160D01*
X11330940Y2679852D01*
X11281613Y2679852D01*
X11278971Y2682494D01*
X11278971Y2725623D01*
X11222024Y2725623D01*
X11222024Y2627833D01*
X11219332Y2625140D01*
X11172240Y2625140D01*
X11169599Y2627833D01*
X11169599Y2725623D01*
G37*
G36*
X11870486Y2725623D02*
G01*
X11870486Y2680309D01*
X11873128Y2677617D01*
X11977166Y2677617D01*
X11979859Y2674924D01*
X11979859Y2627833D01*
X11977166Y2625140D01*
X11927840Y2625140D01*
X11925147Y2622499D01*
X11925147Y2570937D01*
X11927840Y2568244D01*
X12034062Y2568244D01*
X12036755Y2570937D01*
X12036755Y2677160D01*
X12034062Y2679852D01*
X11984736Y2679852D01*
X11982094Y2682494D01*
X11982094Y2725623D01*
G37*
G36*
X11542318Y2725623D02*
G01*
X11542318Y2680309D01*
X11545011Y2677617D01*
X11596573Y2677617D01*
X11599265Y2680309D01*
X11599265Y2725623D01*
G37*
G36*
X11386108Y2725623D02*
G01*
X11386108Y2625598D01*
X11388750Y2622905D01*
X11432540Y2622905D01*
X11435181Y2625598D01*
X11435181Y2674924D01*
X11437874Y2677617D01*
X11487200Y2677617D01*
X11489893Y2680309D01*
X11489893Y2725623D01*
G37*
G36*
X12412218Y2679852D02*
G01*
X12409525Y2677160D01*
X12409525Y2463749D01*
X12466472Y2463749D01*
X12466472Y2620264D01*
X12469114Y2622905D01*
X12625578Y2622905D01*
X12628270Y2620264D01*
X12628270Y2463749D01*
X12625578Y2461107D01*
X12469114Y2461107D01*
X12466472Y2463749D01*
X12409525Y2463749D01*
X12409525Y2406853D01*
X12412218Y2404160D01*
X12682524Y2404160D01*
X12685217Y2406853D01*
X12685217Y2677160D01*
X12682524Y2679852D01*
G37*
G36*
X10787227Y2679852D02*
G01*
X10784535Y2677160D01*
X10784535Y2463749D01*
X10841431Y2463749D01*
X10841431Y2620264D01*
X10844123Y2622905D01*
X11000587Y2622905D01*
X11003280Y2620264D01*
X11003280Y2463749D01*
X11000587Y2461107D01*
X10844123Y2461107D01*
X10841431Y2463749D01*
X10784535Y2463749D01*
X10784535Y2406853D01*
X10787227Y2404160D01*
X11057534Y2404160D01*
X11060226Y2406853D01*
X11060226Y2677160D01*
X11057534Y2679852D01*
G37*
G36*
X11005972Y1164234D02*
G01*
X11003280Y1161542D01*
X11003280Y1057503D01*
X11060226Y1057503D01*
X11060226Y1104595D01*
X11062868Y1107287D01*
X11109960Y1107287D01*
X11112652Y1104595D01*
X11112652Y1057503D01*
X11109960Y1054862D01*
X11062868Y1054862D01*
X11060226Y1057503D01*
X11003280Y1057503D01*
X11003280Y1000607D01*
X11005972Y997915D01*
X11166906Y997915D01*
X11169599Y1000607D01*
X11169599Y1161542D01*
X11166906Y1164234D01*
G37*
G36*
X12412218Y1054862D02*
G01*
X12409525Y1052169D01*
X12409525Y838758D01*
X12466472Y838758D01*
X12466472Y995222D01*
X12469114Y997915D01*
X12625578Y997915D01*
X12628270Y995222D01*
X12628270Y838758D01*
X12625578Y836117D01*
X12469114Y836117D01*
X12466472Y838758D01*
X12409525Y838758D01*
X12409525Y781862D01*
X12412218Y779170D01*
X12682524Y779170D01*
X12685217Y781862D01*
X12685217Y1052169D01*
X12682524Y1054862D01*
G37*
D10*
X4958821Y5272222D02*
G01*
X4969212Y5267025D01*
X4979603Y5256634D01*
X4984798Y5246245D01*
X4984798Y5225463D01*
X4979603Y5215072D01*
X4969212Y5204680D01*
X4958821Y5199484D01*
X4943233Y5194289D01*
X4917257Y5194289D01*
X4901671Y5199484D01*
X4891280Y5204680D01*
X4880889Y5215072D01*
X4875695Y5225463D01*
X4875695Y5246245D01*
X4880889Y5256634D01*
X4891280Y5267025D01*
X4901671Y5272222D01*
X4917257Y5272222D01*
X4917257Y5246245D02*
G01*
X4917257Y5272222D01*
X4984798Y5306512D02*
G01*
X4875695Y5306512D01*
X4984798Y5306512D02*
G01*
X4984798Y5353270D01*
X4979603Y5368856D01*
X4974407Y5374053D01*
X4964015Y5379247D01*
X4953624Y5379247D01*
X4943233Y5374053D01*
X4938039Y5368856D01*
X4932845Y5353270D01*
X4932845Y5306512D01*
X4932845Y5342879D02*
G01*
X4875695Y5379247D01*
X4984798Y5413537D02*
G01*
X4875695Y5413537D01*
X4984798Y5413537D02*
G01*
X4984798Y5449905D01*
X4979603Y5465493D01*
X4969212Y5475884D01*
X4958821Y5481078D01*
X4943233Y5486275D01*
X4917257Y5486275D01*
X4901671Y5481078D01*
X4891280Y5475884D01*
X4880889Y5465493D01*
X4875695Y5449905D01*
X4875695Y5413537D01*
X4969212Y5727344D02*
G01*
X4875695Y5727344D01*
X4922453Y5680585D02*
G01*
X4922453Y5774103D01*
X11613144Y10338810D02*
G01*
X11613144Y10229707D01*
X11613144Y10281660D02*
G01*
X11597558Y10297246D01*
X11587167Y10302443D01*
X11571579Y10302443D01*
X11561188Y10297246D01*
X11555994Y10281660D01*
X11555994Y10229707D01*
X11506118Y10338810D02*
G01*
X11506118Y10250487D01*
X11500921Y10234902D01*
X11490530Y10229707D01*
X11480139Y10229707D01*
X11521704Y10302443D02*
G01*
X11485336Y10302443D01*
X11430264Y10338810D02*
G01*
X11430264Y10250487D01*
X11425069Y10234902D01*
X11414678Y10229707D01*
X11404287Y10229707D01*
X11445849Y10302443D02*
G01*
X11409481Y10302443D01*
X11369997Y10302443D02*
G01*
X11369997Y10193337D01*
X11369997Y10286857D02*
G01*
X11359606Y10297246D01*
X11349215Y10302443D01*
X11333629Y10302443D01*
X11323238Y10297246D01*
X11312847Y10286857D01*
X11307650Y10271269D01*
X11307650Y10260878D01*
X11312847Y10245293D01*
X11323238Y10234902D01*
X11333629Y10229707D01*
X11349215Y10229707D01*
X11359606Y10234902D01*
X11369997Y10245293D01*
X11216210Y10286857D02*
G01*
X11221407Y10297246D01*
X11236993Y10302443D01*
X11252578Y10302443D01*
X11268166Y10297246D01*
X11273360Y10286857D01*
X11268166Y10276466D01*
X11257775Y10271269D01*
X11231798Y10266075D01*
X11221407Y10260878D01*
X11216210Y10250487D01*
X11216210Y10245293D01*
X11221407Y10234902D01*
X11236993Y10229707D01*
X11252578Y10229707D01*
X11268166Y10234902D01*
X11273360Y10245293D01*
X11176726Y10292052D02*
G01*
X11181920Y10286857D01*
X11176726Y10281660D01*
X11171529Y10286857D01*
X11176726Y10292052D01*
X11176726Y10255684D02*
G01*
X11181920Y10250487D01*
X11176726Y10245293D01*
X11171529Y10250487D01*
X11176726Y10255684D01*
X11043721Y10359593D02*
G01*
X11137239Y10193337D01*
X10915914Y10359593D02*
G01*
X11009431Y10193337D01*
X10819279Y10302443D02*
G01*
X10819279Y10219316D01*
X10824474Y10203728D01*
X10829668Y10198534D01*
X10840059Y10193337D01*
X10855647Y10193337D01*
X10866038Y10198534D01*
X10819279Y10286857D02*
G01*
X10829668Y10297246D01*
X10840059Y10302443D01*
X10855647Y10302443D01*
X10866038Y10297246D01*
X10876429Y10286857D01*
X10881624Y10271269D01*
X10881624Y10260878D01*
X10876429Y10245293D01*
X10866038Y10234902D01*
X10855647Y10229707D01*
X10840059Y10229707D01*
X10829668Y10234902D01*
X10819279Y10245293D01*
X10784989Y10338810D02*
G01*
X10779793Y10333616D01*
X10774598Y10338810D01*
X10779793Y10344007D01*
X10784989Y10338810D01*
X10779793Y10302443D02*
G01*
X10779793Y10229707D01*
X10724720Y10338810D02*
G01*
X10724720Y10250487D01*
X10719526Y10234902D01*
X10709135Y10229707D01*
X10698744Y10229707D01*
X10740308Y10302443D02*
G01*
X10703938Y10302443D01*
X10664454Y10338810D02*
G01*
X10664454Y10229707D01*
X10664454Y10281660D02*
G01*
X10648868Y10297246D01*
X10638477Y10302443D01*
X10622889Y10302443D01*
X10612498Y10297246D01*
X10607304Y10281660D01*
X10607304Y10229707D01*
X10573014Y10302443D02*
G01*
X10573014Y10250487D01*
X10567819Y10234902D01*
X10557428Y10229707D01*
X10541840Y10229707D01*
X10531449Y10234902D01*
X10515864Y10250487D01*
X10515864Y10302443D02*
G01*
X10515864Y10229707D01*
X10481574Y10338810D02*
G01*
X10481574Y10229707D01*
X10481574Y10286857D02*
G01*
X10471183Y10297246D01*
X10460791Y10302443D01*
X10445206Y10302443D01*
X10434815Y10297246D01*
X10424424Y10286857D01*
X10419229Y10271269D01*
X10419229Y10260878D01*
X10424424Y10245293D01*
X10434815Y10234902D01*
X10445206Y10229707D01*
X10460791Y10229707D01*
X10471183Y10234902D01*
X10481574Y10245293D01*
X10379743Y10255684D02*
G01*
X10384939Y10250487D01*
X10379743Y10245293D01*
X10374548Y10250487D01*
X10379743Y10255684D01*
X10277911Y10286857D02*
G01*
X10288303Y10297246D01*
X10298694Y10302443D01*
X10314279Y10302443D01*
X10324670Y10297246D01*
X10335061Y10286857D01*
X10340258Y10271269D01*
X10340258Y10260878D01*
X10335061Y10245293D01*
X10324670Y10234902D01*
X10314279Y10229707D01*
X10298694Y10229707D01*
X10288303Y10234902D01*
X10277911Y10245293D01*
X10217645Y10302443D02*
G01*
X10228036Y10297246D01*
X10238427Y10286857D01*
X10243621Y10271269D01*
X10243621Y10260878D01*
X10238427Y10245293D01*
X10228036Y10234902D01*
X10217645Y10229707D01*
X10202059Y10229707D01*
X10191668Y10234902D01*
X10181277Y10245293D01*
X10176080Y10260878D01*
X10176080Y10271269D01*
X10181277Y10286857D01*
X10191668Y10297246D01*
X10202059Y10302443D01*
X10217645Y10302443D01*
X10141790Y10302443D02*
G01*
X10141790Y10229707D01*
X10141790Y10281660D02*
G01*
X10126205Y10297246D01*
X10115814Y10302443D01*
X10100228Y10302443D01*
X10089837Y10297246D01*
X10084640Y10281660D01*
X10084640Y10229707D01*
X10084640Y10281660D02*
G01*
X10069055Y10297246D01*
X10058664Y10302443D01*
X10043078Y10302443D01*
X10032687Y10297246D01*
X10027490Y10281660D01*
X10027490Y10229707D01*
X9899683Y10359593D02*
G01*
X9993200Y10193337D01*
X9865393Y10338810D02*
G01*
X9865393Y10229707D01*
X9865393Y10286857D02*
G01*
X9855001Y10297246D01*
X9844610Y10302443D01*
X9829025Y10302443D01*
X9818634Y10297246D01*
X9808243Y10286857D01*
X9803048Y10271269D01*
X9803048Y10260878D01*
X9808243Y10245293D01*
X9818634Y10234902D01*
X9829025Y10229707D01*
X9844610Y10229707D01*
X9855001Y10234902D01*
X9865393Y10245293D01*
X9768758Y10271269D02*
G01*
X9706411Y10271269D01*
X9706411Y10281660D01*
X9711608Y10292052D01*
X9716803Y10297246D01*
X9727194Y10302443D01*
X9742779Y10302443D01*
X9753170Y10297246D01*
X9763561Y10286857D01*
X9768758Y10271269D01*
X9768758Y10260878D01*
X9763561Y10245293D01*
X9753170Y10234902D01*
X9742779Y10229707D01*
X9727194Y10229707D01*
X9716803Y10234902D01*
X9706411Y10245293D01*
X9672121Y10302443D02*
G01*
X9672121Y10229707D01*
X9672121Y10271269D02*
G01*
X9666927Y10286857D01*
X9656536Y10297246D01*
X9646145Y10302443D01*
X9630559Y10302443D01*
X9596269Y10302443D02*
G01*
X9596269Y10229707D01*
X9596269Y10271269D02*
G01*
X9591073Y10286857D01*
X9580681Y10297246D01*
X9570290Y10302443D01*
X9554705Y10302443D01*
X9520415Y10302443D02*
G01*
X9520415Y10250487D01*
X9515218Y10234902D01*
X9504829Y10229707D01*
X9489241Y10229707D01*
X9478850Y10234902D01*
X9463265Y10250487D01*
X9463265Y10302443D02*
G01*
X9463265Y10229707D01*
X9428975Y10276466D02*
G01*
X9335457Y10276466D01*
X9238820Y10302443D02*
G01*
X9238820Y10219316D01*
X9244017Y10203728D01*
X9249211Y10198534D01*
X9259603Y10193337D01*
X9275188Y10193337D01*
X9285579Y10198534D01*
X9238820Y10286857D02*
G01*
X9249211Y10297246D01*
X9259603Y10302443D01*
X9275188Y10302443D01*
X9285579Y10297246D01*
X9295970Y10286857D01*
X9301167Y10271269D01*
X9301167Y10260878D01*
X9295970Y10245293D01*
X9285579Y10234902D01*
X9275188Y10229707D01*
X9259603Y10229707D01*
X9249211Y10234902D01*
X9238820Y10245293D01*
X9111013Y10359593D02*
G01*
X9204530Y10193337D01*
X9076723Y10302443D02*
G01*
X9076723Y10229707D01*
X9076723Y10271269D02*
G01*
X9071528Y10286857D01*
X9061137Y10297246D01*
X9050746Y10302443D01*
X9035158Y10302443D01*
X8938524Y10286857D02*
G01*
X8948915Y10297246D01*
X8959306Y10302443D01*
X8974891Y10302443D01*
X8985283Y10297246D01*
X8995674Y10286857D01*
X9000868Y10271269D01*
X9000868Y10260878D01*
X8995674Y10245293D01*
X8985283Y10234902D01*
X8974891Y10229707D01*
X8959306Y10229707D01*
X8948915Y10234902D01*
X8938524Y10245293D01*
X8904234Y10276466D02*
G01*
X8810716Y10276466D01*
X8776426Y10302443D02*
G01*
X8776426Y10193337D01*
X8776426Y10286857D02*
G01*
X8766035Y10297246D01*
X8755644Y10302443D01*
X8740058Y10302443D01*
X8729667Y10297246D01*
X8719276Y10286857D01*
X8714079Y10271269D01*
X8714079Y10260878D01*
X8719276Y10245293D01*
X8729667Y10234902D01*
X8740058Y10229707D01*
X8755644Y10229707D01*
X8766035Y10234902D01*
X8776426Y10245293D01*
X8679789Y10338810D02*
G01*
X8679789Y10229707D01*
X8583155Y10302443D02*
G01*
X8583155Y10229707D01*
X8583155Y10286857D02*
G01*
X8593546Y10297246D01*
X8603937Y10302443D01*
X8619523Y10302443D01*
X8629914Y10297246D01*
X8640305Y10286857D01*
X8645499Y10271269D01*
X8645499Y10260878D01*
X8640305Y10245293D01*
X8629914Y10234902D01*
X8619523Y10229707D01*
X8603937Y10229707D01*
X8593546Y10234902D01*
X8583155Y10245293D01*
X8548865Y10302443D02*
G01*
X8548865Y10229707D01*
X8548865Y10281660D02*
G01*
X8533279Y10297246D01*
X8522888Y10302443D01*
X8507300Y10302443D01*
X8496909Y10297246D01*
X8491715Y10281660D01*
X8491715Y10229707D01*
X8457425Y10271269D02*
G01*
X8395078Y10271269D01*
X8395078Y10281660D01*
X8400275Y10292052D01*
X8405469Y10297246D01*
X8415860Y10302443D01*
X8431448Y10302443D01*
X8441839Y10297246D01*
X8452228Y10286857D01*
X8457425Y10271269D01*
X8457425Y10260878D01*
X8452228Y10245293D01*
X8441839Y10234902D01*
X8431448Y10229707D01*
X8415860Y10229707D01*
X8405469Y10234902D01*
X8395078Y10245293D01*
X8254801Y10302443D02*
G01*
X8265193Y10297246D01*
X8275584Y10286857D01*
X8280778Y10271269D01*
X8280778Y10260878D01*
X8275584Y10245293D01*
X8265193Y10234902D01*
X8254801Y10229707D01*
X8239216Y10229707D01*
X8228825Y10234902D01*
X8218434Y10245293D01*
X8213239Y10260878D01*
X8213239Y10271269D01*
X8218434Y10286857D01*
X8228825Y10297246D01*
X8239216Y10302443D01*
X8254801Y10302443D01*
X8178949Y10302443D02*
G01*
X8178949Y10250487D01*
X8173753Y10234902D01*
X8163361Y10229707D01*
X8147776Y10229707D01*
X8137385Y10234902D01*
X8121799Y10250487D01*
X8121799Y10302443D02*
G01*
X8121799Y10229707D01*
X7945153Y10302443D02*
G01*
X7945153Y10219316D01*
X7950349Y10203728D01*
X7955544Y10198534D01*
X7965935Y10193337D01*
X7981520Y10193337D01*
X7991911Y10198534D01*
X7945153Y10286857D02*
G01*
X7955544Y10297246D01*
X7965935Y10302443D01*
X7981520Y10302443D01*
X7991911Y10297246D01*
X8002303Y10286857D01*
X8007499Y10271269D01*
X8007499Y10260878D01*
X8002303Y10245293D01*
X7991911Y10234902D01*
X7981520Y10229707D01*
X7965935Y10229707D01*
X7955544Y10234902D01*
X7945153Y10245293D01*
X7848518Y10302443D02*
G01*
X7848518Y10229707D01*
X7848518Y10286857D02*
G01*
X7858909Y10297246D01*
X7869298Y10302443D01*
X7884886Y10302443D01*
X7895277Y10297246D01*
X7905668Y10286857D01*
X7910863Y10271269D01*
X7910863Y10260878D01*
X7905668Y10245293D01*
X7895277Y10234902D01*
X7884886Y10229707D01*
X7869298Y10229707D01*
X7858909Y10234902D01*
X7848518Y10245293D01*
X7814228Y10271269D02*
G01*
X7751881Y10271269D01*
X7751881Y10281660D01*
X7757078Y10292052D01*
X7762273Y10297246D01*
X7772664Y10302443D01*
X7788249Y10302443D01*
X7798640Y10297246D01*
X7809031Y10286857D01*
X7814228Y10271269D01*
X7814228Y10260878D01*
X7809031Y10245293D01*
X7798640Y10234902D01*
X7788249Y10229707D01*
X7772664Y10229707D01*
X7762273Y10234902D01*
X7751881Y10245293D01*
X7717591Y10338810D02*
G01*
X7717591Y10229707D01*
X7683301Y10276466D02*
G01*
X7589784Y10276466D01*
X7555494Y10338810D02*
G01*
X7555494Y10229707D01*
X7555494Y10286857D02*
G01*
X7545103Y10297246D01*
X7534711Y10302443D01*
X7519126Y10302443D01*
X7508735Y10297246D01*
X7498344Y10286857D01*
X7493149Y10271269D01*
X7493149Y10260878D01*
X7498344Y10245293D01*
X7508735Y10234902D01*
X7519126Y10229707D01*
X7534711Y10229707D01*
X7545103Y10234902D01*
X7555494Y10245293D01*
X7458859Y10271269D02*
G01*
X7396513Y10271269D01*
X7396513Y10281660D01*
X7401709Y10292052D01*
X7406904Y10297246D01*
X7417295Y10302443D01*
X7432880Y10302443D01*
X7443271Y10297246D01*
X7453663Y10286857D01*
X7458859Y10271269D01*
X7458859Y10260878D01*
X7453663Y10245293D01*
X7443271Y10234902D01*
X7432880Y10229707D01*
X7417295Y10229707D01*
X7406904Y10234902D01*
X7396513Y10245293D01*
X7362223Y10302443D02*
G01*
X7362223Y10229707D01*
X7362223Y10271269D02*
G01*
X7357028Y10286857D01*
X7346637Y10297246D01*
X7336246Y10302443D01*
X7320658Y10302443D01*
X7286368Y10302443D02*
G01*
X7286368Y10229707D01*
X7286368Y10271269D02*
G01*
X7281174Y10286857D01*
X7270783Y10297246D01*
X7260391Y10302443D01*
X7244806Y10302443D01*
X7210516Y10302443D02*
G01*
X7210516Y10250487D01*
X7205319Y10234902D01*
X7194928Y10229707D01*
X7179343Y10229707D01*
X7168951Y10234902D01*
X7153366Y10250487D01*
X7153366Y10302443D02*
G01*
X7153366Y10229707D01*
X7113879Y10255684D02*
G01*
X7119076Y10250487D01*
X7113879Y10245293D01*
X7108685Y10250487D01*
X7113879Y10255684D01*
X7012048Y10286857D02*
G01*
X7022439Y10297246D01*
X7032830Y10302443D01*
X7048418Y10302443D01*
X7058809Y10297246D01*
X7069198Y10286857D01*
X7074395Y10271269D01*
X7074395Y10260878D01*
X7069198Y10245293D01*
X7058809Y10234902D01*
X7048418Y10229707D01*
X7032830Y10229707D01*
X7022439Y10234902D01*
X7012048Y10245293D01*
X6951781Y10302443D02*
G01*
X6962173Y10297246D01*
X6972564Y10286857D01*
X6977758Y10271269D01*
X6977758Y10260878D01*
X6972564Y10245293D01*
X6962173Y10234902D01*
X6951781Y10229707D01*
X6936196Y10229707D01*
X6925805Y10234902D01*
X6915414Y10245293D01*
X6910219Y10260878D01*
X6910219Y10271269D01*
X6915414Y10286857D01*
X6925805Y10297246D01*
X6936196Y10302443D01*
X6951781Y10302443D01*
X6875929Y10302443D02*
G01*
X6875929Y10229707D01*
X6875929Y10281660D02*
G01*
X6860341Y10297246D01*
X6849950Y10302443D01*
X6834365Y10302443D01*
X6823974Y10297246D01*
X6818779Y10281660D01*
X6818779Y10229707D01*
X6818779Y10281660D02*
G01*
X6803191Y10297246D01*
X6792800Y10302443D01*
X6777215Y10302443D01*
X6766824Y10297246D01*
X6761629Y10281660D01*
X6761629Y10229707D01*
X11899869Y10542010D02*
G01*
X11899869Y10432907D01*
X11899869Y10542010D02*
G01*
X11853110Y10542010D01*
X11837525Y10536816D01*
X11832328Y10531619D01*
X11827134Y10521228D01*
X11827134Y10505643D01*
X11832328Y10495252D01*
X11837525Y10490057D01*
X11853110Y10484860D01*
X11899869Y10484860D01*
X11792844Y10505643D02*
G01*
X11792844Y10432907D01*
X11792844Y10474469D02*
G01*
X11787647Y10490057D01*
X11777256Y10500446D01*
X11766864Y10505643D01*
X11751279Y10505643D01*
X11691012Y10505643D02*
G01*
X11701404Y10500446D01*
X11711795Y10490057D01*
X11716989Y10474469D01*
X11716989Y10464078D01*
X11711795Y10448493D01*
X11701404Y10438102D01*
X11691012Y10432907D01*
X11675424Y10432907D01*
X11665033Y10438102D01*
X11654645Y10448493D01*
X11649448Y10464078D01*
X11649448Y10474469D01*
X11654645Y10490057D01*
X11665033Y10500446D01*
X11675424Y10505643D01*
X11691012Y10505643D01*
X11594376Y10542010D02*
G01*
X11589181Y10536816D01*
X11583984Y10542010D01*
X11589181Y10547207D01*
X11594376Y10542010D01*
X11589181Y10505643D02*
G01*
X11589181Y10417319D01*
X11594376Y10401734D01*
X11604767Y10396537D01*
X11615158Y10396537D01*
X11549694Y10474469D02*
G01*
X11487350Y10474469D01*
X11487350Y10484860D01*
X11492544Y10495252D01*
X11497741Y10500446D01*
X11508132Y10505643D01*
X11523718Y10505643D01*
X11534109Y10500446D01*
X11544500Y10490057D01*
X11549694Y10474469D01*
X11549694Y10464078D01*
X11544500Y10448493D01*
X11534109Y10438102D01*
X11523718Y10432907D01*
X11508132Y10432907D01*
X11497741Y10438102D01*
X11487350Y10448493D01*
X11437475Y10542010D02*
G01*
X11437475Y10453687D01*
X11432278Y10438102D01*
X11421887Y10432907D01*
X11411496Y10432907D01*
X11453060Y10505643D02*
G01*
X11416692Y10505643D01*
X11271219Y10505643D02*
G01*
X11281610Y10500446D01*
X11292001Y10490057D01*
X11297196Y10474469D01*
X11297196Y10464078D01*
X11292001Y10448493D01*
X11281610Y10438102D01*
X11271219Y10432907D01*
X11255634Y10432907D01*
X11245242Y10438102D01*
X11234851Y10448493D01*
X11229654Y10464078D01*
X11229654Y10474469D01*
X11234851Y10490057D01*
X11245242Y10500446D01*
X11255634Y10505643D01*
X11271219Y10505643D01*
X11195364Y10505643D02*
G01*
X11195364Y10396537D01*
X11195364Y10490057D02*
G01*
X11184973Y10500446D01*
X11174585Y10505643D01*
X11158997Y10505643D01*
X11148606Y10500446D01*
X11138214Y10490057D01*
X11133020Y10474469D01*
X11133020Y10464078D01*
X11138214Y10448493D01*
X11148606Y10438102D01*
X11158997Y10432907D01*
X11174585Y10432907D01*
X11184973Y10438102D01*
X11195364Y10448493D01*
X11098730Y10474469D02*
G01*
X11036383Y10474469D01*
X11036383Y10484860D01*
X11041580Y10495252D01*
X11046774Y10500446D01*
X11057166Y10505643D01*
X11072754Y10505643D01*
X11083145Y10500446D01*
X11093533Y10490057D01*
X11098730Y10474469D01*
X11098730Y10464078D01*
X11093533Y10448493D01*
X11083145Y10438102D01*
X11072754Y10432907D01*
X11057166Y10432907D01*
X11046774Y10438102D01*
X11036383Y10448493D01*
X11002093Y10505643D02*
G01*
X11002093Y10432907D01*
X11002093Y10484860D02*
G01*
X10986508Y10500446D01*
X10976117Y10505643D01*
X10960531Y10505643D01*
X10950140Y10500446D01*
X10944943Y10484860D01*
X10944943Y10432907D01*
X10773493Y10490057D02*
G01*
X10778690Y10500446D01*
X10794276Y10505643D01*
X10809864Y10505643D01*
X10825449Y10500446D01*
X10830643Y10490057D01*
X10825449Y10479666D01*
X10815058Y10474469D01*
X10789081Y10469275D01*
X10778690Y10464078D01*
X10773493Y10453687D01*
X10773493Y10448493D01*
X10778690Y10438102D01*
X10794276Y10432907D01*
X10809864Y10432907D01*
X10825449Y10438102D01*
X10830643Y10448493D01*
X10713227Y10505643D02*
G01*
X10723618Y10500446D01*
X10734009Y10490057D01*
X10739203Y10474469D01*
X10739203Y10464078D01*
X10734009Y10448493D01*
X10723618Y10438102D01*
X10713227Y10432907D01*
X10697641Y10432907D01*
X10687250Y10438102D01*
X10676859Y10448493D01*
X10671665Y10464078D01*
X10671665Y10474469D01*
X10676859Y10490057D01*
X10687250Y10500446D01*
X10697641Y10505643D01*
X10713227Y10505643D01*
X10637375Y10505643D02*
G01*
X10637375Y10453687D01*
X10632178Y10438102D01*
X10621787Y10432907D01*
X10606201Y10432907D01*
X10595810Y10438102D01*
X10580225Y10453687D01*
X10580225Y10505643D02*
G01*
X10580225Y10432907D01*
X10545935Y10505643D02*
G01*
X10545935Y10432907D01*
X10545935Y10474469D02*
G01*
X10540738Y10490057D01*
X10530347Y10500446D01*
X10519956Y10505643D01*
X10504370Y10505643D01*
X10407733Y10490057D02*
G01*
X10418124Y10500446D01*
X10428516Y10505643D01*
X10444104Y10505643D01*
X10454495Y10500446D01*
X10464883Y10490057D01*
X10470080Y10474469D01*
X10470080Y10464078D01*
X10464883Y10448493D01*
X10454495Y10438102D01*
X10444104Y10432907D01*
X10428516Y10432907D01*
X10418124Y10438102D01*
X10407733Y10448493D01*
X10373443Y10474469D02*
G01*
X10311099Y10474469D01*
X10311099Y10484860D01*
X10316293Y10495252D01*
X10321490Y10500446D01*
X10331881Y10505643D01*
X10347467Y10505643D01*
X10357858Y10500446D01*
X10368249Y10490057D01*
X10373443Y10474469D01*
X10373443Y10464078D01*
X10368249Y10448493D01*
X10357858Y10438102D01*
X10347467Y10432907D01*
X10331881Y10432907D01*
X10321490Y10438102D01*
X10311099Y10448493D01*
X9787808Y8776710D02*
G01*
X9839761Y8667607D01*
X9860544Y8776710D02*
G01*
X9787808Y8776710D01*
X9748321Y8693584D02*
G01*
X9753518Y8688387D01*
X9748321Y8683193D01*
X9743127Y8688387D01*
X9748321Y8693584D01*
X9656881Y8776710D02*
G01*
X9708837Y8703975D01*
X9630905Y8703975D01*
X9656881Y8776710D02*
G01*
X9656881Y8667607D01*
X9596615Y8776710D02*
G01*
X9555050Y8667607D01*
X9513488Y8776710D02*
G01*
X9555050Y8667607D01*
X9399188Y8776710D02*
G01*
X9399188Y8667607D01*
X9399188Y8667607D02*
G01*
X9336841Y8667607D01*
X9302551Y8776710D02*
G01*
X9297357Y8771516D01*
X9292160Y8776710D01*
X9297357Y8781907D01*
X9302551Y8776710D01*
X9297357Y8740343D02*
G01*
X9297357Y8667607D01*
X9257870Y8740343D02*
G01*
X9257870Y8631237D01*
X9257870Y8724757D02*
G01*
X9247479Y8735146D01*
X9237088Y8740343D01*
X9221503Y8740343D01*
X9211111Y8735146D01*
X9200720Y8724757D01*
X9195526Y8709169D01*
X9195526Y8698778D01*
X9200720Y8683193D01*
X9211111Y8672802D01*
X9221503Y8667607D01*
X9237088Y8667607D01*
X9247479Y8672802D01*
X9257870Y8683193D01*
X9135259Y8740343D02*
G01*
X9145648Y8735146D01*
X9156039Y8724757D01*
X9161236Y8709169D01*
X9161236Y8698778D01*
X9156039Y8683193D01*
X9145648Y8672802D01*
X9135259Y8667607D01*
X9119671Y8667607D01*
X9109280Y8672802D01*
X9098889Y8683193D01*
X9093695Y8698778D01*
X9093695Y8709169D01*
X9098889Y8724757D01*
X9109280Y8735146D01*
X9119671Y8740343D01*
X9135259Y8740343D01*
X8979395Y8755928D02*
G01*
X8969004Y8761125D01*
X8953418Y8776710D01*
X8953418Y8667607D01*
X8856781Y8761125D02*
G01*
X8861978Y8771516D01*
X8877564Y8776710D01*
X8887955Y8776710D01*
X8903540Y8771516D01*
X8913931Y8755928D01*
X8919128Y8729952D01*
X8919128Y8703975D01*
X8913931Y8683193D01*
X8903540Y8672802D01*
X8887955Y8667607D01*
X8882758Y8667607D01*
X8867173Y8672802D01*
X8856781Y8683193D01*
X8851587Y8698778D01*
X8851587Y8703975D01*
X8856781Y8719560D01*
X8867173Y8729952D01*
X8882758Y8735146D01*
X8887955Y8735146D01*
X8903540Y8729952D01*
X8913931Y8719560D01*
X8919128Y8703975D01*
X8786124Y8776710D02*
G01*
X8801709Y8771516D01*
X8812100Y8755928D01*
X8817297Y8729952D01*
X8817297Y8714366D01*
X8812100Y8688387D01*
X8801709Y8672802D01*
X8786124Y8667607D01*
X8775733Y8667607D01*
X8760147Y8672802D01*
X8749756Y8688387D01*
X8744559Y8714366D01*
X8744559Y8729952D01*
X8749756Y8755928D01*
X8760147Y8771516D01*
X8775733Y8776710D01*
X8786124Y8776710D01*
X8679098Y8776710D02*
G01*
X8694684Y8771516D01*
X8705075Y8755928D01*
X8710269Y8729952D01*
X8710269Y8714366D01*
X8705075Y8688387D01*
X8694684Y8672802D01*
X8679098Y8667607D01*
X8668707Y8667607D01*
X8653119Y8672802D01*
X8642728Y8688387D01*
X8637534Y8714366D01*
X8637534Y8729952D01*
X8642728Y8755928D01*
X8653119Y8771516D01*
X8668707Y8776710D01*
X8679098Y8776710D01*
X8603244Y8740343D02*
G01*
X8603244Y8667607D01*
X8603244Y8719560D02*
G01*
X8587658Y8735146D01*
X8577267Y8740343D01*
X8561679Y8740343D01*
X8551288Y8735146D01*
X8546094Y8719560D01*
X8546094Y8667607D01*
X8546094Y8719560D02*
G01*
X8530508Y8735146D01*
X8520117Y8740343D01*
X8504529Y8740343D01*
X8494138Y8735146D01*
X8488944Y8719560D01*
X8488944Y8667607D01*
X8413089Y8776710D02*
G01*
X8454654Y8667607D01*
X8413089Y8776710D02*
G01*
X8371527Y8667607D01*
X8439068Y8703975D02*
G01*
X8387113Y8703975D01*
X8337237Y8776710D02*
G01*
X8337237Y8667607D01*
X8337237Y8719560D02*
G01*
X8321649Y8735146D01*
X8311258Y8740343D01*
X8295673Y8740343D01*
X8285281Y8735146D01*
X8280087Y8719560D01*
X8280087Y8667607D01*
D11*
X6939561Y8619710D02*
G01*
X6939561Y8453455D01*
X6825261Y8562560D02*
G01*
X6825261Y8489825D01*
X6825261Y8541778D02*
G01*
X6809676Y8557364D01*
X6799285Y8562560D01*
X6783697Y8562560D01*
X6773306Y8557364D01*
X6768111Y8541778D01*
X6768111Y8489825D01*
X6768111Y8541778D02*
G01*
X6752526Y8557364D01*
X6742135Y8562560D01*
X6726547Y8562560D01*
X6716156Y8557364D01*
X6710961Y8541778D01*
X6710961Y8489825D01*
X6614327Y8562560D02*
G01*
X6614327Y8489825D01*
X6614327Y8546975D02*
G01*
X6624716Y8557364D01*
X6635107Y8562560D01*
X6650695Y8562560D01*
X6661086Y8557364D01*
X6671477Y8546975D01*
X6676671Y8531387D01*
X6676671Y8520996D01*
X6671477Y8505410D01*
X6661086Y8495019D01*
X6650695Y8489825D01*
X6635107Y8489825D01*
X6624716Y8495019D01*
X6614327Y8505410D01*
X6580037Y8598928D02*
G01*
X6574840Y8593734D01*
X6569646Y8598928D01*
X6574840Y8604125D01*
X6580037Y8598928D01*
X6574840Y8562560D02*
G01*
X6574840Y8489825D01*
X6535356Y8562560D02*
G01*
X6535356Y8489825D01*
X6535356Y8541778D02*
G01*
X6519768Y8557364D01*
X6509377Y8562560D01*
X6493791Y8562560D01*
X6483400Y8557364D01*
X6478206Y8541778D01*
X6478206Y8489825D01*
X6428328Y8598928D02*
G01*
X6428328Y8510605D01*
X6423134Y8495019D01*
X6412743Y8489825D01*
X6402351Y8489825D01*
X6443916Y8562560D02*
G01*
X6407546Y8562560D01*
X6368061Y8598928D02*
G01*
X6362867Y8593734D01*
X6357670Y8598928D01*
X6362867Y8604125D01*
X6368061Y8598928D01*
X6362867Y8562560D02*
G01*
X6362867Y8489825D01*
X6323380Y8531387D02*
G01*
X6261036Y8531387D01*
X6261036Y8541778D01*
X6266230Y8552169D01*
X6271427Y8557364D01*
X6281816Y8562560D01*
X6297404Y8562560D01*
X6307795Y8557364D01*
X6318186Y8546975D01*
X6323380Y8531387D01*
X6323380Y8520996D01*
X6318186Y8505410D01*
X6307795Y8495019D01*
X6297404Y8489825D01*
X6281816Y8489825D01*
X6271427Y8495019D01*
X6261036Y8505410D01*
X6226746Y8562560D02*
G01*
X6226746Y8489825D01*
X6226746Y8541778D02*
G01*
X6211158Y8557364D01*
X6200767Y8562560D01*
X6185181Y8562560D01*
X6174790Y8557364D01*
X6169596Y8541778D01*
X6169596Y8489825D01*
X6119718Y8598928D02*
G01*
X6119718Y8510605D01*
X6114524Y8495019D01*
X6104133Y8489825D01*
X6093741Y8489825D01*
X6135306Y8562560D02*
G01*
X6098936Y8562560D01*
X5979441Y8598928D02*
G01*
X5979441Y8489825D01*
X5979441Y8546975D02*
G01*
X5969050Y8557364D01*
X5958659Y8562560D01*
X5943074Y8562560D01*
X5932683Y8557364D01*
X5922291Y8546975D01*
X5917097Y8531387D01*
X5917097Y8520996D01*
X5922291Y8505410D01*
X5932683Y8495019D01*
X5943074Y8489825D01*
X5958659Y8489825D01*
X5969050Y8495019D01*
X5979441Y8505410D01*
X5820460Y8562560D02*
G01*
X5820460Y8489825D01*
X5820460Y8546975D02*
G01*
X5830851Y8557364D01*
X5841243Y8562560D01*
X5856828Y8562560D01*
X5867219Y8557364D01*
X5877610Y8546975D01*
X5882807Y8531387D01*
X5882807Y8520996D01*
X5877610Y8505410D01*
X5867219Y8495019D01*
X5856828Y8489825D01*
X5841243Y8489825D01*
X5830851Y8495019D01*
X5820460Y8505410D01*
X5770585Y8598928D02*
G01*
X5770585Y8510605D01*
X5765388Y8495019D01*
X5754997Y8489825D01*
X5744606Y8489825D01*
X5786170Y8562560D02*
G01*
X5749803Y8562560D01*
X5694730Y8598928D02*
G01*
X5694730Y8510605D01*
X5689536Y8495019D01*
X5679145Y8489825D01*
X5668754Y8489825D01*
X5710316Y8562560D02*
G01*
X5673948Y8562560D01*
X5634464Y8531387D02*
G01*
X5572117Y8531387D01*
X5572117Y8541778D01*
X5577314Y8552169D01*
X5582508Y8557364D01*
X5592899Y8562560D01*
X5608487Y8562560D01*
X5618876Y8557364D01*
X5629267Y8546975D01*
X5634464Y8531387D01*
X5634464Y8520996D01*
X5629267Y8505410D01*
X5618876Y8495019D01*
X5608487Y8489825D01*
X5592899Y8489825D01*
X5582508Y8495019D01*
X5572117Y8505410D01*
X5537827Y8562560D02*
G01*
X5537827Y8489825D01*
X5537827Y8531387D02*
G01*
X5532633Y8546975D01*
X5522241Y8557364D01*
X5511850Y8562560D01*
X5496265Y8562560D01*
X5461975Y8598928D02*
G01*
X5456778Y8593734D01*
X5451584Y8598928D01*
X5456778Y8604125D01*
X5461975Y8598928D01*
X5456778Y8562560D02*
G01*
X5456778Y8489825D01*
X5417294Y8531387D02*
G01*
X5354947Y8531387D01*
X5354947Y8541778D01*
X5360144Y8552169D01*
X5365338Y8557364D01*
X5375729Y8562560D01*
X5391317Y8562560D01*
X5401706Y8557364D01*
X5412097Y8546975D01*
X5417294Y8531387D01*
X5417294Y8520996D01*
X5412097Y8505410D01*
X5401706Y8495019D01*
X5391317Y8489825D01*
X5375729Y8489825D01*
X5365338Y8495019D01*
X5354947Y8505410D01*
X6988515Y8623289D02*
G01*
X6941756Y8706416D01*
X6894997Y8623289D01*
X8628090Y4719642D02*
G01*
X8628090Y4657298D01*
X8654067Y4704057D02*
G01*
X8602111Y4672883D01*
X8602111Y4704057D02*
G01*
X8654067Y4672883D01*
X8487811Y4704057D02*
G01*
X8394293Y4704057D01*
X8487811Y4672883D02*
G01*
X8394293Y4672883D01*
X8279993Y4750816D02*
G01*
X8279993Y4641712D01*
X8279993Y4750816D02*
G01*
X8233234Y4750816D01*
X8217649Y4745621D01*
X8212452Y4740424D01*
X8207258Y4730033D01*
X8207258Y4714448D01*
X8212452Y4704057D01*
X8217649Y4698862D01*
X8233234Y4693666D01*
X8279993Y4693666D01*
X8172968Y4750816D02*
G01*
X8167771Y4745621D01*
X8162577Y4750816D01*
X8167771Y4756012D01*
X8172968Y4750816D01*
X8167771Y4714448D02*
G01*
X8167771Y4641712D01*
X8128287Y4714448D02*
G01*
X8128287Y4641712D01*
X8128287Y4693666D02*
G01*
X8112701Y4709251D01*
X8102310Y4714448D01*
X8086722Y4714448D01*
X8076331Y4709251D01*
X8071137Y4693666D01*
X8071137Y4641712D01*
X7956837Y4750816D02*
G01*
X7956837Y4641712D01*
X7956837Y4750816D02*
G01*
X7910078Y4750816D01*
X7894492Y4745621D01*
X7889295Y4740424D01*
X7884101Y4730033D01*
X7884101Y4719642D01*
X7889295Y4709251D01*
X7894492Y4704057D01*
X7910078Y4698862D01*
X7956837Y4698862D01*
X7920469Y4698862D02*
G01*
X7884101Y4641712D01*
X7745902Y4704057D02*
G01*
X7745902Y4709251D01*
X7751097Y4714448D01*
X7756291Y4714448D01*
X7761488Y4709251D01*
X7766682Y4698862D01*
X7777073Y4672883D01*
X7787464Y4657298D01*
X7797855Y4646907D01*
X7808247Y4641712D01*
X7829029Y4641712D01*
X7839420Y4646907D01*
X7844614Y4652101D01*
X7849811Y4662492D01*
X7849811Y4672883D01*
X7844614Y4683274D01*
X7839420Y4688471D01*
X7803052Y4709251D01*
X7797855Y4714448D01*
X7792661Y4724839D01*
X7792661Y4735230D01*
X7797855Y4745621D01*
X7808247Y4750816D01*
X7818638Y4745621D01*
X7823832Y4735230D01*
X7823832Y4724839D01*
X7818638Y4709251D01*
X7808247Y4693666D01*
X7782270Y4657298D01*
X7771879Y4646907D01*
X7761488Y4641712D01*
X7751097Y4641712D01*
X7745902Y4646907D01*
X7745902Y4652101D01*
X7711612Y4750816D02*
G01*
X7711612Y4641712D01*
X7711612Y4750816D02*
G01*
X7675242Y4750816D01*
X7659657Y4745621D01*
X7649265Y4735230D01*
X7644071Y4724839D01*
X7638874Y4709251D01*
X7638874Y4683274D01*
X7644071Y4667689D01*
X7649265Y4657298D01*
X7659657Y4646907D01*
X7675242Y4641712D01*
X7711612Y4641712D01*
X7524574Y4750816D02*
G01*
X7519380Y4745621D01*
X7514183Y4750816D01*
X7519380Y4756012D01*
X7524574Y4750816D01*
X7519380Y4714448D02*
G01*
X7519380Y4641712D01*
X7479893Y4714448D02*
G01*
X7479893Y4641712D01*
X7479893Y4693666D02*
G01*
X7464308Y4709251D01*
X7453917Y4714448D01*
X7438331Y4714448D01*
X7427940Y4709251D01*
X7422743Y4693666D01*
X7422743Y4641712D01*
X7326109Y4698862D02*
G01*
X7336500Y4709251D01*
X7346891Y4714448D01*
X7362477Y4714448D01*
X7372868Y4709251D01*
X7383259Y4698862D01*
X7388453Y4683274D01*
X7388453Y4672883D01*
X7383259Y4657298D01*
X7372868Y4646907D01*
X7362477Y4641712D01*
X7346891Y4641712D01*
X7336500Y4646907D01*
X7326109Y4657298D01*
X7291819Y4750816D02*
G01*
X7291819Y4641712D01*
X7257529Y4714448D02*
G01*
X7257529Y4662492D01*
X7252332Y4646907D01*
X7241941Y4641712D01*
X7226355Y4641712D01*
X7215964Y4646907D01*
X7200379Y4662492D01*
X7200379Y4714448D02*
G01*
X7200379Y4641712D01*
X7108939Y4698862D02*
G01*
X7114133Y4709251D01*
X7129721Y4714448D01*
X7145307Y4714448D01*
X7160892Y4709251D01*
X7166089Y4698862D01*
X7160892Y4688471D01*
X7150501Y4683274D01*
X7124524Y4678080D01*
X7114133Y4672883D01*
X7108939Y4662492D01*
X7108939Y4657298D01*
X7114133Y4646907D01*
X7129721Y4641712D01*
X7145307Y4641712D01*
X7160892Y4646907D01*
X7166089Y4657298D01*
X8628090Y4973640D02*
G01*
X8628090Y4911295D01*
X8654067Y4958054D02*
G01*
X8602111Y4926881D01*
X8602111Y4958054D02*
G01*
X8654067Y4926881D01*
X8541844Y4973640D02*
G01*
X8541844Y4911295D01*
X8567821Y4958054D02*
G01*
X8515868Y4926881D01*
X8515868Y4958054D02*
G01*
X8567821Y4926881D01*
X8401568Y4958054D02*
G01*
X8308050Y4958054D01*
X8401568Y4926881D02*
G01*
X8308050Y4926881D01*
X8193750Y5004813D02*
G01*
X8193750Y4895710D01*
X8193750Y5004813D02*
G01*
X8146991Y5004813D01*
X8131403Y4999619D01*
X8126209Y4994422D01*
X8121012Y4984031D01*
X8121012Y4968445D01*
X8126209Y4958054D01*
X8131403Y4952860D01*
X8146991Y4947663D01*
X8193750Y4947663D01*
X8086722Y5004813D02*
G01*
X8081528Y4999619D01*
X8076331Y5004813D01*
X8081528Y5010010D01*
X8086722Y5004813D01*
X8081528Y4968445D02*
G01*
X8081528Y4895710D01*
X8042041Y4968445D02*
G01*
X8042041Y4895710D01*
X8042041Y4947663D02*
G01*
X8026455Y4963248D01*
X8016064Y4968445D01*
X8000479Y4968445D01*
X7990088Y4963248D01*
X7984891Y4947663D01*
X7984891Y4895710D01*
X7870591Y5004813D02*
G01*
X7870591Y4895710D01*
X7870591Y5004813D02*
G01*
X7823832Y5004813D01*
X7808247Y4999619D01*
X7803052Y4994422D01*
X7797855Y4984031D01*
X7797855Y4973640D01*
X7803052Y4963248D01*
X7808247Y4958054D01*
X7823832Y4952860D01*
X7870591Y4952860D01*
X7834223Y4952860D02*
G01*
X7797855Y4895710D01*
X7659657Y4958054D02*
G01*
X7659657Y4963248D01*
X7664851Y4968445D01*
X7670048Y4968445D01*
X7675242Y4963248D01*
X7680439Y4952860D01*
X7690830Y4926881D01*
X7701221Y4911295D01*
X7711612Y4900904D01*
X7722001Y4895710D01*
X7742783Y4895710D01*
X7753174Y4900904D01*
X7758371Y4906098D01*
X7763565Y4916490D01*
X7763565Y4926881D01*
X7758371Y4937272D01*
X7753174Y4942469D01*
X7716807Y4963248D01*
X7711612Y4968445D01*
X7706415Y4978836D01*
X7706415Y4989228D01*
X7711612Y4999619D01*
X7722001Y5004813D01*
X7732392Y4999619D01*
X7737589Y4989228D01*
X7737589Y4978836D01*
X7732392Y4963248D01*
X7722001Y4947663D01*
X7696024Y4911295D01*
X7685633Y4900904D01*
X7675242Y4895710D01*
X7664851Y4895710D01*
X7659657Y4900904D01*
X7659657Y4906098D01*
X7625367Y5004813D02*
G01*
X7625367Y4895710D01*
X7625367Y5004813D02*
G01*
X7588999Y5004813D01*
X7573411Y4999619D01*
X7563022Y4989228D01*
X7557825Y4978836D01*
X7552631Y4963248D01*
X7552631Y4937272D01*
X7557825Y4921686D01*
X7563022Y4911295D01*
X7573411Y4900904D01*
X7588999Y4895710D01*
X7625367Y4895710D01*
X7438331Y5004813D02*
G01*
X7438331Y4895710D01*
X7404041Y5004813D02*
G01*
X7398844Y4999619D01*
X7393650Y5004813D01*
X7398844Y5010010D01*
X7404041Y5004813D01*
X7398844Y4968445D02*
G01*
X7398844Y4895710D01*
X7359360Y5004813D02*
G01*
X7359360Y4895710D01*
X7359360Y4952860D02*
G01*
X7348969Y4963248D01*
X7338578Y4968445D01*
X7322992Y4968445D01*
X7312601Y4963248D01*
X7302210Y4952860D01*
X7297013Y4937272D01*
X7297013Y4926881D01*
X7302210Y4911295D01*
X7312601Y4900904D01*
X7322992Y4895710D01*
X7338578Y4895710D01*
X7348969Y4900904D01*
X7359360Y4911295D01*
X7262723Y4968445D02*
G01*
X7262723Y4895710D01*
X7262723Y4937272D02*
G01*
X7257529Y4952860D01*
X7247138Y4963248D01*
X7236747Y4968445D01*
X7221161Y4968445D01*
X7186871Y4937272D02*
G01*
X7124524Y4937272D01*
X7124524Y4947663D01*
X7129721Y4958054D01*
X7134915Y4963248D01*
X7145307Y4968445D01*
X7160892Y4968445D01*
X7171283Y4963248D01*
X7181674Y4952860D01*
X7186871Y4937272D01*
X7186871Y4926881D01*
X7181674Y4911295D01*
X7171283Y4900904D01*
X7160892Y4895710D01*
X7145307Y4895710D01*
X7134915Y4900904D01*
X7124524Y4911295D01*
D10*
X11878122Y4826467D02*
G01*
X11883318Y4836858D01*
X11893710Y4847249D01*
X11904098Y4852443D01*
X11924880Y4852443D01*
X11935272Y4847249D01*
X11945663Y4836858D01*
X11950860Y4826467D01*
X11956054Y4810879D01*
X11956054Y4784902D01*
X11950860Y4769317D01*
X11945663Y4758926D01*
X11935272Y4748535D01*
X11924880Y4743340D01*
X11904098Y4743340D01*
X11893710Y4748535D01*
X11883318Y4758926D01*
X11878122Y4769317D01*
X11817855Y4816076D02*
G01*
X11828246Y4810879D01*
X11838637Y4800490D01*
X11843832Y4784902D01*
X11843832Y4774511D01*
X11838637Y4758926D01*
X11828246Y4748535D01*
X11817855Y4743340D01*
X11802270Y4743340D01*
X11791878Y4748535D01*
X11781487Y4758926D01*
X11776290Y4774511D01*
X11776290Y4784902D01*
X11781487Y4800490D01*
X11791878Y4810879D01*
X11802270Y4816076D01*
X11817855Y4816076D01*
X11679656Y4852443D02*
G01*
X11679656Y4743340D01*
X11679656Y4800490D02*
G01*
X11690047Y4810879D01*
X11700438Y4816076D01*
X11716024Y4816076D01*
X11726415Y4810879D01*
X11736806Y4800490D01*
X11742000Y4784902D01*
X11742000Y4774511D01*
X11736806Y4758926D01*
X11726415Y4748535D01*
X11716024Y4743340D01*
X11700438Y4743340D01*
X11690047Y4748535D01*
X11679656Y4758926D01*
X11645366Y4784902D02*
G01*
X11583019Y4784902D01*
X11583019Y4795293D01*
X11588216Y4805685D01*
X11593410Y4810879D01*
X11603802Y4816076D01*
X11619390Y4816076D01*
X11629778Y4810879D01*
X11640169Y4800490D01*
X11645366Y4784902D01*
X11645366Y4774511D01*
X11640169Y4758926D01*
X11629778Y4748535D01*
X11619390Y4743340D01*
X11603802Y4743340D01*
X11593410Y4748535D01*
X11583019Y4758926D01*
X11468719Y4784902D02*
G01*
X11406375Y4784902D01*
X11406375Y4795293D01*
X11411569Y4805685D01*
X11416766Y4810879D01*
X11427157Y4816076D01*
X11442743Y4816076D01*
X11453134Y4810879D01*
X11463525Y4800490D01*
X11468719Y4784902D01*
X11468719Y4774511D01*
X11463525Y4758926D01*
X11453134Y4748535D01*
X11442743Y4743340D01*
X11427157Y4743340D01*
X11416766Y4748535D01*
X11406375Y4758926D01*
X11356500Y4852443D02*
G01*
X11356500Y4764120D01*
X11351303Y4748535D01*
X11340912Y4743340D01*
X11330520Y4743340D01*
X11372085Y4816076D02*
G01*
X11335717Y4816076D01*
X11216220Y4816076D02*
G01*
X11216220Y4706970D01*
X11216220Y4800490D02*
G01*
X11205829Y4810879D01*
X11195438Y4816076D01*
X11179853Y4816076D01*
X11169462Y4810879D01*
X11159070Y4800490D01*
X11153876Y4784902D01*
X11153876Y4774511D01*
X11159070Y4758926D01*
X11169462Y4748535D01*
X11179853Y4743340D01*
X11195438Y4743340D01*
X11205829Y4748535D01*
X11216220Y4758926D01*
X11119586Y4852443D02*
G01*
X11119586Y4743340D01*
X11022949Y4816076D02*
G01*
X11022949Y4743340D01*
X11022949Y4800490D02*
G01*
X11033340Y4810879D01*
X11043732Y4816076D01*
X11059320Y4816076D01*
X11069708Y4810879D01*
X11080099Y4800490D01*
X11085296Y4784902D01*
X11085296Y4774511D01*
X11080099Y4758926D01*
X11069708Y4748535D01*
X11059320Y4743340D01*
X11043732Y4743340D01*
X11033340Y4748535D01*
X11022949Y4758926D01*
X10988659Y4816076D02*
G01*
X10988659Y4743340D01*
X10988659Y4795293D02*
G01*
X10973074Y4810879D01*
X10962683Y4816076D01*
X10947097Y4816076D01*
X10936706Y4810879D01*
X10931509Y4795293D01*
X10931509Y4743340D01*
X10791233Y4816076D02*
G01*
X10801624Y4810879D01*
X10812015Y4800490D01*
X10817209Y4784902D01*
X10817209Y4774511D01*
X10812015Y4758926D01*
X10801624Y4748535D01*
X10791233Y4743340D01*
X10775647Y4743340D01*
X10765256Y4748535D01*
X10754865Y4758926D01*
X10749668Y4774511D01*
X10749668Y4784902D01*
X10754865Y4800490D01*
X10765256Y4810879D01*
X10775647Y4816076D01*
X10791233Y4816076D01*
X10715378Y4816076D02*
G01*
X10715378Y4706970D01*
X10715378Y4800490D02*
G01*
X10704990Y4810879D01*
X10694598Y4816076D01*
X10679010Y4816076D01*
X10668619Y4810879D01*
X10658228Y4800490D01*
X10653034Y4784902D01*
X10653034Y4774511D01*
X10658228Y4758926D01*
X10668619Y4748535D01*
X10679010Y4743340D01*
X10694598Y4743340D01*
X10704990Y4748535D01*
X10715378Y4758926D01*
X10618744Y4784902D02*
G01*
X10556400Y4784902D01*
X10556400Y4795293D01*
X10561594Y4805685D01*
X10566788Y4810879D01*
X10577179Y4816076D01*
X10592767Y4816076D01*
X10603158Y4810879D01*
X10613550Y4800490D01*
X10618744Y4784902D01*
X10618744Y4774511D01*
X10613550Y4758926D01*
X10603158Y4748535D01*
X10592767Y4743340D01*
X10577179Y4743340D01*
X10566788Y4748535D01*
X10556400Y4758926D01*
X10522110Y4816076D02*
G01*
X10522110Y4743340D01*
X10522110Y4795293D02*
G01*
X10506522Y4810879D01*
X10496130Y4816076D01*
X10480545Y4816076D01*
X10470154Y4810879D01*
X10464960Y4795293D01*
X10464960Y4743340D01*
X10293510Y4800490D02*
G01*
X10298704Y4810879D01*
X10314289Y4816076D01*
X10329877Y4816076D01*
X10345463Y4810879D01*
X10350660Y4800490D01*
X10345463Y4790099D01*
X10335072Y4784902D01*
X10309095Y4779708D01*
X10298704Y4774511D01*
X10293510Y4764120D01*
X10293510Y4758926D01*
X10298704Y4748535D01*
X10314289Y4743340D01*
X10329877Y4743340D01*
X10345463Y4748535D01*
X10350660Y4758926D01*
X10233240Y4816076D02*
G01*
X10243632Y4810879D01*
X10254023Y4800490D01*
X10259220Y4784902D01*
X10259220Y4774511D01*
X10254023Y4758926D01*
X10243632Y4748535D01*
X10233240Y4743340D01*
X10217655Y4743340D01*
X10207264Y4748535D01*
X10196873Y4758926D01*
X10191678Y4774511D01*
X10191678Y4784902D01*
X10196873Y4800490D01*
X10207264Y4810879D01*
X10217655Y4816076D01*
X10233240Y4816076D01*
X10157388Y4816076D02*
G01*
X10157388Y4764120D01*
X10152192Y4748535D01*
X10141800Y4743340D01*
X10126215Y4743340D01*
X10115824Y4748535D01*
X10100238Y4764120D01*
X10100238Y4816076D02*
G01*
X10100238Y4743340D01*
X10065948Y4816076D02*
G01*
X10065948Y4743340D01*
X10065948Y4784902D02*
G01*
X10060752Y4800490D01*
X10050360Y4810879D01*
X10039969Y4816076D01*
X10024384Y4816076D01*
X9927750Y4800490D02*
G01*
X9938138Y4810879D01*
X9948529Y4816076D01*
X9964117Y4816076D01*
X9974508Y4810879D01*
X9984900Y4800490D01*
X9990094Y4784902D01*
X9990094Y4774511D01*
X9984900Y4758926D01*
X9974508Y4748535D01*
X9964117Y4743340D01*
X9948529Y4743340D01*
X9938138Y4748535D01*
X9927750Y4758926D01*
X9893460Y4784902D02*
G01*
X9831113Y4784902D01*
X9831113Y4795293D01*
X9836310Y4805685D01*
X9841504Y4810879D01*
X9851895Y4816076D01*
X9867480Y4816076D01*
X9877872Y4810879D01*
X9888263Y4800490D01*
X9893460Y4784902D01*
X9893460Y4774511D01*
X9888263Y4758926D01*
X9877872Y4748535D01*
X9867480Y4743340D01*
X9851895Y4743340D01*
X9841504Y4748535D01*
X9831113Y4758926D01*
X9791628Y4769317D02*
G01*
X9796823Y4764120D01*
X9791628Y4758926D01*
X9786432Y4764120D01*
X9791628Y4769317D01*
D12*
X10114556Y6070594D02*
G01*
X10368556Y6070594D01*
X10368556Y5054594D01*
X10114556Y5054594D01*
X10114556Y6070594D01*
X4501179Y8902651D02*
G01*
X10012979Y8902651D01*
X10012979Y5602658D01*
X4501179Y5602658D01*
X4501179Y8902651D01*
M02*
