<?xml version="1.0" encoding="UTF-8" standalone="no"?>
<!-- Created with Inkscape (http://www.inkscape.org/) -->

<svg
   version="1.1"
   id="svg1"
   width="1920"
   height="877"
   viewBox="0 0 1920 877"
   sodipodi:docname="savoie-flan.svg"
   inkscape:version="1.4.4 (dcaf3e7, 2026-05-05)"
   xmlns:inkscape="http://www.inkscape.org/namespaces/inkscape"
   xmlns:sodipodi="http://sodipodi.sourceforge.net/DTD/sodipodi-0.dtd"
   xmlns="http://www.w3.org/2000/svg"
   xmlns:svg="http://www.w3.org/2000/svg">
  <defs
     id="defs1" />
  <sodipodi:namedview
     id="namedview1"
     pagecolor="#ffffff"
     bordercolor="#000000"
     borderopacity="0.25"
     inkscape:showpageshadow="2"
     inkscape:pageopacity="0.0"
     inkscape:pagecheckerboard="0"
     inkscape:deskcolor="#d1d1d1"
     inkscape:zoom="0.31162688"
     inkscape:cx="1248.2877"
     inkscape:cy="380.26245"
     inkscape:window-width="1920"
     inkscape:window-height="991"
     inkscape:window-x="-9"
     inkscape:window-y="-9"
     inkscape:window-maximized="1"
     inkscape:current-layer="g1" />
  <g
     inkscape:groupmode="layer"
     inkscape:label="Image"
     id="g1">
    <path
       id="path1"
       style="fill:#000000"
       d="m 1208.8262,72.964844 c -9e-4,0.03644 0,0.07302 0,0.109375 0.2744,0.617413 0.571,1.285619 0.7343,1.662109 0.1763,0.324247 0.3513,0.649102 0.5254,0.97461 -0.502,-1.088466 -0.934,-2.039239 -1.2578,-2.746094 z M 566.67383,275.08594 c -1.7199,0.0776 -3.00315,2.03022 -4.4375,6.40625 -4.28996,13.08805 -10.69567,77.34097 -10.82422,108.57812 l -0.0644,15.90625 -3.61719,3.59375 c -1.98939,1.97695 -7.6562,6.29375 -12.59375,9.59375 -10.81294,7.22679 -18.47852,14.36567 -18.47852,17.20899 0,2.88771 7.93914,11.41943 16.88086,18.14257 7.81075,5.87282 10.71112,9.64244 12.26172,15.93555 0.50317,2.04215 0.89454,21.08242 0.86914,42.31055 -0.0824,68.98977 3.23545,95.6123 10.5293,84.48047 3.43249,-5.23863 5.17371,-17.46107 11.96484,-83.95703 3.31962,-32.50437 4.32777,-38.6211 6.35742,-38.6211 0.43552,0 5.42814,2.979 11.09571,6.61914 12.08695,7.76313 32.80566,17.94625 45.54101,22.38282 4.95,1.72441 13.69404,3.98501 19.42969,5.02343 13.21033,2.39167 14.57031,3.54 14.57031,12.29688 0,8.41164 -1.54078,10.46054 -12.89453,17.14258 -16.54152,9.7352 -20.21382,16.9051 -13.02929,25.44336 2.93763,3.49118 12.51963,8.30046 19.97851,10.02734 7.78694,1.80283 15.07416,6.41597 17.42969,11.0332 2.30713,4.52234 3.96729,14.54738 3.99609,24.12696 0.0273,9.09407 -1.17406,10.11096 -10.5039,8.89453 -19.4619,-2.53746 -120.23478,-5.31371 -196.47657,-5.41211 -58.6143,-0.0756 -60.94704,-0.006 -74.88086,2.23437 -49.10254,7.89611 -90.68003,27.87809 -101.93164,48.98828 -8.45458,15.86242 -8.11688,37.15966 0.88672,55.90625 7.12203,14.82894 25.49018,31.50278 46.1875,41.92579 61.3997,30.92038 168.02633,44.19435 400.23828,49.82617 29.15,0.70698 77.77014,1.23106 108.04492,1.16406 64.11402,-0.1418 60.37102,0.43722 60.57422,-9.39649 0.2275,-11.013 0.51847,-11.48782 7.88477,-12.87695 3.5731,-0.67382 15.97299,-3.05137 27.55469,-5.2832 98.9168,-19.06159 289.411,-47.16698 494.9414,-73.02344 22,-2.76768 44.95,-5.68983 51,-6.49414 6.05,-0.80431 16.175,-2.14741 22.5,-2.98437 64.119,-8.48466 110.2568,-15.702 112.5527,-17.60743 0.7956,-0.66028 1.4473,-2.48959 1.4473,-4.06445 0,-5.51843 -9.1502,-9.50956 -33.8887,-14.7793 -21.5526,-4.59107 -22.2271,-5.29977 -22.9043,-24.05273 -0.3188,-8.82968 -0.1149,-12.99949 0.6602,-13.47852 0.6172,-0.38146 5.2863,1.20563 10.3769,3.52539 8.02,3.65473 10.4101,4.27771 17.8965,4.67188 6.4205,0.33805 9.9431,0.0217 13.7188,-1.23242 6.3763,-2.11787 14.0041,-8.8688 17.9824,-15.91797 3.5574,-6.30344 9.4032,-10.55768 17.8418,-12.98438 15.5976,-4.48541 19.3164,-6.26092 19.3164,-9.2207 0,-1.41385 -4.214,-2.93422 -11,-3.96875 -5.9218,-0.90278 -7.8662,-2.01742 -9.1953,-5.26562 -0.6948,-1.69796 -1.3765,-18.17061 -1.8496,-44.68946 -0.7831,-43.89601 -1.5401,-52.19537 -5.9063,-64.86523 -5.7634,-16.72436 -17.4436,-35.33184 -29.9199,-47.66016 -7.0223,-6.93906 -10.3969,-9.40418 -18.1289,-13.24609 -12.9319,-6.42565 -23.955,-8.57554 -35.3789,-6.90039 -22.4043,3.28529 -41.8778,14.25494 -62.9063,35.4375 -13.5069,13.60582 -31.2005,37.38988 -41.4628,55.73437 -9.7056,17.34941 -25.1334,60.36706 -34.4297,96 -2.2241,8.525 -4.8589,17.09864 -5.8535,19.05274 -2.7193,5.3421 -7.7007,9.6885 -13.3809,11.67187 -7.2946,2.54705 -28.1298,2.16882 -59.0879,-1.07031 -33.1157,-3.46488 -107.3447,-10.24471 -133,-12.14844 -13.2678,-0.98453 -69.0531,-5.52689 -92.2734,-7.51367 -12.8008,-1.09527 -27.5602,-1.99219 -32.7969,-1.99219 -10.9159,0 -12.2265,0.75437 -16.7598,9.625 -8.0083,15.67052 -19.8285,21.39082 -44.1289,21.35742 -22.5977,-0.0311 -43.76618,-4.45037 -59.31248,-12.38281 -6.4382,-3.28509 -9.8645,-7.19482 -11.2832,-12.87109 -0.6559,-2.62417 -2.49098,-6.56167 -4.07618,-8.75 -4.9051,-6.77119 -7.21104,-6.09642 -38.61914,11.30078 -9.48752,5.2552 -17.25,9.28595 -17.25,8.95703 0,-2.30065 5.28587,-33.85645 5.97461,-35.66797 0.77798,-2.04625 1.72916,-2.33222 9.69336,-2.91601 11.6361,-0.85294 37.25823,-2.38499 60.83203,-3.63868 47.2555,-2.51312 56.5282,-3.09886 64.5,-4.06835 11.2064,-1.36289 16,-2.69455 16,-4.44727 0,-2.72951 -6.7313,-5.07305 -25.6387,-8.92383 -28.54842,-5.81438 -69.57708,-11.91072 -131.8613,-19.59375 -45.41878,-5.6026 -59.57718,-7.68594 -60.85937,-8.95117 -1.3928,-1.37437 -4.64063,-14.16351 -4.64063,-18.27344 0,-3.31484 0.40582,-3.96549 3.25,-5.21094 1.7875,-0.78275 8.65,-2.15095 15.25,-3.04101 29.85859,-4.02665 59.63226,-16.85296 76.33203,-32.88477 7.7474,-7.43746 10.60961,-13.40481 10.59961,-22.11914 -0.009,-12.83747 -5.1799,-24.10437 -17.7207,-38.61328 -17.48086,-20.22439 -50.17956,-41.21403 -83.20898,-53.41211 -28.46566,-10.51264 -79.25081,-19.80417 -122.96289,-22.49609 -20.61408,-1.26948 -56.90363,-1.20894 -70.08008,0.11719 -32.87685,3.30885 -45.66648,12.99158 -55.35352,41.90429 -2.79965,8.35608 -4.5966,11.63432 -5.53906,10.10938 -0.3949,-0.63896 -1.12003,-10.26192 -1.61328,-21.38477 -0.49325,-11.12286 -1.3659,-30.79961 -1.9375,-43.72461 -1.59646,-36.09921 -3.28791,-48.00545 -7.11328,-50.05273 -0.69236,-0.37054 -1.31342,-0.55127 -1.88672,-0.52539 z m -0.86328,14.60742 c 0.41675,-0.0159 0.83282,0.77719 1.24414,2.41602 2.01514,8.02895 4.61298,53.3185 4.58593,79.95117 -0.0201,19.80838 -1.38248,28.04358 -6.21093,37.53125 -3.18508,6.25852 -4.67667,7.83504 -6.08399,6.42773 -0.98441,-0.98441 -0.82453,-31.67142 0.31641,-60.85547 1.62997,-41.69289 3.89796,-65.38471 6.14844,-65.4707 z m 93.80273,52.11523 c 39.92681,-0.62896 99.47096,4.40516 108.72656,9.19141 4.85523,2.51074 5.65365,4.23429 6.125,13.21484 0.43923,8.36835 0.42974,8.40965 -2.24804,9.42774 -2.56305,0.97447 -6.55515,1.0595 -16.5586,0.35547 -2.475,-0.17419 -18.675,-1.01304 -36,-1.86524 -50.04565,-2.46172 -84.36294,-4.46393 -86.15625,-5.02539 -2.0104,-0.62942 -4.84375,-7.35402 -4.84375,-11.49609 0,-4.46101 2.46098,-9.54737 5.6211,-11.61914 2.44564,-1.60335 5.55669,-1.87206 25.33398,-2.1836 z M 621.5,345.21094 c 0.77072,0.0219 1.40438,0.27156 1.89062,0.75781 1.12181,1.12179 1.53348,3.37854 1.45508,7.97852 -0.12737,7.47503 -2.04798,13.75277 -6.30664,20.60351 -2.89738,4.66092 -2.97213,5.038 -1.52929,7.82813 0.83377,1.61235 2.19629,3.49583 3.02734,4.18554 3.28021,2.72233 3.9968,11.43418 2.71875,33.09961 -1.7477,29.62691 -3.09537,37.96234 -6.49805,40.23438 -1.86967,1.2484 -9.80493,0.70841 -16.10937,-1.09766 -12.14355,-3.47882 -12.00375,-3.04693 -11.93555,-36.63672 0.0845,-41.60463 2.15717,-49.7224 16.57617,-64.95508 7.47425,-7.89602 13.37117,-12.09277 16.71094,-11.99804 z m 161.6875,7.62109 c 0.72257,0.0172 1.59584,0.12223 2.66211,0.26367 5.58631,0.74105 36.17671,9.64255 51.80859,15.07618 9.44024,3.28138 19,7.82774 19,9.03515 0,1.63225 -64.04778,-1.6049 -71.25976,-3.60156 -5.44625,-1.5078 -7.15919,-4.66291 -6.41211,-11.81055 0.77966,-7.45937 1.07004,-9.03748 4.20117,-8.96289 z m -140.44531,22.36133 c 10.34483,-0.10304 25.12018,0.21582 45.41601,0.94531 97.58142,3.50735 140.16133,6.34388 147.44727,9.82422 3.42143,1.63434 3.92951,5.23524 0.85547,6.05859 -2.1793,0.58367 -41.24636,0.56689 -56.30274,-0.0234 -3.85,-0.15099 -19.375,-0.75322 -34.5,-1.33789 -106.67794,-4.12371 -117.89771,-4.92789 -122.25,-8.76368 -2.39193,-2.10807 -2.19577,-4.11493 0.5,-5.11718 2.57485,-0.95729 8.48916,-1.4829 18.83399,-1.58594 z m 226.58008,7.82031 c 0.5631,-0.0119 1.19455,0.0787 1.9082,0.25781 4.53701,1.13872 25.27446,17.47285 34.94336,27.52344 13.82922,14.37514 19.48911,23.98065 21.66601,36.76953 1.6995,9.98395 -0.47223,16.41635 -8.24023,24.4043 -8.9313,9.18404 -9.00841,9.00564 -9.95899,-22.77539 -0.42182,-14.10641 -1.03694,-25.91782 -1.36718,-26.24805 -0.33024,-0.33024 -0.88485,0.82075 -1.23242,2.5586 -0.84157,4.20785 -2.54577,4.03718 -9.69336,-0.97657 -8.42382,-5.90898 -15.54873,-7.86849 -28.52735,-7.84179 -8.50897,0.0175 -11.55578,0.42904 -15.09179,2.0332 -6.01515,2.72886 -19.01399,16.0877 -22.41211,23.0332 -5.17779,10.58303 -4.53383,26.87466 1.32617,33.54883 3.45782,3.93824 3.60664,4.63164 1.44531,6.79297 -2.81725,2.81725 -7.32024,1.53107 -13.66797,-3.90234 -5.17641,-4.43082 -9.62153,-5.86847 -16.39648,-5.30664 -4.2342,0.35113 -6.06202,1.0726 -8.41016,3.32226 -2.50003,2.39518 -3.86553,2.88142 -8.19726,2.91602 -8.23716,0.0657 -8.0837,0.85909 -8.57813,-44.28907 l -0.41992,-38.33007 22.36914,0.74023 c 36.52014,1.20861 58.07195,1.09266 60.55078,-0.32617 1.51339,-0.86623 2.52211,-2.90415 3.30469,-6.67383 1.07711,-5.18841 2.23956,-7.17873 4.67969,-7.23047 z M 632.5625,391.75 c 2.86368,-0.17986 8.55042,-0.0195 19.8457,0.30469 29.15397,0.83683 62.36738,2.32272 92.9336,4.1582 13.30112,0.79872 25.56362,1.45117 27.25,1.45117 h 3.0664 v 12.88867 c 0,17.51242 -1.82207,46.83712 -3.51172,56.51563 -0.91469,5.2395 -2.07128,8.62401 -3.40429,9.95703 -2.48632,2.48631 -11.25554,2.86801 -36.58399,1.58984 -22.77618,-1.14936 -35.63068,-3.2344 -41.45703,-6.72461 -4.14404,-2.48243 -5.42044,-2.71907 -14.54297,-2.70117 -8.57968,0.0169 -10.63914,0.35757 -14.5,2.39844 -3.70424,1.95809 -5.88751,2.3613 -12.3457,2.2793 -9.52758,-0.12099 -17.87939,-1.74697 -20.64648,-4.01758 -4.38286,-3.59649 -4.44943,-11.17871 -0.5,-56.98438 0.8204,-9.51502 1.49218,-18.2378 1.49218,-19.38281 0,-1.03362 0.0406,-1.55256 2.9043,-1.73242 z m -52.20312,11.29102 c 0.3591,-0.008 0.75663,0.53304 1.42773,1.71289 1.0505,1.84686 1.44895,9.16436 1.70312,31.31836 0.18241,15.89937 0.0499,30.41187 -0.29492,32.25 -0.75955,4.04875 -1.91436,4.22096 -4.26367,0.63671 -1.5156,-2.3123 -1.82473,-5.63968 -2.125,-22.91601 -0.33858,-19.4798 0.92377,-38.89631 2.73828,-42.13867 0.31173,-0.55703 0.55238,-0.85716 0.81446,-0.86328 z m -9.68165,11.93554 c 0.0191,-7.4e-4 0.038,-8.8e-4 0.0566,0 0.31442,0.0149 0.57843,0.25784 0.87109,0.6875 0.62645,0.9197 1.02811,11.05254 1.03711,26.19141 0.008,13.58004 -0.32188,24.89854 -0.73438,25.15234 -0.4125,0.25379 -3.54193,-2.16534 -6.95508,-5.375 -4.51787,-4.24857 -7.10094,-5.9218 -9.49609,-6.15234 -2.74358,-0.26407 -3.39535,-0.81462 -3.92578,-3.31641 -0.82238,-3.88059 -0.82492,-26.12874 -0.004,-29.89258 l 0.63086,-2.89453 1.73438,3.64453 c 2.84169,5.97188 6.19323,4.68635 13.97851,-5.35742 1.43721,-1.85413 2.21378,-2.66444 2.80664,-2.6875 z m 996.86527,1.01758 c 30.1802,-0.63301 56.0731,20.4954 69.664,61.11133 5.4819,16.38227 7.4877,30.51375 8.3828,59.05859 1.2482,39.8022 0.1013,44.52894 -11.9316,49.15039 -4.061,1.55969 -11.9149,1.79559 -80.5,2.41211 -48.8014,0.43868 -77.6838,1.07223 -80.7051,1.77149 -5.4447,1.26015 -11.5356,4.90098 -12.3457,7.3789 -1.3131,4.01676 4.8515,9.17156 12.4141,10.38086 5.9711,0.95482 7.0106,3.03567 7.7773,15.56641 0.7082,11.57368 0.077,16.97945 -2.2519,19.30859 -1.4766,1.47658 -9.6518,1.91333 -16.3887,0.875 -39.9798,-6.16188 -52.5985,-9.02549 -51.709,-11.73047 0.2013,-0.61219 1.3282,-1.25444 2.5039,-1.42773 5.3223,-0.78451 10.2126,-11.35509 17.2071,-37.18555 9.8311,-36.30543 17.7596,-60.21749 25.0332,-75.5 12.1204,-25.46598 38.4181,-61.41286 55.6269,-76.03711 19.4619,-16.53894 39.1145,-24.753 57.2227,-25.13281 z m 2.8691,3.16992 -1.5937,3.5 c -1.2697,2.78894 -1.6,7.25844 -1.627,22 -0.018,10.175 0.3135,19.73637 0.7363,21.24805 0.5987,2.14071 2.2019,3.39861 7.25,5.6875 3.5647,1.61632 6.4805,3.38643 6.4805,3.93164 0,1.83668 -3.0631,4.07375 -7.0469,5.14648 -6.9441,1.86985 -7.4531,3.60808 -7.4531,25.50196 0,22.10872 0.114,22.45497 8.4258,25.80078 2.9836,1.20102 5.5896,2.6947 5.793,3.31836 0.586,1.79649 -2.4614,4.21987 -6.7657,5.3789 -6.6379,1.7874 -7.4544,4.08606 -7.4394,20.94727 0.01,10.09024 0.4108,15.24631 1.3164,16.84961 0.7458,1.32046 2.0266,2.16318 2.9883,1.9668 1.4456,-0.29513 1.642,-1.53815 1.3964,-8.81055 -0.3058,-9.05437 1.0497,-20.25873 2.959,-24.44922 0.6428,-1.41083 2.1837,-2.81959 3.4239,-3.13086 3.4738,-0.87186 5.6035,-3.88816 5.6035,-7.93945 0,-4.09261 -1.2446,-5.72613 -6.2774,-8.23828 -2.7251,-1.36028 -3.6626,-2.62628 -4.5937,-6.20899 -2.316,-8.91127 -0.9611,-29.86195 2.248,-34.75976 0.8392,-1.28075 2.5344,-2.71154 3.7657,-3.17969 3.3668,-1.28007 4.8574,-3.60979 4.8574,-7.59375 0,-4.00456 -2.3129,-7.19713 -5.5469,-7.66016 -3.7288,-0.53391 -4.6792,-4.70789 -5.5898,-24.51758 -0.4772,-10.38044 -1.4122,-20.13152 -2.0879,-21.78906 z m -1030.52343,1.72266 c 0.19773,-0.0117 0.34581,0.0216 0.42774,0.10351 1.97534,1.97534 3.02482,22.00749 1.44921,27.66993 -0.38178,1.37211 -1.37593,2.62472 -2.20898,2.78515 -2.55719,0.49247 -17.89844,-11.81674 -17.89844,-14.36133 0,-1.27945 11.46834,-12.36959 15.57227,-15.05859 1.02767,-0.67336 2.06501,-1.10364 2.6582,-1.13867 z m 336.93555,0.96094 c 19.75698,1.24844 26.67708,12.91561 25.63672,40.66601 -0.55645,14.8428 -2.46983,19.71414 -9.48828,24.16602 -2.64803,1.67968 -7.01593,3.70838 -9.70704,4.50781 -5.98764,1.77873 -19.02953,2.6832 -23.10742,1.60156 -13.64508,-3.6193 -24.51253,-15.85116 -26.46679,-29.78711 -2.97471,-21.21284 12.17237,-39.5815 33.86523,-41.06836 3.36055,-0.23033 6.44515,-0.26449 9.26758,-0.0859 z m -237.43945,10.78515 c -3.75181,0.0691 -6.24067,3.95298 -6.16993,10.875 0.0474,4.64227 0.4513,5.76672 2.80469,7.79102 1.51268,1.30115 2.9725,2.36523 3.24414,2.36523 1.81012,0 6.71601,-3.55526 8.95313,-6.48828 3.30756,-4.33643 2.80132,-7.11103 -2.08399,-11.40039 -2.47068,-2.16929 -4.78281,-3.17878 -6.74804,-3.14258 z m 147.625,2.42188 c -0.49402,0.0142 -0.95284,0.5969 -1.78516,1.86719 -3.28176,5.00862 -3.25398,17.91189 0.0449,21.21093 5.21384,5.21385 14.31669,-4.76552 14.36719,-15.75 0.016,-3.47586 -0.41628,-4.94794 -1.58008,-5.39453 -1.95133,-0.74879 -3.07637,0.85024 -4.5332,6.44336 -1.59253,6.11408 -2.55203,6.01019 -3.07813,-0.33398 -0.26045,-3.14069 -1.13736,-6.21158 -2.02539,-7.09961 -0.62111,-0.62112 -1.02592,-0.9544 -1.41015,-0.94336 z m -90.88282,0.60937 c -2.6167,0 -8.12604,5.78447 -9.0625,9.51563 -0.89124,3.55101 0.10462,5.37014 3.82813,6.98828 6.41432,2.78751 14.14552,0.81336 15.33203,-3.91406 1.16826,-4.65473 -5.19581,-12.58985 -10.09766,-12.58985 z m 112.16211,2.14649 c -0.12382,-7.1e-4 -0.25103,0.0105 -0.38281,0.0352 -3.73492,0.69795 -6.89647,17.87045 -4.21289,22.88477 1.50591,2.81381 2.87987,2.38168 4.46094,-1.40235 3.98351,-9.53386 3.97313,-21.49566 0.13476,-21.51757 z m -53.38476,1.85351 c -4.70598,0 -6.90359,1.43565 -8.19532,5.34961 -1.33723,4.05185 -0.19798,7.73421 3.10938,10.05078 2.83208,1.98366 5.12337,2.02088 8.74805,0.14649 3.25694,-1.68424 5.57205,-6.46037 4.60547,-9.50586 -1.10191,-3.47175 -4.61759,-6.04102 -8.26758,-6.04102 z m 108.76758,11.01367 c -10.4244,-0.16479 -20.267,1.0869 -24.01368,3.84571 -5.3124,3.91169 -3.12947,7.67514 6.22461,10.73437 3.20471,1.04813 8.41043,1.2961 20.77539,0.98633 27.76027,-0.69548 37.11612,-4.85834 24.51563,-10.90625 -6.07119,-2.91402 -17.07758,-4.49536 -27.50195,-4.66016 z m -2.53711,3.11133 c 12.82251,-0.0892 27.34599,2.84848 22.51562,5.90235 -1.69661,1.07262 -32.17947,1.13881 -35.99219,0.0781 -4.001,-1.11293 -3.01288,-3.47258 2,-4.77539 3.11623,-0.80989 7.20239,-1.17535 11.47657,-1.20508 z m -302.66211,7.875 c 0.47533,0 1.46147,1.2375 2.1914,2.75 3.09873,6.42096 2.14778,64.80827 -1.58203,97.0918 -0.78421,6.78772 -1.83032,13.06275 -2.32422,13.94531 -1.77588,3.17332 -2.24277,-11.40132 -1.91211,-59.78711 0.32542,-47.61873 0.75428,-54 3.62696,-54 z m 48.36132,4.46094 c 0.59315,0.0187 1.06787,0.0655 1.38282,0.14453 2.87006,0.72034 2.97469,1.14812 0.85156,3.49414 -1.47348,1.62817 -1.3675,1.87175 1.4375,3.32227 1.66448,0.86074 3.30611,2.01835 3.64844,2.57226 1.13779,1.84097 -6.82335,0.96566 -13.38477,-1.4707 -6.27391,-2.3296 -10.06185,-4.90494 -8.9082,-6.05859 0.90706,-0.90707 10.82067,-2.13488 14.97265,-2.00391 z m 68.59375,6.5625 c 5.26057,0.0433 10.59089,1.91131 12.27735,5.0625 1.01762,1.90144 0.92108,2.46542 -0.61133,3.58594 -3.84484,2.81142 -22.06402,0.14803 -23.19336,-3.39063 -0.21416,-0.67105 1.1077,-2.13364 2.93555,-3.24804 2.30534,-1.40552 5.43546,-2.03576 8.59179,-2.00977 z m -81.58789,4.02539 c 1.0452,-0.0709 3.56599,0.62936 7.53125,2.10547 8.33572,3.10305 13.28711,6.47114 13.28711,9.03711 0,2.86947 -12.19707,-2.51935 -19.5,-8.61524 -1.93357,-1.61399 -2.36356,-2.4564 -1.31836,-2.52734 z m 212.64844,0.95117 c 2.15378,0.11797 4.51535,1.10272 7.40234,2.9336 4.91337,3.11596 7.27217,6.31164 6.37696,8.64453 -0.69997,1.82409 -1.11432,1.75436 -7.10938,-1.19922 -4.97792,-2.45246 -8.65259,-2.63314 -16,-0.78906 -3.66515,0.9199 -3.1593,-1.16491 1.38282,-5.70703 2.75391,-2.75392 5.17812,-4.03449 7.94726,-3.88282 z m -172.83008,1 c 7.96293,0 20.28902,2.02686 23.5,3.86328 2.13339,1.22012 3.46727,3.14791 4.61914,6.67578 2.67907,8.20534 3.10996,13.08927 1.31055,14.88868 -1.72802,1.72802 -1.93482,1.74079 -8.42969,0.48047 -15.60967,-3.02903 -23.26407,-5.2608 -26.02734,-7.58594 -2.71985,-2.2886 -2.97266,-3.03693 -2.97266,-8.83985 0,-7.92259 1.31683,-9.48242 8,-9.48242 z m 72.5,1.85352 3.5,0.64062 c 1.925,0.35186 8.31261,1.20754 14.19336,1.90235 5.88075,0.69481 11.39325,1.8456 12.25,2.55664 2.22339,1.84525 1.99275,6.74349 -0.37695,8.01172 -2.49844,1.33712 -2.58519,1.32479 -9.06641,-1.27149 -7.47806,-2.9956 -15.00473,-7.03361 -18.00976,-9.66211 z m 61.54688,3.32226 c 15.00305,0.27817 17.95223,0.5916 20.35351,2.16602 2.96489,1.94395 8.38306,12.54987 9.30079,18.20508 0.46671,2.87607 0.20215,3.29196 -2.74219,4.31836 -6.01219,2.09586 -23.47828,0.87039 -34.89063,-2.44727 -12.50718,-3.63594 -18.37924,-8.82989 -17.86914,-15.80469 0.27941,-3.82039 0.58526,-4.20644 4.30078,-5.4375 2.88488,-0.9558 8.89246,-1.23463 21.54688,-1 z m -75.7461,0.19141 c 1.7609,-1.7609 101.30705,41.99475 104.57227,45.96484 1.19539,1.45344 1.13089,1.66316 -0.5,1.63086 -7.24589,-0.14331 -106.24781,-45.42017 -104.07227,-47.5957 z m -14.72851,3.63281 c 8.36615,0 9.87808,2.33059 12.97656,20 1.59107,9.07325 0.64505,11.91219 -4.56055,13.69336 -1.91855,0.65645 -5.16502,1.219 -7.21484,1.25 -5.19009,0.0786 -6.72403,-2.70576 -8.37695,-15.20898 -2.41893,-18.29748 -1.89589,-19.73438 7.17578,-19.73438 z m 157.82226,0.23242 c 0.89451,-0.0257 2.00688,0.20638 3.38672,0.64063 5.55773,1.74905 23.59302,11.47683 23.41016,12.62695 -0.0874,0.55 -2.52723,1.13254 -5.42383,1.29297 -2.89661,0.16044 -8.90284,0.94794 -13.3457,1.75 -4.44286,0.80207 -8.28919,1.45703 -8.54883,1.45703 -1.83685,0 -2.87305,-3.27054 -2.87305,-9.07617 0,-6.21631 0.71101,-8.61425 3.39453,-8.69141 z m -9.52148,1.76758 c 0.004,-3.1e-4 0.006,0 0.01,0 0.91723,0 2.07971,3.34754 2.10351,6.0586 0.008,0.85738 -0.64757,2.43238 -1.45508,3.5 -1.34654,1.78029 -1.4708,1.46496 -1.5,-3.8086 -0.0173,-3.13779 0.36135,-5.71001 0.8418,-5.75 z m -20.54297,1.00196 c 0.8909,-0.0412 2.09961,0.34704 3.70899,1.01367 6.21782,2.5755 11.96724,12.44161 14.05273,24.11133 0.97486,5.45488 0.96351,7.10243 -0.0606,8.33593 -0.83377,1.00463 -2.99289,1.53711 -6.23047,1.53711 -4.10501,0 -5.43941,-0.48433 -7.7832,-2.82812 -3.75057,-3.75058 -5.07619,-8.58497 -5.73242,-20.90235 -0.4395,-8.24938 -0.23183,-11.16222 2.04492,-11.26757 z m -110.40234,4.61914 c 1.16353,-0.0683 3.35308,0.64011 7.67968,2.35546 9.91711,3.93174 19.7554,9.21154 19.60938,10.52344 -0.16119,1.44811 -1.74333,1.44578 -11.08203,-0.0234 -11.26568,-1.77267 -12.39039,-2.10283 -15.47266,-4.52734 -2.65509,-2.08849 -3.38582,-5.25985 -1.79101,-7.77539 0.20956,-0.33055 0.52776,-0.52171 1.05664,-0.55273 z m 19.47656,17.76953 c 11.67239,-0.43885 27.49029,2.18409 40.66406,7.46679 9.09772,3.6482 24.93164,11.07327 24.93164,11.69141 0,1.13242 -62.35871,-0.98965 -71,-2.41601 -5.22792,-0.86298 -7.03819,-1.66951 -9.25,-4.11915 -3.35954,-3.72077 -3.44308,-5.41238 -0.41406,-8.4414 2.55342,-2.55343 8.06492,-3.91833 15.06836,-4.18164 z m 68.41992,0.74414 c 1.35942,-0.1376 3.63363,-0.12299 7.13867,0.0117 10.11911,0.38929 12.03711,1.50257 12.03711,6.98633 0,1.51241 -0.3375,2.92683 -0.75,3.14453 -1.1847,0.62523 -19.61124,-7.85915 -20.07226,-9.24219 -0.15788,-0.47365 0.28707,-0.76279 1.64648,-0.90039 z m -97.73437,15.15039 c 4.63684,0.006 8.36351,0.81374 6.75976,1.83008 -1.75335,1.11102 -13.94706,1.10988 -15.70117,-0.002 -0.89294,-0.56584 0.52041,-1.09163 4.16406,-1.54687 1.58424,-0.19794 3.23173,-0.28338 4.77735,-0.28125 z m 124.44531,2.17578 c 1.00877,-0.0405 2.07985,-0.0344 3.16211,0.0215 1.44301,0.0745 2.90516,0.23861 4.26758,0.5 5.03248,0.96554 8.02736,2.41755 6.96875,3.37891 -0.76813,0.69758 -13.35144,1.43488 -15.9336,0.93359 -2.97537,-0.57762 -5.17358,-2.20515 -4.48437,-3.32031 0.52736,-0.85328 2.99322,-1.39206 6.01953,-1.51367 z m -80.8418,5.98633 c 31.95107,0.50314 73.25358,3.21062 123.80664,8.12305 79.33537,7.70929 167.3077,20.03165 160.9121,22.53906 -1.0521,0.41245 -17.2121,0.71291 -35.9121,0.66601 -72.23613,-0.18107 -271.93865,-8.57895 -315,-13.24609 -16.00919,-1.73514 -18.5,-2.27444 -18.5,-4.00586 0,-1.61699 9.97169,-6.87812 17,-8.96875 13.14267,-3.90939 35.74229,-5.61057 67.69336,-5.10742 z m -75.00195,23.5625 c 30.79677,0.035 244.3127,9.89944 281.30859,12.99609 6.325,0.52941 12.85,1.04273 14.5,1.14063 0.27715,0.0164 0.42531,0.0418 0.45508,0.0742 l 0.002,0.002 0.002,0.002 v 0.002 0.002 l 0.002,0.002 v 0.002 0.002 0.002 0.002 l -0.002,0.002 v 0.002 l -0.002,0.002 c -0.14112,0.16903 -2.83418,0.49144 -6.95703,0.80664 -18.2455,1.39494 -160.21289,0.0263 -204,-1.96679 -54.37682,-2.47509 -79.59328,-5.04139 -88.56445,-9.00977 -7.1752,-3.17393 -6.45288,-4.07545 3.25586,-4.06445 z m 35.50586,17.00586 c 0.40119,-0.0115 0.80706,-0.006 1.21094,0.0156 1.07699,0.0583 2.13302,0.24003 3.0039,0.57422 0.86682,0.33264 1.32774,1.00764 1.02344,1.5 -0.3043,0.49237 -2.52547,0.89453 -4.93555,0.89453 -2.41008,0 -4.63124,-0.40216 -4.93554,-0.89453 -0.70756,-1.14485 1.82448,-2.0091 4.63281,-2.08984 z m 38.02148,1.55469 c 17.84185,0.0805 30.73513,1.81954 34.30664,4.6289 2.13236,1.67731 2.47461,2.76172 2.47461,7.83984 0,5.18998 -0.37775,6.32239 -3.16601,9.49805 -3.37447,3.84331 -18.3293,11.62737 -29.55274,15.38281 -8.17996,2.73707 -11.46321,2.64082 -15.13086,-0.44531 -2.33285,-1.96295 -3.35317,-4.07015 -4.57617,-9.44726 -1.73113,-7.61121 -2.09496,-23.6607 -0.58984,-26.02735 0.78318,-1.23149 3.68902,-1.4863 16.23437,-1.42968 z m 67.33203,1.69726 c 0.66291,0.013 1.276,0.11398 1.8086,0.31836 2.29929,0.88231 1.23018,2.08234 -4.39649,4.93359 -5.45479,2.76415 -6.54295,2.96743 -7.50781,1.40625 -1.58852,-2.57027 5.45535,-6.7489 10.0957,-6.6582 z m -101.03515,3.73242 c 8.60232,0 10.78868,4.241 14.09765,27.35352 1.89307,13.22281 1.5357,16.84932 -1.8789,19.08398 -3.3701,2.20554 -9.90005,2.95186 -12.01563,1.37305 -2.30717,-1.7218 -4.2001,-9.30646 -6.15039,-24.65234 -2.67147,-21.02058 -2.1224,-23.15821 5.94727,-23.15821 z m 166.20703,0.15625 c 16.50835,0.46556 16.62886,0.58013 17.13476,16.51758 0.4561,14.3672 -0.61824,18.69881 -5.01757,20.23242 -3.48492,1.21485 -16.19444,1.27761 -22.25782,0.10938 -4.72249,-0.90988 -6.58203,-3.17752 -6.58203,-8.0293 0,-1.99796 -0.70683,-7.74668 -1.57031,-12.77344 -2.13985,-12.45722 -1.82285,-14.36721 2.57031,-15.5 1.925,-0.49639 9.00015,-0.74623 15.72266,-0.55664 z m -49.625,0.15625 c 0.35355,-6.9e-4 0.59849,0.0564 0.7168,0.17578 1.08288,1.09284 -4.61252,5.15133 -13.31446,9.48828 -9.37975,4.67481 -12.97175,5.6864 -14.04297,3.95313 -0.94697,-1.53223 1.09637,-3.11089 9.54297,-7.37109 6.83284,-3.44626 14.62282,-6.24127 17.09766,-6.2461 z m 16.01953,3.6875 c 6.57886,0 9.88281,3.01737 9.88281,9.02344 0,2.26246 0.72052,9.04353 1.60157,15.07031 1.75846,12.02865 1.49811,14.77424 -1.58594,16.67969 -1.13245,0.69967 -4.0272,1.54126 -6.4336,1.87109 -3.87555,0.5312 -4.55894,0.31982 -5.97656,-1.84375 -1.64948,-2.51742 -4.10892,-16.57153 -5.22461,-29.85156 -0.78916,-9.39339 0.3093,-10.94922 7.73633,-10.94922 z m -53.5918,0.01 c 1.95584,-0.0988 4.15262,0.93371 5.1875,2.99023 1.55639,3.09282 1.72505,24.88236 0.23438,30.25 -1.2113,4.36167 -4.55193,5.28387 -5.43359,1.5 -1.95292,-8.38094 -4.28071,-30.22956 -3.45313,-32.40625 0.56851,-1.49528 1.94364,-2.25712 3.46484,-2.33398 z m 116.30469,3.29492 c 0.54925,-0.0314 1.05902,0.18402 1.52344,0.64844 2.88779,2.88779 1.00556,24.60011 -3.08789,35.625 -3.93904,10.60902 -6.68214,4.1096 -6.09375,-14.43946 0.34921,-11.00874 0.70715,-13.17985 2.77344,-16.84179 1.81971,-3.22496 3.48112,-4.91191 4.88476,-4.99219 z m 619.66992,1.63867 c 5.7252,-1.18418 70.6583,-1.13328 72.5,0.0566 0.981,0.634 -11.9927,0.9363 -37.5,0.8711 -23.4046,-0.0598 -37.4005,-0.43122 -35,-0.92774 z m -697.56054,0.58008 c 0.15868,-0.004 0.28822,0.01 0.38476,0.0469 1.27302,0.4885 3.81497,14.85624 4.05664,22.92968 l 0.11914,4 -6.5,0.20313 c -16.83015,0.52589 -26.50557,-7.19412 -19.48047,-15.54297 2.7347,-3.25001 18.19338,-11.54994 21.41993,-11.63672 z m 808.64254,7.72656 c 0.4133,0.4125 0.5631,0.92866 0.334,1.14649 -0.2292,0.21784 -7.391,0.90164 -15.916,1.51953 -33.8946,2.45664 -110.9326,1.98379 -118,-0.72461 -2.291,-0.87795 -2.0819,-1.02782 2.5,-1.7793 6.276,-1.02934 130.0604,-1.18241 131.082,-0.16211 z m -675.57223,2.10742 c 0.0504,-10e-4 0.0992,-0.001 0.14648,0.002 0.58813,0.0408 0.94813,0.43079 1.46289,1.13476 1.8516,2.53219 8.81849,18.71649 12.83789,29.82032 1.9286,5.32784 3.17809,9.64189 2.77539,9.58789 -2.3159,-0.31074 -48.02221,-22.43489 -47.63671,-23.0586 0.5791,-0.93709 20.32063,-12.80894 26.33593,-15.83789 2.18833,-1.1019 3.32191,-1.62979 4.07813,-1.64844 z m 687.90233,4.02149 c 2.7282,0.13646 2.7163,2.48507 0.1699,7.41211 -2.634,5.0966 -9.6721,11.69279 -15.082,14.13476 -5.2969,2.39097 -14.5668,2.64379 -20.2617,0.55274 -6.3454,-2.32995 -17.3852,-8.47308 -19.75,-10.99024 -5.284,-5.6246 -0.2153,-7.20741 27.2246,-8.5 11.1583,-0.52563 21.9809,-1.43677 24.0508,-2.02343 1.5258,-0.43247 2.739,-0.63143 3.6484,-0.58594 z m -550.7402,0.62109 h 0 c 0,-6e-5 0.01,0 0.012,0 2.0018,0 0.043,8.00761 -3.3575,13.72656 -4.0808,6.86272 -14.0872,17.82847 -18.2636,20.01368 -1.6909,0.88476 -5.5492,2.23275 -8.5743,2.99609 -6.3538,1.60334 -50.67556,2.69994 -55.49996,1.37305 -8.6515,-2.37949 -30.77318,-12.12363 -31.98828,-14.08985 -1.1255,-1.82101 3.14428,-1.08833 15.17968,2.60352 35.04826,10.75105 52.15766,11.83195 70.31836,4.44141 11.6804,-4.75338 15.9816,-8.59345 25.5606,-22.81446 3.0325,-4.50205 5.9915,-8.19262 6.6113,-8.25 z m -317.45315,0.25782 c 0.33928,-9.6e-4 -0.0519,0.45417 -1.03906,1.54492 -1.9576,2.16312 -29.86688,16.68733 -39.60156,20.60937 -7.71304,3.10754 -9.43149,3.23201 -6.07813,0.43945 3.80631,-3.16975 32.33537,-17.13618 44.95313,-22.00781 0.95996,-0.37063 1.53349,-0.58529 1.76562,-0.58593 z m 781.22265,2.73046 c 1.1346,-0.0278 2.2143,0.77965 2.6309,2.43946 0.6445,2.56754 0.338,3.92603 -2.7715,12.32226 -1.0694,2.8875 -2.3627,5.25 -2.8731,5.25 -1.233,0 -1.1956,-14.16739 0.047,-17.43359 0.641,-1.68575 1.8322,-2.55029 2.9668,-2.57813 z m -41.7539,0.01 c 0.5155,-0.002 0.8125,0.57202 0.8125,1.81445 0,5.90848 -11.2375,38.22371 -15.9746,45.9375 -2.9544,4.81092 -4.3921,4.20418 -3.5547,-1.5 0.8368,-5.70026 7.6179,-26.93913 11.1543,-34.93554 3.0488,-6.89386 6.1374,-11.30971 7.5625,-11.31641 z m -406.7246,0.002 c 3.3491,0 9.6789,0.43301 14.0644,0.96094 4.3856,0.52794 17.4227,1.65016 28.9727,2.49414 52.6411,3.84656 59.5,4.93903 59.5,9.48242 0,1.19982 -1.1614,2.28564 -3.25,3.03711 -3.9071,1.40574 -39.0028,2.92342 -68.9414,2.98242 -21.4547,0.0423 -29.068,1.19459 -16.0391,2.42579 3.7017,0.34978 14.8305,1.05668 24.7305,1.57226 9.9,0.51557 28.242,1.48791 40.7598,2.16016 l 22.7597,1.22265 -0.2597,47.55469 -0.2598,47.55664 -105.5,13.16797 c -99.91276,12.47026 -131.431,16.43877 -158,19.89258 -6.325,0.82221 -12.63383,1.73159 -14.01953,2.02148 -1.4189,0.29684 -3.3846,-0.10628 -4.5,-0.92187 -1.8282,-1.33679 -1.98047,-2.65368 -1.98047,-17.11719 0,-15.26066 0.0621,-15.71825 2.36133,-17.58008 1.913,-1.54906 3.9994,-1.91503 11,-1.92773 25.4973,-0.0462 101.35117,-16.34138 113.68357,-24.42188 2.5067,-1.64242 2.5463,-1.80376 0.8946,-3.6289 -7.2251,-7.98364 -79.8466,-36.37443 -123.6895,-48.35547 -20.19258,-5.51808 -23.68698,-7.87454 -24.51953,-16.53907 -0.62522,-6.50678 0.6416,-8.04115 6.64258,-8.03515 4.5179,0.004 8.42295,1.23609 44.12695,13.90234 17.0438,6.04642 22.43137,6.48113 22.60157,1.82617 0.0556,-1.5223 0.35777,-3.02388 0.67187,-3.33789 0.314,-0.31402 5.79452,1.26238 12.17774,3.50391 47.30822,16.61285 85.61162,8.68145 100.93162,-20.90039 5.932,-11.45431 7.7214,-12.99805 15.0801,-12.99805 z m 464.1289,0.0645 c 0.8213,-0.0391 1.4082,0.53551 1.4082,1.77539 0,2.04609 -10.6026,31.96127 -14.9766,42.25586 -1.541,3.62691 -3.9828,8.46441 -5.4257,10.75 -3.1528,4.99434 -4.7684,5.36352 -3.9512,0.90429 1.8114,-9.8835 15.4837,-46.71973 19.7676,-53.25781 1.0151,-1.54929 2.2469,-2.38343 3.1777,-2.42773 z m -1106.8418,3.46875 c 6.95693,-0.80187 44.27898,1.75305 59.5,4.07226 l 3.75,0.57031 -0.0312,57.66211 c -0.0313,57.60949 -0.93637,86.32067 -2.88476,91.44532 -0.71944,1.89227 -1.72503,2.699 -3.3086,2.6582 -6.4574,-0.16655 -66.07609,-20.14184 -112.27539,-37.61914 -42.49208,-16.07485 -55.8641,-19.00868 -80.66797,-17.69922 -14.97957,0.7908 -15.84172,0.41279 -18.38085,-8.03711 -3.00676,-10.00608 -3.71824,-19.43127 -2.06641,-27.35352 4.43592,-21.27478 22.17902,-37.7817 52.11523,-48.48242 8.63008,-3.08483 32.7535,-9.30193 41.41211,-10.67383 6.09738,-0.96609 6.52134,-0.90035 8.59571,1.33789 3.14822,3.39699 13.5469,4.90231 30.35937,4.39649 11.20078,-0.33698 14.47998,-0.79317 18.38281,-2.55469 5.29448,-2.38962 6.09684,-4.68477 2.25,-6.4375 -3.83474,-1.74723 -3.02989,-2.56132 3.25,-3.28515 z m 1063.8652,0.16601 c 0.9727,-0.0267 2.1258,-0.0103 3.5176,0.0371 9.836,0.33487 12.4598,1.95175 13.7891,8.50195 1.7052,8.40259 1.8282,24.12885 0.2051,26.09766 -1.0916,1.32409 -3.0357,1.63987 -9.5,1.54688 -15.2095,-0.2188 -23.8667,-2.58047 -24.4493,-6.66993 -0.441,-3.09501 8.3941,-25.5157 10.9707,-27.83984 1.254,-1.13114 2.5489,-1.59369 5.4668,-1.67383 z m 93.3848,0.30078 c -6.4907,0 -9.8965,0.3585 -9.5,1 0.3399,0.55 4.6149,1 9.5,1 4.8851,0 9.1601,-0.45 9.5,-1 0.3965,-0.6415 -3.0093,-1 -9.5,-1 z m -120.9687,0.23633 c 1.8343,-0.03 1.6423,2.58664 -0.5313,8.36133 -3.52,9.35186 -4.5,10.03821 -4.5,3.15039 0,-6.15927 1.4043,-10.30427 3.8027,-11.22461 0.479,-0.18379 0.8889,-0.28155 1.2286,-0.28711 z M 540.93945,618.625 c 11.72944,-1.13183 38.53961,-0.24178 107.21875,3.55859 5.5,0.30434 11.9125,0.78934 14.25,1.07813 l 4.25,0.52539 -0.0351,73.68945 c -0.0346,72.3038 -0.77908,98.10299 -2.94727,102.1543 -0.92992,1.73756 -1.99046,2.01284 -7.30273,1.88476 -7.58991,-0.18299 -7.43811,-0.16314 -32.53321,-4.44531 -28.34525,-4.83677 -61.24483,-11.52488 -83.89843,-17.05664 l -19.21875,-4.69336 -0.28125,-40.07812 c -0.34784,-49.35657 0.61072,-93.0608 2.12695,-96.92969 0.74354,-1.89724 1.61478,-2.66066 2.60352,-2.28125 1.9596,0.75197 1.88071,0.0801 -0.58985,-5.02344 -3.94218,-8.14346 -0.49043,-10.75708 16.35742,-12.38281 z m 668.48435,2.16211 c 7.1326,0.0725 24.1108,1.7018 67.2344,5.91016 5.775,0.56357 15.225,1.47179 21,2.01953 18.3078,1.73645 29.0575,2.7942 45.5,4.47461 8.8,0.89935 23.65,2.38666 33,3.30468 l 17,1.66797 v 33.5 c 0,18.425 -0.3405,35.09948 -0.7578,37.05469 l -0.7598,3.55469 -24.2402,2.71875 c -37.1423,4.16299 -112.8036,12.33589 -126.2422,13.63672 -32.8426,3.17907 -34.1774,3.12425 -36.4883,-1.46485 -1.2633,-2.50868 -1.5638,-10.16514 -1.8281,-46.75 l -0.3145,-43.75 h 4.4571 c 19.5221,0 103.1874,4.97693 135.6738,8.07032 24.2868,2.31259 36.5,2.2978 36.5,-0.043 0,-1.82384 -3.7003,-2.4915 -24.8906,-4.49219 -31.2674,-2.95213 -72.4777,-5.53867 -104.1094,-6.53516 -31.6091,-0.99578 -38.0075,-1.66012 -43.5332,-4.51758 -3.2922,-1.70248 -4.6484,-4.95592 -2.9277,-7.02929 0.7105,-0.85614 1.447,-1.37355 5.7265,-1.33008 z m 356.5508,1.32812 c 0.5556,-0.0622 0.7365,5.45843 0.5059,15.63477 -0.3096,13.66131 -0.6828,17.05487 -2.1211,19.25 -1.2163,1.85637 -2.6132,2.66406 -4.6016,2.66406 -4.1441,0 -5.4802,-2.16555 -4.793,-7.76758 0.5757,-4.69243 9.0711,-27.81151 10.9258,-29.73242 0.029,-0.0302 0.057,-0.0458 0.084,-0.0488 z m -886.84765,0.75586 c 1.45398,0.0381 2.80806,0.28003 3.35352,0.63672 1.6046,1.0493 3.1218,7.18112 3.1543,12.75 0.0323,5.54183 3.73315,12.24464 8.0332,14.55078 7.96871,4.27367 17.50648,1.03252 29.39453,-9.99023 4.27308,-3.96205 10.3202,-8.37032 13.9043,-10.13477 9.46135,-4.65781 22.78707,-6.01824 25.61132,-2.61523 2.15477,2.59631 -3.59339,6.4062 -16.44335,10.89648 -13.11931,4.58441 -14.77134,5.34744 -22.72852,10.50586 -8.44757,5.47632 -16.21502,14.07441 -18.25,20.20118 -1.25988,3.79313 -1.34214,5.6236 -0.4375,9.84179 3.39691,15.83924 23.39091,32.13204 50.29102,40.98047 24.91089,8.1941 52.97857,11.38951 115.59179,13.16211 20.5933,0.583 37.6933,1.31069 38,1.61719 0.3067,0.3065 0.55664,12.33275 0.55664,26.72461 0,34.77337 -1.61932,44.46708 -7.78711,46.61718 -2.85337,0.99469 -8.17808,1.15644 -13.71289,0.41602 -3.23051,-0.43217 -135.74372,-4.6182 -189.58789,-5.98828 l -27.08789,-0.6875 -0.5918,-66.0957 c -0.63792,-71.17221 0.10665,-105.39139 2.4004,-110.19922 1.08336,-2.27078 2.13532,-2.95154 4.875,-3.15625 0.48027,-0.0359 0.97627,-0.0459 1.46093,-0.0332 z m 123.03125,3.39453 c 10.51019,0.0399 14,1.63395 14,6.39844 0,4.29346 -0.29723,4.34065 -12.80468,1.9961 -19.13764,-3.58741 -19.83266,-8.46519 -1.19532,-8.39454 z m 56.39453,0.0469 c 9.18983,-0.1518 12.76934,0.71947 13.58985,3.30469 0.74967,2.36198 -1.80296,7.61296 -4.36914,8.98633 -6.2095,3.32323 -13.76843,1.63831 -18.64258,-4.1543 -4.81068,-5.71716 -2.23257,-7.9442 9.42187,-8.13672 z m -83.39453,4.15234 c 2.035,0 4.19578,0.49461 4.80078,1.09961 0.8,0.8 -0.50987,1.09961 -4.80078,1.09961 -4.29091,0 -5.59883,-0.29961 -4.79882,-1.09961 0.605,-0.605 2.76382,-1.09961 4.79882,-1.09961 z m -71.21093,7.25586 c 4.8508,0.0591 8.19366,0.84315 10.28711,2.39063 1.82599,1.34982 1.73603,1.50258 -1.79297,2.98828 -5.69163,2.39615 -20.48431,1.83377 -22.72266,-0.86328 -1.83903,-2.21589 1.40296,-3.80007 8.86523,-4.33399 1.9613,-0.14033 3.74635,-0.20132 5.36329,-0.18164 z m 177.97461,1.97657 c 5.46217,0.26621 11.16168,2.44591 8.5332,4.11328 -1.39094,0.88233 -12.47313,1.02818 -14.54688,0.1914 -2.15886,-0.87112 -1.36038,-3.27104 1.31055,-3.9414 0.73704,-0.18499 1.55013,-0.29962 2.40234,-0.35352 0.74569,-0.0472 1.52047,-0.0466 2.30079,-0.01 z m -76.11524,1.0625 c 20.38257,0.42046 92.64065,12.69863 107.53711,19.00585 7.5273,3.18724 8.86384,8.32032 7.49414,28.79883 -0.7476,11.17723 -1.05493,12.58167 -3.11523,14.25 -2.8315,2.29284 -7.40759,2.26935 -30.56446,-0.15429 -40.43593,-4.2321 -79.75478,-11.31226 -86.16992,-15.51563 -4.05061,-2.65406 -4.60356,-5.74261 -3.93164,-21.98047 0.63246,-15.28411 1.60967,-21.90654 3.50977,-23.80664 0.47596,-0.47596 2.32844,-0.65772 5.24023,-0.59765 z m -24.0625,0.52734 c 3.77846,0.18557 6.46811,0.68096 8.04883,1.48828 0.89849,0.45889 1.91858,2.35646 2.26758,4.2168 0.57086,3.04296 -1.64065,29.85393 -2.92188,35.42187 -0.28476,1.2375 -1.07298,2.2225 -1.75,2.1875 -0.67702,-0.035 -6.40547,-2.1084 -12.73047,-4.60547 -31.51752,-12.44293 -45.63058,-16.06831 -56.06054,-14.40234 -2.9914,0.47782 -5.66446,0.64281 -5.93946,0.36523 -0.275,-0.27757 2.31982,-3.10852 5.76563,-6.28906 11.47304,-10.58977 27.25893,-16.42202 48.73437,-18.00586 5.93906,-0.43801 10.80748,-0.56252 14.58594,-0.37695 z m 627.07616,0.082 c 5.1231,-0.21123 13.3039,0.67053 26.8379,2.72656 36.3005,5.5146 39.7747,6.72004 41.2773,14.31836 0.9416,4.76163 5.719,10.25 8.9219,10.25 1.2068,0 4.5592,-2.61603 8.1738,-6.3789 3.875,-4.0336 7.2299,-6.60594 9.127,-6.99805 3.8361,-0.79288 20.5811,2.65714 24.7871,5.10742 2.8094,1.6366 3.2795,2.52474 3.7402,7.0625 0.6323,6.22698 2.6877,8.60742 7.4317,8.60742 4.1346,0 8.541,-3.61212 8.541,-7.00195 0,-3.06669 2.5631,-5.39844 5.9356,-5.39844 3.8739,0 33.8785,5.47718 49.5644,9.04688 15.1703,3.45237 21.7492,5.70917 21.2246,7.2832 -1.0501,3.1501 -8.7853,4.2894 -148.2246,21.83008 -82.5747,10.38743 -73.9055,9.6748 -76.1504,6.25195 -1.6561,-2.52513 -1.883,-5.54568 -2.1719,-28.98828 -0.3554,-28.84381 0.211,-33.32117 4.5703,-36.17578 1.3682,-0.89589 3.3402,-1.41623 6.4141,-1.54297 z m -479.15038,22.81055 c 1.91102,-0.0976 5.8424,1.13465 16.73047,4.72656 30.5918,10.09203 74.51021,27.07295 80.97461,31.30859 1.8897,1.23815 2.2167,1.91742 1.3418,2.79297 -0.8363,0.83697 -15.2735,1.24664 -52.20313,1.48047 l -51.04492,0.32227 0.3457,-19.03907 c 0.2945,-16.26211 0.59147,-19.28586 2.03907,-20.73242 0.49768,-0.49733 0.94776,-0.81503 1.8164,-0.85937 z m -206.36328,7.43554 c 4.25254,-0.0969 9.77534,0.73511 16.56055,2.49805 17.70413,4.59992 41.94424,14.10931 46.33203,18.17578 2.429,2.25112 2.6422,2.98513 2.08984,7.19141 -0.33831,2.57625 -0.87175,7.83359 -1.18554,11.68359 -0.3138,3.85 -0.77654,8.0125 -1.02735,9.25 -0.5075,2.504 -3.19266,2.82033 -9.41797,1.10742 -22.80668,-6.27531 -45.09571,-16.57016 -54.61914,-25.22656 -6.91567,-6.28604 -9.38086,-10.61023 -9.38086,-16.45898 0,-5.3166 3.56088,-8.05925 10.64844,-8.22071 z m 79.74609,24.0918 c 4.5579,0.0778 11.06381,1.02962 20.76954,2.87891 21.42214,4.0817 41.30265,6.82258 62.33593,8.59375 28.61107,2.40928 31.51238,3.41443 31.48438,10.89062 -0.0194,5.19744 -0.81508,6.39962 -5.04688,7.61328 -4.00443,1.14843 -84.94656,1.08571 -101.16406,-0.0781 -19.39102,-1.39173 -21.13364,-2.74106 -20.625,-15.96875 0.32988,-8.57858 0.52655,-9.29558 3.1582,-11.5586 1.91982,-1.65089 4.52999,-2.44887 9.08789,-2.37109 z m 200.45897,15.27149 c 3.9439,0.13257 3.8702,0.49818 2.3945,1.18359 -5.6322,2.61606 -31.97856,7.375 -52.47456,9.47851 -21.5996,2.21678 -26.11035,2.36359 -29.59375,0.9668 -2.9866,-1.19754 -2.59509,-4.57218 0.82031,-7.07226 3.7154,-2.71961 15.94303,-3.73494 52.36133,-4.34571 14.58798,-0.24465 22.54841,-0.3435 26.49217,-0.21093 z m -668.31443,9.57031 c 11.95033,0.0393 25.01981,4.00704 53.46093,14.88672 17.94424,6.86427 56.35779,20.61943 83,29.72265 27.94512,9.54841 38.37551,13.9595 41.64258,17.61133 2.74643,3.06989 3.90195,8.22004 2.15234,9.5918 -3.25977,2.55581 -8.65136,2.13227 -47.61523,-3.73242 -74.8313,-11.26332 -126.88883,-29.17147 -149.78711,-51.52735 -10.26163,-10.01856 -9.32853,-12.86837 5.04102,-15.39453 4.26248,-0.74934 8.12202,-1.17131 12.10547,-1.1582 z m 793.15823,26.15625 c 3.2784,0 6.4071,0.31888 6.8027,0.95898 0.3934,0.63645 -2.4031,0.99438 -7.6914,0.98438 -5.734,-0.0106 -7.8437,-0.31542 -6.8086,-0.98438 0.9905,-0.6401 4.4188,-0.95898 7.6973,-0.95898 z m -23.1973,3.99219 c 9.5009,0.09 -9.7294,4.00662 -51.5,10.49023 -31.5749,4.90104 -78.0959,12.85677 -96.5,16.50195 -8.25,1.63402 -19.5,3.64382 -25,4.4668 -5.5,0.82299 -11.40685,1.49895 -13.12695,1.50195 -3.4469,0.007 -5.90676,-2.15625 -5.03516,-4.42773 1.8417,-4.7994 13.05655,-6.82123 105.66211,-19.03711 31.5093,-4.15649 80.0526,-9.54769 85.5,-9.49609 z m -580.79297,32.15625 c 1.76372,-0.17058 16.83872,2.89628 33.5,6.81445 40.93579,9.62669 42.79297,10.10856 42.79297,11.11719 0,1.18846 -2.06215,1.06435 -36,-2.17969 -41.69631,-3.98566 -44.52273,-4.76608 -43.82031,-12.09766 0.28275,-2.95125 0.69683,-3.38055 3.52734,-3.65429 z m -234.91796,85.27734 c -1.00641,-0.006 -1.60838,3.02547 -1.05469,5.92187 0.27208,1.42333 0.89375,2.34207 1.38086,2.04102 1.15218,-0.71209 1.15062,-7.14723 -0.002,-7.85937 -0.11192,-0.0692 -0.2201,-0.10288 -0.32421,-0.10352 z" />
  </g>
</svg>
