<?xml version="1.0" encoding="UTF-8" standalone="no"?>
<!-- Created with Inkscape (http://www.inkscape.org/) -->

<svg
   version="1.1"
   id="svg1"
   width="930"
   height="697"
   viewBox="0 0 930 697"
   sodipodi:docname="teste-avion-pcb.svg"
   inkscape:version="1.4.4 (dcaf3e7, 2026-05-05)"
   xmlns:inkscape="http://www.inkscape.org/namespaces/inkscape"
   xmlns:sodipodi="http://sodipodi.sourceforge.net/DTD/sodipodi-0.dtd"
   xmlns="http://www.w3.org/2000/svg"
   xmlns:svg="http://www.w3.org/2000/svg">
  <defs
     id="defs1" />
  <sodipodi:namedview
     id="namedview1"
     pagecolor="#ffffff"
     bordercolor="#000000"
     borderopacity="0.25"
     inkscape:showpageshadow="2"
     inkscape:pageopacity="0.0"
     inkscape:pagecheckerboard="0"
     inkscape:deskcolor="#d1d1d1"
     inkscape:zoom="1.5684176"
     inkscape:cx="489.02791"
     inkscape:cy="337.60141"
     inkscape:window-width="1920"
     inkscape:window-height="991"
     inkscape:window-x="-9"
     inkscape:window-y="-9"
     inkscape:window-maximized="1"
     inkscape:current-layer="g1" />
  <g
     inkscape:groupmode="layer"
     inkscape:label="Image"
     id="g1">
    <path
       id="path1"
       style="fill:#000000"
       d="m 487.61719,137.60352 c -220.54748,-0.20442 -278.10024,3e-4 -281.13867,1 -2.74084,0.90179 -4.48087,2.38626 -6.1543,5.25586 l -2.33203,4 0.34375,177.5 c 0.33719,174.12261 0.3808,177.56464 2.30273,180.88671 1.14196,1.9739 3.6275,4.15514 5.95899,5.22852 3.84193,1.7687 11.8048,1.84103 201.5,1.86133 l 197.5,0.0215 6,-2.9043 c 4.11252,-1.99119 8.67392,-5.60056 14.5,-11.4746 4.675,-4.71349 8.80613,-8.58045 9.17968,-8.59375 0.37355,-0.0133 3.29855,2.72137 6.5,6.07812 3.20145,3.35675 7.0363,6.73175 8.52149,7.5 2.98695,1.54507 8.5749,1.82582 10.61328,0.5332 1.65069,-1.04678 96.53644,-95.62053 99.79101,-99.46289 1.54202,-1.82047 2.39454,-4.08661 2.39454,-6.36523 0,-3.05475 -1.03589,-4.60324 -7.58399,-11.33203 -6.41309,-6.59006 -7.4223,-8.0775 -6.53906,-9.63477 0.5745,-1.0129 4.89632,-5.66684 9.60547,-10.34179 9.24377,-9.17672 12.09326,-13.84106 13.53515,-22.16016 1.2938,-7.46467 0.55085,-196.56653 -0.78515,-199.83984 -0.5612,-1.375 -2.22938,-3.625 -3.70703,-5 l -2.68555,-2.5 z m 217.39062,13.9746 22.40821,0.28126 -0.22852,13.84374 c -0.3058,18.46459 -1.08916,17.65625 17.08789,17.65626 h 13.86914 l -0.27344,17.75 -0.27343,17.75 -270.5,0.18554 c -148.775,0.10227 -271.4467,-0.19614 -272.60547,-0.66406 -2.03674,-0.82244 -2.10121,-1.40286 -1.88867,-17.46484 0.12092,-9.13817 0.54291,-16.93976 0.9375,-17.33594 0.39459,-0.39617 7.09345,-0.86504 14.88671,-1.04102 7.79325,-0.17598 14.56614,-0.70607 15.05079,-1.17968 0.48465,-0.47372 0.83248,-7.06002 0.77148,-14.63477 -0.0799,-9.91042 0.23419,-13.99057 1.11914,-14.55273 1.55984,-0.99084 49.84913,-1.03489 51.33203,-0.0469 0.60641,0.40408 1.35694,5.10905 1.66797,10.45508 l 0.56445,9.71875 -3.16797,0.48633 c -1.74243,0.26709 -6.99296,0.99071 -11.66796,1.60742 -7.93647,1.04696 -13.50028,2.396 -22,5.33789 -2.3962,0.82936 -3.5,1.82912 -3.5,3.16992 0,1.82589 0.74448,1.95899 11,1.95899 10.72406,-5e-5 11.00956,0.0575 11.32812,2.30468 0.55858,3.94032 -1.35283,4.94537 -10.82812,5.69532 -5.82012,0.46064 -9.34236,1.20816 -10.1211,2.14648 -1.94959,2.34912 0.26334,3.47892 8.6543,4.41992 8.88347,0.99624 12.77205,2.12194 20.4668,5.92969 3.025,1.49692 6.0625,2.52264 6.75,2.2793 0.76466,-0.27064 1.25,-2.30358 1.25,-5.23633 0,-5.64818 1.49728,-7.30744 6.18554,-6.85742 3.23273,0.3103 3.32692,0.45298 3.81446,5.71679 0.64519,6.96583 2.41745,8.24485 7.26953,5.2461 5.17473,-3.19816 13.60856,-5.86526 21.08593,-6.66602 7.13642,-0.76425 10.2961,-2.33924 9.39649,-4.68359 -0.423,-1.10232 -3.02336,-1.67842 -9.91211,-2.19727 -5.13646,-0.38686 -9.71247,-1.07556 -10.16797,-1.5293 -0.4555,-0.45374 -0.6805,-2.11581 -0.5,-3.69531 l 0.32813,-2.87304 h 11 c 10.18094,0 11,-0.14272 11,-1.91993 0,-2.47366 -10.63393,-5.86759 -25.5,-8.13867 -5.775,-0.88225 -11.48191,-1.79373 -12.6836,-2.02539 -2.10924,-0.40663 -2.16509,-0.74083 -1.61523,-9.66797 0.31327,-5.08601 1.01337,-9.81054 1.55664,-10.49804 1.43895,-1.82099 99.04777,-1.82099 100.48437,0 0.54237,0.6875 0.97339,3.27499 0.95899,5.75 -0.0144,2.47497 0.28001,6.12286 0.65429,8.10546 l 0.68165,3.60352 -8.26758,0.66406 c -4.54743,0.36516 -11.9369,1.82033 -16.41992,3.23242 -8.08937,2.54802 -8.17814,2.61135 -11.69532,8.53711 -3.52154,5.9331 -3.53107,5.98173 -1.52734,7.66407 1.10907,0.93117 2.64946,3.18985 3.42383,5.01757 1.80911,4.26999 4.105,6.17073 14.2207,11.77735 7.48212,4.14696 8.93358,4.5946 15.2168,4.6914 3.82023,0.0589 7.25607,-0.20333 7.63476,-0.58203 0.3787,-0.37869 0.96295,-2.38064 1.29883,-4.44922 l 0.61133,-3.76171 20.91211,-0.27149 c 22.45966,-0.29088 22.50886,-0.27987 22.53906,4.89844 0.0257,4.40562 2.06313,5.20983 11.27344,4.44922 12.12743,-1.00152 39.76057,-6.22796 48.9043,-9.25 11.78049,-3.89349 12.83789,-4.98808 12.83789,-13.27344 0,-11.12899 -0.5765,-12.62332 -5.86328,-15.18945 -3.8131,-1.85081 -6.94505,-2.34912 -17.63672,-2.80664 -12.29472,-0.52612 -12.98078,-0.66517 -12.66602,-2.55664 0.18305,-1.10001 0.57361,-5.15004 0.86914,-9 0.29552,-3.85001 1.04655,-7.3303 1.66797,-7.73438 1.47621,-0.9599 89.79037,-0.9599 91.23633,0 0.60869,0.40408 1.34289,4.63255 1.63281,9.39648 l 0.52734,8.66211 -10.63281,0.58985 c -12.4401,0.69109 -18.66866,1.95038 -22.13476,4.47461 -2.31106,1.68306 -2.52204,2.51899 -2.78907,11.0664 -0.33345,10.67365 0.0127,11.36635 7.28907,14.57227 12.21753,5.38296 55.35188,12.98197 62.91406,11.08398 2.12446,-0.53321 2.58594,-1.23476 2.58594,-3.92968 0,-1.80452 0.54117,-3.82047 1.20117,-4.48047 1.69468,-1.69468 39.90493,-1.69468 41.59961,0 0.66,0.66 1.19922,2.40429 1.19922,3.87695 0,4.2219 2.13967,5.25235 9.76367,4.70508 10.14864,-0.7285 24.67451,-8.89651 27.79297,-15.62891 0.93083,-2.00956 2.59401,-4.64399 3.69531,-5.85351 2.15437,-2.36607 2.1042,-2.59052 -2.01758,-9.1543 -2.45554,-3.91035 -3.49776,-4.59862 -10.23437,-6.76758 -4.125,-1.3281 -11.55,-2.98971 -16.5,-3.6914 -7.0216,-0.99539 -8.90764,-1.59456 -8.58204,-2.73047 0.22956,-0.80078 0.61608,-4.72268 0.85938,-8.71485 0.39007,-6.40054 0.69473,-7.32127 2.58203,-7.7832 1.17715,-0.28812 12.22566,-0.39552 24.55078,-0.24024 z m -252.52929,0.0176 c 23.43174,-0.18802 33.27432,0.0633 34.25,0.87305 0.87781,0.72852 1.36914,3.26763 1.36914,7.07813 0,3.26881 0.44201,6.76734 0.98046,7.77343 0.71094,1.32837 0.57399,2.16498 -0.49804,3.05469 -1.39853,1.16068 -23.88578,1.23407 -61.33985,0.19922 -10.17979,-0.28126 -10.34474,-0.32408 -9.6582,-2.5 0.38418,-1.2176 0.99516,-5.36485 1.35742,-9.21484 l 0.65821,-7 z m 213.26171,0.36524 c 1.84697,0.49557 2.21157,1.49271 2.64454,7.23633 0.27619,3.66386 0.82733,7.67459 1.22461,8.91211 l 0.72265,2.25 -28.36719,0.0996 c -15.60165,0.0549 -30.39218,0.1675 -32.86718,0.25 -2.475,0.0825 -6.00618,0.006 -7.84766,-0.16992 -2.93531,-0.28114 -3.26155,-0.5894 -2.65039,-2.5 0.38342,-1.19863 0.93368,-5.10469 1.22266,-8.67968 0.28899,-3.575 1.03131,-6.8303 1.65039,-7.23438 1.31723,-0.85976 61.10569,-1.01244 64.26757,-0.16406 z m 73.47852,2.39844 c 7.09046,0 13.51284,4.96092 14.5293,11.2246 0.73687,4.54084 -1.98024,10.37898 -5.73438,12.32032 -3.95899,2.04727 -14.50796,1.95944 -15.30859,-0.12696 -0.33385,-0.86998 -0.60742,-5.787 -0.60742,-10.92773 0,-10.88121 0.91706,-12.49023 7.12109,-12.49023 z m -512.55664,0.3164 c 2.08563,0.0526 4.18848,0.38872 5.76367,1.04688 3.70033,1.54605 3.76913,1.67197 3.70313,6.85546 -0.037,2.90436 0.0535,7.06277 0.20117,9.24024 0.22743,3.35418 -0.11437,4.15509 -2.23242,5.23633 -1.375,0.70192 -5.0717,1.28301 -8.21485,1.29101 -4.63581,0.012 -5.91026,-0.35086 -6.75,-1.91992 -1.20583,-2.25311 -1.37624,-17.97981 -0.21484,-19.80859 0.84237,-1.32642 4.26809,-2.02903 7.74414,-1.94141 z m 213.47461,74.6836 h 27.48047 27.48047 l 0.0234,9.75 c 0.0131,5.3625 0.44132,11.55044 0.95118,13.75 0.50986,2.19952 0.61262,4.31511 0.22656,4.70117 -0.38606,0.38606 -4.52675,-0.19933 -9.20117,-1.29883 -4.67442,-1.09949 -9.35889,-2.08813 -10.40821,-2.19922 -1.83379,-0.19414 -1.8978,0.69076 -1.66992,22.79102 0.14099,13.67357 0.64816,23.48576 1.25,24.21093 0.61256,0.73809 4.38738,1.33374 9.56445,1.50782 9.43101,0.31712 11.09354,1.34781 9.89258,6.13281 -0.64877,2.58492 -0.86897,2.65552 -8.39648,2.66992 -4.25202,0.008 -8.85742,0.58415 -10.23242,1.28125 -2.36864,1.20086 -2.5,1.71053 -2.5,9.69531 v 8.42774 l -6.83204,0.041 c -3.75806,0.0221 -7.02055,-0.14778 -7.25,-0.37695 -0.22944,-0.22916 -0.41796,-3.85244 -0.41796,-8.05078 0,-4.6037 -0.47549,-8.1083 -1.19922,-8.83203 -0.72305,-0.72305 -4.22392,-1.20117 -8.8086,-1.20117 -9.21986,-10e-6 -11.28548,-1.15246 -10.82031,-6.04297 l 0.32813,-3.45703 8.94922,-0.29102 c 4.92135,-0.1605 9.53384,-0.77871 10.25,-1.37305 1.00155,-0.83124 1.30078,-6.48373 1.30078,-24.49023 0,-20.13753 -0.21469,-23.49059 -1.53711,-23.99805 -0.84548,-0.32444 -2.30798,0.0899 -3.25,0.91992 -1.7823,1.57031 -15.79742,4.48189 -16.79102,3.48828 -0.31205,-0.31205 -0.0978,-2.26956 0.47656,-4.34961 0.58281,-2.11078 0.77513,-6.96329 0.43555,-10.98046 -0.33464,-3.95869 -0.31189,-8.37272 0.0488,-9.81055 z m -148.78516,0.0937 c 2.63425,-1.00153 136.88837,-0.27132 137.88867,0.75 0.35341,0.36085 0.83379,7.02625 1.06641,14.81055 l 0.42188,14.15235 -10.56446,1.65234 c -5.81104,0.90842 -13.4914,1.88784 -17.0664,2.17773 -11.33312,0.919 -12.57721,1.89343 -13.23047,10.36329 -0.25198,3.26715 -0.51933,3.52038 -4.02735,3.81054 -4.06467,0.33621 -4.22806,0.13811 -5.10742,-6.15039 -0.79363,-5.67545 -1.89513,-6.42915 -10.43945,-7.14453 -4.23171,-0.3543 -11.07031,-1.06916 -15.19531,-1.58984 -4.125,-0.52068 -14.475,-1.59885 -23,-2.39649 -22.07272,-2.06521 -36.97289,-3.58256 -40.83399,-4.15625 l -3.33594,-0.49609 0.83594,-5.1875 c 0.45947,-2.85377 0.7071,-8.45722 0.55078,-12.45117 -0.26625,-6.80228 -0.13855,-7.31734 2.03711,-8.14454 z m 282.7461,0.16797 c 37.675,-0.13126 69.00777,0.0937 69.62695,0.5 0.69122,0.45352 1.29076,5.47795 1.55469,13.01758 0.41187,11.76543 0.34456,12.2964 -1.625,12.67774 -1.13061,0.2189 -12.18164,1.34777 -24.55664,2.50781 -12.375,1.16003 -26.325,2.53005 -31,3.04492 -4.675,0.51487 -13.40969,1.3939 -19.41016,1.95313 -13.50443,1.25859 -15.3679,2.29468 -15.7832,8.77343 -0.29893,4.66338 -0.38016,4.77115 -3.8418,5.0625 -4.46752,0.37602 -4.96484,-0.16531 -4.96484,-5.39453 0,-4.22774 -1.87036,-7.40434 -4.35938,-7.40429 -4.17979,0 -34.41375,-4.40458 -35.03125,-5.10352 -0.19246,-0.21785 -0.0698,-6.92149 0.27149,-14.89648 l 0.61914,-14.5 z m -329.5,0.23829 h 17.5 17.5 l 0.50195,10.5 c 0.27609,5.77499 0.86819,11.06643 1.31445,11.75781 1.43916,2.22964 -2.15672,2.57291 -13.84375,1.32422 -14.49336,-1.54853 -15.86134,-0.96627 -20.2207,8.60156 -1.70826,3.74923 -3.39799,9.29141 -3.75586,12.31641 -0.88003,7.43885 1.87006,11.76167 9.02734,14.18554 27.36748,9.26823 92.52779,31.50597 101.97657,34.80274 15.8477,5.52941 23.72281,7.79968 25.25,7.27539 0.6875,-0.23602 1.25,-1.87733 1.25,-3.64649 0,-3.89457 1.53303,-5.61718 5,-5.61718 3.79981,0 4.99842,1.7812 5.01562,7.45117 0.008,2.7775 0.37047,5.60922 0.80469,6.29297 0.43422,0.68375 4.02617,2.34384 7.98242,3.68945 9.50611,3.23323 9.47923,3.20815 7.4375,6.32422 -1.53054,2.33593 -1.72352,5.29621 -1.60351,24.69922 0.075,12.12419 0.29998,23.3869 0.5,25.02929 l 0.36328,2.98633 -12.5,1.1875 c -6.875,0.65352 -23.77597,2.12208 -37.5586,3.26367 -13.78263,1.1416 -25.52726,2.07618 -26.09961,2.07618 -0.57235,0 -2.90388,-1.35002 -5.18164,-3 l -4.14258,-3 h -16.44335 c -18.76482,0 -21.57422,-0.6219 -21.57422,-4.7754 0,-4.64514 1.45133,-5.2246 13.07812,-5.2246 8.07986,0 10.96949,-0.35033 11.875,-1.44141 0.9877,-1.1901 -2.41371,-4.98783 -19.47656,-21.75 -11.36984,-11.16948 -22.31575,-21.16839 -24.32422,-22.2207 -4.20748,-2.20445 -13.69053,-2.38954 -17.99219,-0.34961 -3.79563,1.79997 -6.06164,7.21893 -7.27734,17.40234 -1.63525,13.6979 -1.63052,13.6836 -4.17774,12.83789 -1.21256,-0.40258 -6.12419,-0.9442 -10.91406,-1.20312 -5.26978,-0.28486 -9.12251,-0.97084 -9.75781,-1.73633 -0.71174,-0.8576 -0.96644,-18.62162 -0.79102,-55.15235 l 0.25782,-53.88671 14.15039,-0.27735 c 11.25642,-0.22023 14.41047,-0.5896 15.42383,-1.81055 0.8857,-1.06723 1.2965,-5.70442 1.3496,-15.22265 z m 480.91796,0.10742 c 1.32594,0.5088 1.58431,2.65207 1.59571,13.25 0.0203,18.79199 -1.52811,17.14256 16.10351,17.14258 h 14.88282 v 33.5 c 0,18.425 -0.2938,33.5 -0.65235,33.5 -0.35855,0 -4.81862,-4.03151 -9.91211,-8.95899 -5.09349,-4.92749 -10.42469,-9.25028 -11.84765,-9.60742 -3.2426,-0.81384 -3.23921,-1.87762 0.0312,-12.5957 3.20786,-10.51214 2.80802,-12.81322 -3.21875,-18.58789 -6.7688,-6.48566 -10.75662,-6.01391 -20.42188,2.41015 -1.36255,1.18757 -9.50117,8.00945 -18.08594,15.16016 -8.58477,7.1507 -15.89727,13.75267 -16.25,14.67187 -2.36922,6.1741 0.27339,11.76547 9.98047,21.10742 4.33339,4.17038 7.37696,7.92332 7.37696,9.09571 0,2.01268 -2.85461,5.30468 -4.59961,5.30469 -0.51844,0 -5.32567,-4.05001 -10.68164,-9 -9.29623,-8.59159 -9.94347,-9 -14.29297,-9 -6.09878,-10e-6 -7.14686,0.6911 -14.73828,9.72656 -3.59192,4.27518 -11.04708,13.09662 -16.56641,19.60156 -5.51933,6.50493 -10.31276,12.70155 -10.65234,13.77148 -1.08525,3.41933 0.55963,7.68837 4.54492,11.79493 5.35776,5.52081 8.84396,6.00885 19.39648,2.71875 4.61078,-1.43757 8.64805,-2.6133 8.97266,-2.61328 0.32461,0 1.27601,1.64064 2.11328,3.64453 0.86269,2.06471 7.25861,9.48063 14.75977,17.11523 l 13.23632,13.47266 -37.99609,37.46484 c -20.89759,20.60663 -39.34609,38.32813 -40.99609,39.38086 -3.44749,2.19955 -6.38601,2.48365 -6.95508,0.67188 -0.21595,-0.6875 -0.58398,-4.40002 -0.81836,-8.25 -0.51872,-8.52045 -3.05721,-13.9142 -8.89844,-18.91407 -5.2447,-4.48927 -12.02542,-6.58593 -21.30859,-6.58593 -7.82851,0 -9.51953,-0.91156 -9.51953,-5.13477 0,-1.5042 -0.46776,-3.96413 -1.03907,-5.4668 -0.72661,-1.91111 -0.7179,-2.93019 0.0274,-3.39062 0.58578,-0.36204 10.32046,-1.2146 21.63281,-1.89453 41.04828,-2.4672 62.36029,-6.76689 70.96094,-14.31836 6.18391,-5.42954 4.26045,-10.79781 -5.42969,-15.14649 -17.89563,-8.03108 -60.26641,-15.29885 -114.41797,-19.62695 -13.51149,-1.07992 -15.07941,-1.58563 -25.58398,-8.24805 -10.46963,-6.64027 -21.15693,-8.1789 -35.8125,-5.15625 -12.37573,2.55244 -12.4187,2.54417 -14.10547,-2.46679 -1.12898,-3.35388 -2.23237,-4.67032 -4.81641,-5.75 -4.97796,-2.07992 -8.57894,-1.73178 -11.66406,1.1289 -3.16066,2.93074 -4.21373,6.23441 -3.46289,10.86133 0.29289,1.80485 0.23435,3.69251 -0.12891,4.19531 -0.86025,1.19067 -20.28982,7.61839 -20.9707,6.9375 -0.28678,-0.28641 -0.41268,-11.04953 -0.28125,-23.91797 0.18051,-17.67315 -0.0759,-23.90026 -1.04688,-25.45507 -0.70702,-1.13212 -0.93591,-2.40784 -0.50976,-2.83399 0.90786,-0.90786 33.68862,9.90321 40.85156,13.47266 2.69502,1.34298 5.14395,2.19785 5.44141,1.90039 0.29747,-0.29746 0.61252,-5.18688 0.69922,-10.86524 l 0.15625,-10.32421 h 7 7 l 0.28906,9.99023 c 0.159,5.494 0.65899,10.35626 1.10937,10.80664 0.45039,0.45039 2.57032,-0.0911 4.71094,-1.20508 2.14061,-1.11396 16.45616,-6.31598 31.8125,-11.55859 15.35634,-5.24261 28.72257,-10.25712 29.70313,-11.14453 1.21859,-1.1028 1.87544,-3.39896 2.07812,-7.25196 l 0.29688,-5.63671 4.21679,-0.30469 c 3.9057,-0.28331 4.26393,-0.0988 4.84375,2.5 1.65309,7.40929 1.47643,7.33337 10.22071,4.36133 3.14515,-1.06898 25.06875,-8.52071 48.71875,-16.56055 23.65,-8.03983 49.7419,-16.8589 57.98242,-19.5957 8.24052,-2.73681 15.9838,-5.62948 17.20508,-6.42969 4.53946,-2.97437 3.90859,-14.78017 -1.34375,-25.18164 -4.57695,-9.06394 -5.32757,-9.43184 -16.90039,-8.30664 -5.4689,0.53172 -11.20326,0.97798 -12.74414,0.99218 l -2.80274,0.0254 0.37695,-11.58204 c 0.27941,-8.62594 0.73838,-11.81203 1.80079,-12.48437 1.57054,-0.99395 66.80398,-1.30077 69.34374,-0.32617 z m -496.52929,2.39258 c 3.96117,0 5.26285,0.41389 6.07617,1.93359 2.21478,4.13835 0.76074,4.81623 -5.32617,2.48047 -2.28351,-0.87627 -6.63867,3.92452 -6.63867,7.31836 0,1.55262 0.73246,3.86746 1.62695,5.14453 1.47726,2.10908 2.11898,2.26023 7,1.65039 4.42934,-0.55341 5.37305,-0.40523 5.37305,0.84375 0,0.83339 -1.00028,2.21607 -2.22266,3.07226 -5.7719,4.04279 -14.61995,0.15317 -16.89062,-7.42578 -1.46271,-4.88193 -0.53738,-8.51927 3.08789,-12.14453 2.40299,-2.403 3.69545,-2.87304 7.91406,-2.87304 z m 514.71094,0.20117 c 5.33449,0.23123 6.90039,0.63929 6.90039,1.79883 0,1.01016 -1.39404,1.68654 -4.26954,2.07031 -7.57934,1.01156 -8.19722,4.37091 -1.07226,5.82812 4.59869,0.94053 4.35251,3.40427 -0.41797,4.17969 -4.62318,0.75148 -5.47737,1.52619 -4.10156,3.7207 0.69859,1.1143 2.67217,1.80632 5.71484,2.00586 3.83281,0.25136 4.64649,0.64581 4.64649,2.25 0,1.76485 -0.74178,1.94532 -8,1.94532 -9.21655,0 -8.3805,1.4017 -8.04102,-13.5 0.11277,-4.95 0.55046,-9.35931 0.97266,-9.79883 0.42219,-0.4395 3.87249,-0.66452 7.66797,-0.5 z m -14.05079,82.95507 h 0.002 0.002 0.002 0.002 c 1.28066,-0.12956 26.44336,26.30507 26.44336,27.81446 0,3.71747 -7.12486,11.68708 -33.10157,37.0293 -14.93992,14.57499 -27.68529,26.80902 -28.32421,27.18554 -0.68958,0.40632 -6.22408,-4.19546 -13.61719,-11.32031 -6.85065,-6.60206 -13.74658,-12.68578 -15.32227,-13.51953 -1.5757,-0.83375 -2.4757,-1.87212 -2,-2.30664 1.27511,-1.16474 40.53603,-14.03906 42.8125,-14.03906 1.06957,0 3.19822,1.20193 4.73047,2.66992 2.44248,2.34004 3.09716,2.52572 5.31836,1.51367 1.39344,-0.6349 3.03404,-2.2535 3.64648,-3.59766 0.92761,-2.03589 0.75925,-2.89649 -1.01367,-5.15039 -1.17054,-1.48811 -2.1289,-4.08604 -2.1289,-5.77344 0,-2.45277 11.38063,-39.25359 12.52148,-40.49023 l 0.006,-0.006 c 0.005,-0.004 0.0133,-0.008 0.0215,-0.01 z M 446.4668,378.375 c 1.3033,-0.0339 2.59154,0.34545 3.43164,1.18555 1.66087,1.66087 1.50042,4.35699 -0.3711,6.22851 -2.27768,2.27768 -5.14874,1.92899 -6.96679,-0.8457 -1.32776,-2.02641 -1.37409,-2.75323 -0.28321,-4.5 0.81149,-1.29939 2.51379,-2.02479 4.18946,-2.06836 z m -211.19922,1.16992 c 1.23489,0.0671 0.87567,2.44821 -0.75781,13.44336 -1.89702,12.76906 -1.44531,14.28372 5.30078,17.78516 2.63332,1.36677 6.13711,3.40488 7.78711,4.52929 1.65,1.12442 3.77169,2.04679 4.71484,2.05079 2.0401,0.008 3.78516,2.92072 3.78516,6.31836 0,1.34381 0.5625,2.89095 1.25,3.43945 0.6875,0.5485 5.975,1.49384 11.75,2.09961 5.775,0.60577 20.175,2.23946 32,3.63086 11.825,1.3914 30.275,3.47961 41,4.64062 10.725,1.16101 19.8803,2.4601 20.34375,2.88672 0.46345,0.42661 0.33931,1.71469 -0.27539,2.86328 -0.61471,1.14859 -1.445,5.35946 -1.84375,9.35742 l -0.72461,7.26954 -57.07422,0.25781 c -31.39137,0.14197 -57.37887,-0.0449 -57.75,-0.41602 -0.37113,-0.37113 -0.67578,-6.63743 -0.67578,-13.92578 0,-7.28835 -0.27358,-13.964 -0.60743,-14.83398 -0.51204,-1.33435 -2.74118,-1.58476 -14.25,-1.59766 -7.50365,-0.008 -14.21402,-0.37723 -14.91211,-0.82031 -0.97846,-0.62104 -1.20756,-6.05808 -1,-23.73438 l 0.26954,-22.92968 9,-0.59766 c 4.95,-0.32915 10.0125,-0.94469 11.25,-1.36719 0.60261,-0.20574 1.07415,-0.36841 1.41992,-0.34961 z m 255.1289,7.08008 c 6.82682,0.52143 7.97206,2.85195 5.54102,8.1875 -1.14827,2.52015 -1.28545,2.54687 -12.97461,2.54688 h -11.8125 l -1.52734,-2.94922 c -3.26876,-6.32108 -2.17652,-7.02892 11.97461,-7.74805 3.61624,-0.18377 6.52322,-0.21097 8.79882,-0.0371 z m 253.60938,2.73438 c 0.43469,0 3.31576,2.56506 6.40039,5.69921 4.41048,4.48131 5.36647,5.98869 4.47852,7.0586 -0.78039,0.94032 -2.28838,1.16488 -4.88282,0.72656 -2.19434,-0.37074 -4.6575,-0.15155 -5.92968,0.5293 l -2.17774,1.16601 2.47656,2.66016 c 1.36215,1.4633 2.27174,3.22261 2.01953,3.91016 -0.2522,0.6875 -0.77076,1.25 -1.15234,1.25 -1.46277,-10e-6 -12.24792,-11.18062 -11.875,-12.31055 0.23196,-0.70291 2.91994,-1.31049 6.56445,-1.48633 6.71104,-0.32379 7.45627,-1.20611 4.06641,-4.81445 -1.92534,-2.04941 -1.91963,-4.38867 0.0117,-4.38867 z m -282.33984,1.3789 c 1.21583,0.0306 1.75415,0.54791 2.68164,1.68945 0.9625,1.18465 1.75,3.22891 1.75,4.54297 0,1.95372 -0.50126,2.37913 -2.75,2.33203 -3.63519,-0.0761 -13.8697,-4.75589 -12.67774,-5.79687 0.51042,-0.44577 3.40274,-1.35564 6.42774,-2.02148 2.26718,-0.49906 3.6227,-0.76988 4.56836,-0.7461 z m 266.7246,13.6211 c 1.31318,0 0.71959,2.16802 -1.29296,4.72656 -1.1,1.39842 -2,2.93237 -2,3.4082 0,1.29705 4.42426,1.04254 5.80078,-0.33398 0.83253,-0.83253 1.51902,-0.88138 2.24218,-0.15821 0.72318,0.72318 0.57008,1.43419 -0.5,2.32227 -2.18907,1.81677 -1.97408,5.03516 0.33594,5.03516 1.03265,0 2.43641,-0.67501 3.1211,-1.5 0.68469,-0.82502 1.86539,-1.5 2.62304,-1.5 2.4986,-10e-6 1.40144,2.44938 -2.57422,5.75 -2.15309,1.7875 -4.20735,3.25 -4.5664,3.25 -1.03595,0 -11.43664,-11.38607 -11.46094,-12.54688 -0.0239,-1.14492 7.12739,-8.45312 8.27148,-8.45312 z m -12.93164,13.48437 c 0.43646,0.0146 0.75893,0.32617 1.14454,0.85352 0.68288,0.93388 1.5413,3.9627 1.9082,6.72851 0.75982,5.72779 2.39801,6.94303 6.09375,4.52149 4.15411,-2.72188 3.06799,0.56732 -1.55859,4.7207 -6.57565,5.90307 -6.66528,5.87543 -7.63086,-2.27735 -0.731,-6.17219 -2.38199,-7.86949 -5.84961,-6.01367 -4.50337,2.41013 -4.01806,-0.10408 0.92187,-4.77148 2.88963,-2.73021 4.13747,-3.78961 4.9707,-3.76172 z m -233.86132,14.01563 h 4 4 l 0.69922,6.33593 c 0.38432,3.48471 1.21228,6.95478 1.83984,7.71094 0.94299,1.13623 6.33181,1.26696 31.05078,0.75391 16.4506,-0.34143 29.91016,-0.37808 29.91016,-0.082 0,0.29591 -0.675,2.15245 -1.5,4.12696 -0.825,1.9745 -1.5,4.6818 -1.5,6.01562 0,1.33382 -0.71202,2.69741 -1.58204,3.03125 -0.86998,0.33385 -40.8288,0.60743 -88.79882,0.60743 -66.50305,0 -87.50298,-0.28423 -88.41797,-1.19922 -0.66,-0.66 -1.20117,-3.55636 -1.20117,-6.43555 0,-2.8792 -0.46667,-6.46252 -1.03711,-7.96289 -0.57044,-1.50037 -0.68294,-3.05026 -0.25,-3.44531 0.43294,-0.39504 6.18711,-0.1063 12.78711,0.64257 29.17999,3.31095 96.10073,6.08625 98.15429,4.07032 0.46553,-0.45701 1.07071,-3.83201 1.34571,-7.5 z m 219.82226,2.49414 c 0.28998,-0.0132 0.58077,-0.0131 0.87305,0 2.12565,0.095 4.28485,0.89496 6.06641,2.54687 3.60833,3.34587 3.80634,9.10744 0.42382,12.28516 -5.37166,5.04641 -15.68554,0.57823 -15.68554,-6.79493 0,-4.72917 3.97254,-7.83908 8.32226,-8.0371 z m -472.87695,0.50586 c 2.65834,0 3.15869,0.5661 5.29883,6 3.59884,9.1376 5.22618,13.87196 5.24218,15.25 0.0257,2.20906 -3.88597,1.33253 -5.57812,-1.25 -1.20157,-1.83383 -2.51947,-2.5 -4.94922,-2.5 -2.34217,0 -3.88881,0.73228 -5.2793,2.5 -2.4934,3.16982 -5.21041,3.30326 -5.08984,0.25 0.0489,-1.23751 1.73769,-6.30001 3.75391,-11.25 3.44453,-8.45666 3.84349,-9 6.60156,-9 z m 460.03711,21.53515 c 3.02549,-0.0358 3.35145,1.43621 0.26758,4.05469 -2.09023,1.77478 -2.12574,1.98592 -0.5,2.96094 0.9625,0.57725 1.75,1.92733 1.75,3 0,1.07267 -0.675,1.94918 -1.5,1.94922 -0.825,-10e-6 -1.5,-0.45 -1.5,-1 0,-0.55001 -0.45306,-1.00001 -1.00782,-1 -1.54073,0 -6.99218,-5.15868 -6.99218,-6.61719 0,-0.70824 1.6875,-1.75729 3.75,-2.33008 2.42344,-0.67303 4.35719,-1.00131 5.73242,-1.01758 z m -19.10938,9.03125 c 2.88734,0.0901 15.16477,6.18476 14.97461,7.4336 -0.0837,0.55 -1.9973,1.60707 -4.2539,2.34765 -3.1214,1.0244 -4.24165,1.98128 -4.68164,4 -0.3181,1.45942 -0.75109,3.2148 -0.96289,3.90235 -0.66811,2.16863 -2.16686,1.36475 -3.72852,-2 -5.51489,-11.88241 -5.84567,-12.89537 -4.6582,-14.32618 0.65008,-0.7833 2.14039,-1.39392 3.31054,-1.35742 z m -13.01367,10.9336 c 1.68846,0 10.29386,7.4841 11.76367,10.23046 1.46379,2.73512 -0.51929,4.00001 -5.20312,3.32032 -2.2352,-0.32436 -4.29576,0.004 -5.48633,0.875 -1.8142,1.32658 -1.82229,1.48666 -0.16992,3.3125 0.95519,1.05548 1.73633,2.41952 1.73633,3.03125 0,2.57688 -1.92268,1.88572 -5.83399,-2.09961 -2.82026,-2.87364 -4.16601,-5.12083 -4.16601,-6.95703 0,-2.50103 0.31369,-2.71294 4.03125,-2.71289 4.75721,0 5.96106,-1.83881 3.58007,-5.47266 -1.96224,-2.99476 -2.00132,-3.52734 -0.25195,-3.52734 z" />
  </g>
</svg>
